<?xml version="1.0" encoding="UTF-8"?>
<svg width="36px" height="40px" viewBox="0 0 36 40" version="1.1" xmlns="http://www.w3.org/2000/svg" xmlns:xlink="http://www.w3.org/1999/xlink">
    <!-- Generator: Sketch 51.2 (57519) - http://www.bohemiancoding.com/sketch -->
    <title>icon_contract</title>
    <desc>Created with Sketch.</desc>
    <defs></defs>
    <g id="Page-1" stroke="none" stroke-width="1" fill="none" fill-rule="evenodd">
        <g id="Artboard" transform="translate(-405.000000, -2800.000000)" fill="#6E72EE">
            <g id="开发流程" transform="translate(244.000000, 2489.000000)">
                <g id="icon_contract" transform="translate(161.000000, 311.000000)">
                    <path d="M32,11.8235294 L18.7419355,36 L4,36 L4,4 L32,4 L32,11.8235294 Z" id="Combined-Shape" opacity="0.100000001"></path>
                    <path d="M35,13 C34.4477153,13 34,12.5522847 34,12 L34,3 C34,2.44771525 33.5522847,2 33,2 L3,2 C2.44771525,2 2,2.44771525 2,3 L2,37 C2,37.5522847 2.44771525,38 3,38 L15,38 C15.5522847,38 16,38.4477153 16,39 C16,39.5522847 15.5522847,40 15,40 L3,40 C1.34314575,40 2.02906125e-16,38.6568542 0,37 L0,3 C-2.02906125e-16,1.34314575 1.34314575,3.04359188e-16 3,0 L33,0 C34.6568542,-3.04359188e-16 36,1.34314575 36,3 L36,12 C36,12.5522847 35.5522847,13 35,13 Z M9,9 L27,9 C27.5522847,9 28,9.44771525 28,10 C28,10.5522847 27.5522847,11 27,11 L9,11 C8.44771525,11 8,10.5522847 8,10 C8,9.44771525 8.44771525,9 9,9 Z M9,17 L19,17 C19.5522847,17 20,17.4477153 20,18 C20,18.5522847 19.5522847,19 19,19 L9,19 C8.44771525,19 8,18.5522847 8,18 C8,17.4477153 8.44771525,17 9,17 Z M9,25 L13,25 C13.5522847,25 14,25.4477153 14,26 C14,26.5522847 13.5522847,27 13,27 L9,27 C8.44771525,27 8,26.5522847 8,26 C8,25.4477153 8.44771525,25 9,25 Z M24.4217684,22.1297404 L27.9941035,15.7904126 C28.2629943,15.3115409 28.8587437,15.1470032 29.3254787,15.4243177 C29.7909391,15.6994708 29.9513203,16.3101832 29.6815983,16.7868381 L26.1092632,23.1263875 C25.8404278,23.6030979 25.2446784,23.7676356 24.779218,23.4924825 C24.3140347,23.2164427 24.152933,22.6064507 24.4217684,22.1297404 Z M34.2215412,16.0194408 C35.2317105,16.6259968 35.74605,18.0062512 35.2317105,18.9184959 L31.6593754,25.2581008 L27.7218321,22.9291917 L31.2939455,16.5898085 C31.8254094,15.6795589 33.213644,15.4093934 34.2215412,16.0194408 Z M22.2006983,32.724858 L27.0691623,24.0797861 L31.0110283,26.4071435 L26.1369669,35.0528804 C25.68586,35.8430935 23.6245116,37.8945773 22.3312644,38.196165 L21.9191166,38.9174374 C21.8169248,39.0990994 21.6041176,39.1835019 21.4012857,39.1430464 C21.3432625,39.1295797 21.2872343,39.1075231 21.2324254,39.0763224 C20.9871983,38.9317354 20.8962565,38.6236637 21.0311452,38.3890216 L21.4190751,37.7086481 C20.9812685,36.4255424 21.8240184,33.3829533 22.2006983,32.724858 Z" id="Combined-Shape" fill-rule="nonzero"></path>
                </g>
            </g>
        </g>
    </g>
</svg>