<?xml version="1.0" encoding="UTF-8"?>
<svg width="36px" height="36px" viewBox="0 0 36 36" version="1.1" xmlns="http://www.w3.org/2000/svg" xmlns:xlink="http://www.w3.org/1999/xlink">
    <!-- Generator: Sketch 51.2 (57519) - http://www.bohemiancoding.com/sketch -->
    <title>icon_credible</title>
    <desc>Created with Sketch.</desc>
    <defs></defs>
    <g id="Page-1" stroke="none" stroke-width="1" fill="none" fill-rule="evenodd">
        <g id="Artboard" transform="translate(-782.000000, -3178.000000)" fill="#6E72EE">
            <g id="服务保障" transform="translate(200.000000, 2975.000000)">
                <g id="Group-6-Copy-2" transform="translate(510.000000, 203.000000)">
                    <g id="icon_credible" transform="translate(72.000000, 0.000000)">
                        <path d="M10.6543719,25 C12.2330781,27.3303847 16.4928278,29 21.5,29 C26.5071722,29 30.7669219,27.3303847 32.3456281,25 L34,25 L31,35 L20,35 L10,34 L10,25 L10.6543719,25 Z M3,15 L9,15 L9,33 L3,33 L3,15 Z" id="Combined-Shape" opacity="0.100000001"></path>
                        <path d="M12,34.9168637 L12,35 C12,35.5522847 11.5522847,36 11,36 L1,36 C0.44771525,36 7.17306273e-15,35.5522847 7.10542736e-15,35 L7.10542736e-15,13 C7.03779198e-15,12.4477153 0.44771525,12 1,12 L11,12 C11.5522847,12 12,12.4477153 12,13 L12,13.0031423 C13.6710713,11.8369485 15.3597842,10.2837007 16.5613207,8.82073675 C16.938844,8.31681958 17.2986771,7.76475712 17.6571534,7.14711056 C18.1634326,6.27300749 19.8476126,2.83122351 20.2753416,2.1468872 C21.1216531,0.792336514 22.0451076,0 23.4022213,0 C25.9642735,0 27.0026133,1.70634287 27.0026133,4.50007538 C26.9163651,7.16147767 26.3314171,9.81336952 25.3833057,12.311016 C25.1988434,12.8017765 24.7644926,13.8165278 24.5614268,14.2489907 C25.0213845,14.293293 26.1702522,14.3775042 26.6990582,14.3775042 C27.9993371,14.4165425 29.3028196,14.3985648 30.6017992,14.3999598 C33.994684,14.3999598 36.002362,15.8063244 36.002362,18.4498417 C36.0280429,19.5223053 35.4396956,20.4023386 34.5971533,21.0197339 C35.3541095,22.715523 35.2991797,24.3445218 33.6970678,25.5198093 C34.4542251,27.2144425 34.399044,28.8444464 32.7981383,30.0198846 C33.3291435,31.4624336 33.2164695,30.8214683 33.3020555,31.9498668 C33.3020555,34.4073363 31.4820335,36 28.8027842,36 L23.4022213,36 C20.4265117,36 17.0289531,35.716355 14.0216324,35.2664128 C13.3461804,35.15515 12.6707664,35.0511245 12,34.9168637 Z M12.122111,32.8996569 C12.6116749,33.0050458 13.0225538,33.0773072 13.9514855,33.2284434 C14.1477221,33.2603678 14.1477221,33.2603678 14.3175698,33.2884287 C17.3241914,33.7382663 20.6120068,34 23.4022213,34 L28.8027842,34 C30.4147958,34 31.2723198,33.2589947 31.3012959,32.0155059 C31.256209,31.4196255 31.2696038,31.5724038 31.3033409,31.6835563 C31.3196393,31.7372542 31.1098131,31.2230044 30.9212579,30.7107681 L30.4013824,29.2984544 L31.6144678,28.4077668 C32.2656673,27.9296344 32.3477089,27.4025237 31.8710427,26.3356721 L31.2125869,24.8619479 L32.5140752,23.9071939 C33.1657829,23.4291099 33.2477157,22.9032836 32.7708405,21.8349525 L32.1127875,20.3607339 L33.4150101,19.4064957 C33.8333381,19.0999547 34.010034,18.7941756 34.002362,18.4498417 C34.002362,17.1024974 33.0484888,16.3999598 30.5996513,16.3999586 C30.3285024,16.3996674 30.1106309,16.4000512 29.6181718,16.4013831 C28.9687664,16.4031395 28.6787352,16.4034581 28.3143304,16.4021043 C26.7369519,16.3962445 25.5479794,16.3532694 24.3696778,16.2397775 L21.5448867,15.9676987 L22.7510704,13.3989262 C24.1162017,10.4916478 24.9016886,7.42628409 25.0025761,4.46796868 C24.9980925,2.54087911 24.5873154,2 23.4022213,2 C22.9281836,2 22.557177,2.26923003 21.9713172,3.20691866 C21.8344102,3.42596031 21.4785939,4.10828185 20.7256306,5.58603142 C19.8804294,7.2448276 19.6176053,7.75277449 19.3869225,8.15105222 C18.9859731,8.84187899 18.583708,9.45693572 18.1068685,10.0900996 C16.4983198,12.0486325 14.1740619,14.0756171 12.0331249,15.3672122 L12,32.8733699 L12.122111,32.8996569 Z M2,14 L2,34 L10,34 L10,14 L2,14 Z" id="Combined-Shape" fill-rule="nonzero"></path>
                    </g>
                </g>
            </g>
        </g>
    </g>
</svg>