<?xml version="1.0" encoding="UTF-8"?>
<svg width="30px" height="36px" viewBox="0 0 30 36" version="1.1" xmlns="http://www.w3.org/2000/svg" xmlns:xlink="http://www.w3.org/1999/xlink">
    <!-- Generator: Sketch 51.2 (57519) - http://www.bohemiancoding.com/sketch -->
    <title>icon_safty</title>
    <desc>Created with Sketch.</desc>
    <defs></defs>
    <g id="Page-1" stroke="none" stroke-width="1" fill="none" fill-rule="evenodd">
        <g id="Artboard" transform="translate(-543.000000, -3178.000000)" fill="#6E72EE">
            <g id="服务保障" transform="translate(200.000000, 2975.000000)">
                <g id="Group-6-Copy" transform="translate(268.000000, 203.000000)">
                    <g id="icon_safty" transform="translate(75.000000, 0.000000)">
                        <path d="M2.17974329,22 C3.21124582,24.8377133 8.55850804,27 15,27 C21.441492,27 26.7887542,24.8377133 27.8202567,22 L28,22 L28,34 L2,34 L2,22 L2.17974329,22 Z M15,14 C12.2385763,14 10,11.7614237 10,9 C10,6.23857625 12.2385763,4 15,4 C17.7614237,4 20,6.23857625 20,9 C20,11.7614237 17.7614237,14 15,14 Z" id="Combined-Shape" opacity="0.100000001"></path>
                        <path d="M6,12 L6,9 C6,4.02943725 10.0294373,0 15,0 C19.9705627,0 24,4.02943725 24,9 L24,12 L26,12 C28.209139,12 30,13.790861 30,16 L30,32 C30,34.209139 28.209139,36 26,36 L4,36 C1.790861,36 0,34.209139 0,32 L0,16 C0,13.790861 1.790861,12 4,12 L6,12 Z M8,12 L22,12 L22,9 C22,5.13400675 18.8659932,2 15,2 C11.1340068,2 8,5.13400675 8,9 L8,12 Z M4,14 C2.8954305,14 2,14.8954305 2,16 L2,32 C2,33.1045695 2.8954305,34 4,34 L26,34 C27.1045695,34 28,33.1045695 28,32 L28,16 C28,14.8954305 27.1045695,14 26,14 L4,14 Z M15,20 C16.1045695,20 17,20.8954305 17,22 L17,26 C17,27.1045695 16.1045695,28 15,28 C13.8954305,28 13,27.1045695 13,26 L13,22 C13,20.8954305 13.8954305,20 15,20 Z" id="Combined-Shape" fill-rule="nonzero"></path>
                    </g>
                </g>
            </g>
        </g>
    </g>
</svg>