<?xml version="1.0" encoding="UTF-8"?>
<svg width="66px" height="60px" viewBox="0 0 66 60" version="1.1" xmlns="http://www.w3.org/2000/svg" xmlns:xlink="http://www.w3.org/1999/xlink">
    <!-- Generator: Sketch 51.2 (57519) - http://www.bohemiancoding.com/sketch -->
    <title>icon_computer</title>
    <desc>Created with Sketch.</desc>
    <defs></defs>
    <g id="Page-1" stroke="none" stroke-width="1" fill="none" fill-rule="evenodd">
        <g id="Artboard" transform="translate(-864.000000, -2255.000000)" fill="#6E72EE">
            <g id="全平台" transform="translate(283.000000, 2058.000000)">
                <g id="Group-18" transform="translate(581.000000, 197.000000)">
                    <g id="icon_computer">
                        <path d="M23,53 L23,44 L4,44 C1.790861,44 2.705415e-16,42.209139 0,40 L0,4 C-2.705415e-16,1.790861 1.790861,4.05812251e-16 4,0 L62,0 C64.209139,-4.05812251e-16 66,1.790861 66,4 L66,40 C66,42.209139 64.209139,44 62,44 L43,44 L43,53 L51,53 L51,60 L15,60 L15,53 L23,53 Z M17,55 L17,58 L49,58 L49,55 L17,55 Z M25,44 L25,53 L41,53 L41,44 L25,44 Z M4,2 C2.8954305,2 2,2.8954305 2,4 L2,40 C2,41.1045695 2.8954305,42 4,42 L62,42 C63.1045695,42 64,41.1045695 64,40 L64,4 C64,2.8954305 63.1045695,2 62,2 L4,2 Z" id="Combined-Shape" fill-rule="nonzero"></path>
                        <path d="M6,6 L60,6 L60,38 L6,38 L6,6 Z M17,55 L49,55 L49,58 L17,58 L17,55 Z" id="Combined-Shape" opacity="0.100000001"></path>
                    </g>
                </g>
            </g>
        </g>
    </g>
</svg>