<?xml version="1.0" encoding="UTF-8"?>
<svg width="40px" height="40px" viewBox="0 0 40 40" version="1.1" xmlns="http://www.w3.org/2000/svg" xmlns:xlink="http://www.w3.org/1999/xlink">
    <!-- Generator: Sketch 51.2 (57519) - http://www.bohemiancoding.com/sketch -->
    <title>icon_design</title>
    <desc>Created with Sketch.</desc>
    <defs></defs>
    <g id="Page-1" stroke="none" stroke-width="1" fill="none" fill-rule="evenodd">
        <g id="Artboard" transform="translate(-554.000000, -2800.000000)" fill="#6E72EE">
            <g id="开发流程" transform="translate(244.000000, 2489.000000)">
                <g id="icon_design" transform="translate(310.000000, 311.000000)">
                    <rect id="Combined-Shape" opacity="0.100000001" x="3" y="34" width="34" height="3"></rect>
                    <path d="M2,24.5857864 L9.29289322,17.2928932 C9.68341751,16.9023689 10.3165825,16.9023689 10.7071068,17.2928932 C11.0976311,17.6834175 11.0976311,18.3165825 10.7071068,18.7071068 L3.41421356,26 L15,26 C15.5522847,26 16,26.4477153 16,27 C16,27.5522847 15.5522847,28 15,28 L1,28 C0.44771525,28 6.76353751e-17,27.5522847 0,27 L0,1 C-6.76353751e-17,0.44771525 0.44771525,1.01453063e-16 1,0 C1.55228475,-1.01453063e-16 2,0.44771525 2,1 L2,24.5857864 Z M1,31 L39,31 C39.5522847,31 40,31.4477153 40,32 L40,39 C40,39.5522847 39.5522847,40 39,40 L1,40 C0.44771525,40 6.76353751e-17,39.5522847 0,39 L0,32 C-6.76353751e-17,31.4477153 0.44771525,31 1,31 Z M2,33 L2,38 L38,38 L38,33 L2,33 Z M3,34 L4,34 L4,36 L3,36 L3,34 Z M5,34 L6,34 L6,36 L5,36 L5,34 Z M7,34 L8,34 L8,37 L7,37 L7,34 Z M9,34 L10,34 L10,36 L9,36 L9,34 Z M11,34 L12,34 L12,36 L11,36 L11,34 Z M13,34 L14,34 L14,37 L13,37 L13,34 Z M15,34 L16,34 L16,36 L15,36 L15,34 Z M17,34 L18,34 L18,36 L17,36 L17,34 Z M19,34 L20,34 L20,37 L19,37 L19,34 Z M21,34 L22,34 L22,36 L21,36 L21,34 Z M23,34 L24,34 L24,36 L23,36 L23,34 Z M25,34 L26,34 L26,37 L25,37 L25,34 Z M27,34 L28,34 L28,36 L27,36 L27,34 Z M29,34 L30,34 L30,36 L29,36 L29,34 Z M31,34 L32,34 L32,37 L31,37 L31,34 Z M33,34 L34,34 L34,36 L33,36 L33,34 Z M35,34 L36,34 L36,36 L35,36 L35,34 Z M38.7119156,3.07864569 C39.0981919,3.46429608 39.0981919,4.08794817 38.7119156,4.47376926 L25.4612573,17.725281 C25.2439093,17.9422307 24.9520827,18.0235371 24.6691321,17.9942349 C24.4671464,17.12985 24.0414971,16.3050657 23.3678323,15.6316284 C22.6942243,14.9579635 21.8714314,14.5345902 21.0048275,14.33232 C20.9783702,14.0498246 21.0595059,13.7578273 21.2768538,13.5408776 L34.5277397,0.289365811 C34.9115694,-0.0964552703 35.5369853,-0.0964552703 35.920815,0.289365811 L38.7119156,3.07864569 Z M36.5808412,3.77646317 L35.2245328,2.42103367 L24.0575097,13.5885831 C24.3116687,13.7793676 24.5536773,13.9890271 24.7818069,14.217176 C25.0109304,14.4462221 25.2215484,14.6893903 25.4131969,14.9448264 L36.5808412,3.77646317 Z M19.992338,15 C21.0638973,15 22.0685157,15.4168264 22.8267129,16.1732871 C24.3886496,17.7347757 24.3886496,20.2776353 22.8267129,21.8400202 C21.8976062,22.7669422 21.3078537,22.8459269 19.8842242,23.041092 C18.9100794,23.1723971 17.5770303,23.3561906 15.4319512,23.8921102 L15,24 L15.1078898,23.5697854 C15.6437534,21.4231937 15.8251382,20.0877359 15.9590761,19.1135351 C16.153625,17.6894575 16.2334499,17.1004332 17.1601479,16.1732871 C17.9163845,15.4168264 18.9229635,15 19.992338,15 Z M19.6125853,21.0596248 C19.8643098,21.0251159 19.959015,21.0119407 20.0754093,20.9949313 C20.6746971,20.9073534 20.8659593,20.8530088 21.0206357,20.7567618 C21.1213666,20.6940822 21.2464331,20.5914804 21.4122965,20.4260095 C22.1933874,19.6446944 22.1933874,18.3681648 21.4141216,17.5891211 C21.0299678,17.2058471 20.5329934,17 19.992338,17 C19.4533036,17 18.9555795,17.2061697 18.5747033,17.5871588 C18.4079815,17.7539611 18.3056096,17.8784032 18.2430388,17.978544 C18.1465319,18.1329974 18.0922361,18.3239078 18.0045525,18.9258108 C17.9876811,19.0416246 17.9741359,19.1392812 17.9404378,19.3859424 C17.8388528,20.1248238 17.7448365,20.7492192 17.6350134,21.3642364 C18.2653843,21.2509197 18.892767,21.1566469 19.6125853,21.0596248 Z" id="Combined-Shape" fill-rule="nonzero"></path>
                </g>
            </g>
        </g>
    </g>
</svg>