<?xml version="1.0" encoding="UTF-8"?>
<svg width="19px" height="8px" viewBox="0 0 19 8" version="1.1" xmlns="http://www.w3.org/2000/svg" xmlns:xlink="http://www.w3.org/1999/xlink">
    <!-- Generator: Sketch 51.2 (57519) - http://www.bohemiancoding.com/sketch -->
    <title>icon_flow_arrow</title>
    <desc>Created with Sketch.</desc>
    <defs></defs>
    <g id="Page-1" stroke="none" stroke-width="1" fill="none" fill-rule="evenodd">
        <g id="Artboard" transform="translate(-338.000000, -2832.000000)" fill="#6E72EE">
            <g id="开发流程" transform="translate(244.000000, 2489.000000)">
                <path d="M95,346 L96,346 C96.5522847,346 97,346.447715 97,347 C97,347.552285 96.5522847,348 96,348 L95,348 C94.4477153,348 94,347.552285 94,347 C94,346.447715 94.4477153,346 95,346 Z M100,346 L101,346 C101.552285,346 102,346.447715 102,347 C102,347.552285 101.552285,348 101,348 L100,348 C99.4477153,348 99,347.552285 99,347 C99,346.447715 99.4477153,346 100,346 Z M105,346 L106,346 C106.552285,346 107,346.447715 107,347 C107,347.552285 106.552285,348 106,348 L105,348 C104.447715,348 104,347.552285 104,347 C104,346.447715 104.447715,346 105,346 Z M108.303301,350.693981 C107.8989,350.285955 107.8989,349.624414 108.303301,349.216388 L110.5,347 L108.303301,344.783612 C107.8989,344.375586 107.8989,343.714045 108.303301,343.306019 C108.707702,342.897994 109.363366,342.897994 109.767767,343.306019 L112.696699,346.261204 C113.1011,346.66923 113.1011,347.33077 112.696699,347.738796 L109.767767,350.693981 C109.363366,351.102006 108.707702,351.102006 108.303301,350.693981 Z" id="icon_flow_arrow"></path>
            </g>
        </g>
    </g>
</svg>