<?xml version="1.0" encoding="UTF-8"?>
<svg width="40px" height="40px" viewBox="0 0 40 40" version="1.1" xmlns="http://www.w3.org/2000/svg" xmlns:xlink="http://www.w3.org/1999/xlink">
    <!-- Generator: Sketch 51.2 (57519) - http://www.bohemiancoding.com/sketch -->
    <title>icon_develop</title>
    <desc>Created with Sketch.</desc>
    <defs></defs>
    <g id="Page-1" stroke="none" stroke-width="1" fill="none" fill-rule="evenodd">
        <g id="Artboard" transform="translate(-704.000000, -2800.000000)" fill="#6E72EE" fill-rule="nonzero">
            <g id="开发流程" transform="translate(244.000000, 2489.000000)">
                <g id="icon_develop" transform="translate(460.000000, 311.000000)">
                    <polygon id="Rectangle-38-Copy" opacity="0.100000001" points="4 9 4 36 36 36 36 16 16.1715729 16 9.17157288 9"></polygon>
                    <path d="M0,5 L11,5 L18,12 L40,12 L40,40 L0,40 L0,5 Z M2,7 L2,38 L38,38 L38,14 L17.1715729,14 L10.1715729,7 L2,7 Z M40,9 L18.1715729,9 L11.1715729,2 L0,2 L0,0 L12,0 L19,7 L40,7 L40,9 Z M14.5454545,19 L16,20.4444444 L10.9090909,25.5 L16,30.5555556 L14.5454545,32 L8,25.5 L14.5454545,19 Z M27.4545455,19 L34,25.5 L27.4545455,32 L26,30.5555556 L31.0909091,25.5 L26,20.4444444 L27.4545455,19 Z M19.9544674,34 L18,33.4685767 L22.0455326,18 L24,18.5314233 L19.9544674,34 Z" id="Combined-Shape"></path>
                </g>
            </g>
        </g>
    </g>
</svg>