<?xml version="1.0" encoding="UTF-8"?>
<svg width="25px" height="22px" viewBox="0 0 25 22" version="1.1" xmlns="http://www.w3.org/2000/svg" xmlns:xlink="http://www.w3.org/1999/xlink">
    <!-- Generator: Sketch 51.2 (57519) - http://www.bohemiancoding.com/sketch -->
    <title>icon_online_consult</title>
    <desc>Created with Sketch.</desc>
    <defs></defs>
    <g id="Page-1" stroke="none" stroke-width="1" fill="none" fill-rule="evenodd">
        <g id="Artboard" transform="translate(-1088.000000, -3494.000000)" fill="#FFFFFF" fill-rule="nonzero">
            <g id="footer" transform="translate(0.000000, 3431.000000)">
                <g id="联系方式" transform="translate(956.000000, 50.000000)">
                    <g id="QQ在线咨询按钮" transform="translate(112.000000, 0.000000)">
                        <path d="M23,13 L42,13 C43.6568542,13 45,14.3431458 45,16 L45,27 C45,28.6568542 43.6568542,30 42,30 L39,30 L39,35 L32,30 L23,30 C21.3431458,30 20,28.6568542 20,27 L20,16 C20,14.3431458 21.3431458,13 23,13 Z M37,28 L42,28 C42.5522847,28 43,27.5522847 43,27 L43,16 C43,15.4477153 42.5522847,15 42,15 L23,15 C22.4477153,15 22,15.4477153 22,16 L22,27 C22,27.5522847 22.4477153,28 23,28 L32,28 L32.6409301,28 L37,31.1136214 L37,28 Z M26.5,23 C25.6715729,23 25,22.3284271 25,21.5 C25,20.6715729 25.6715729,20 26.5,20 C27.3284271,20 28,20.6715729 28,21.5 C28,22.3284271 27.3284271,23 26.5,23 Z M32.5,23 C31.6715729,23 31,22.3284271 31,21.5 C31,20.6715729 31.6715729,20 32.5,20 C33.3284271,20 34,20.6715729 34,21.5 C34,22.3284271 33.3284271,23 32.5,23 Z M38.5,23 C37.6715729,23 37,22.3284271 37,21.5 C37,20.6715729 37.6715729,20 38.5,20 C39.3284271,20 40,20.6715729 40,21.5 C40,22.3284271 39.3284271,23 38.5,23 Z" id="icon_online_consult"></path>
                    </g>
                </g>
            </g>
        </g>
    </g>
</svg>