<?xml version="1.0" encoding="UTF-8"?>
<svg width="40px" height="40px" viewBox="0 0 40 40" version="1.1" xmlns="http://www.w3.org/2000/svg" xmlns:xlink="http://www.w3.org/1999/xlink">
    <!-- Generator: Sketch 51.2 (57519) - http://www.bohemiancoding.com/sketch -->
    <title>icon_report</title>
    <desc>Created with Sketch.</desc>
    <defs></defs>
    <g id="Page-1" stroke="none" stroke-width="1" fill="none" fill-rule="evenodd">
        <g id="Artboard" transform="translate(-856.000000, -2800.000000)" fill="#6E72EE">
            <g id="开发流程" transform="translate(244.000000, 2489.000000)">
                <g id="icon_report" transform="translate(612.000000, 311.000000)">
                    <path d="M32,22 C26.4771525,22 22,26.4771525 22,32 C22,33.4222094 22.296895,34.7750753 22.8320874,36 L4,36 L4,4 L32,4 L32,22 Z M32,37 C29.2385763,37 27,34.7614237 27,32 C27,29.2385763 29.2385763,27 32,27 C34.7614237,27 37,29.2385763 37,32 C37,34.7614237 34.7614237,37 32,37 Z" id="Combined-Shape" opacity="0.100000001"></path>
                    <path d="M35,21 C34.4477153,21 34,20.5522847 34,20 L34,3 C34,2.44771525 33.5522847,2 33,2 L3,2 C2.44771525,2 2,2.44771525 2,3 L2,37 C2,37.5522847 2.44771525,38 3,38 L20,38 C20.5522847,38 21,38.4477153 21,39 C21,39.5522847 20.5522847,40 20,40 L3,40 C1.34314575,40 2.02906125e-16,38.6568542 0,37 L0,3 C-2.02906125e-16,1.34314575 1.34314575,3.04359188e-16 3,0 L33,0 C34.6568542,-3.04359188e-16 36,1.34314575 36,3 L36,20 C36,20.5522847 35.5522847,21 35,21 Z M6,7 L30,7 C30.5522847,7 31,7.44771525 31,8 C31,8.55228475 30.5522847,9 30,9 L6,9 C5.44771525,9 5,8.55228475 5,8 C5,7.44771525 5.44771525,7 6,7 Z M6,13 L30,13 C30.5522847,13 31,13.4477153 31,14 C31,14.5522847 30.5522847,15 30,15 L6,15 C5.44771525,15 5,14.5522847 5,14 C5,13.4477153 5.44771525,13 6,13 Z M6,19 L8,19 C8.55228475,19 9,19.4477153 9,20 C9,20.5522847 8.55228475,21 8,21 L6,21 C5.44771525,21 5,20.5522847 5,20 C5,19.4477153 5.44771525,19 6,19 Z M12,19 L14,19 C14.5522847,19 15,19.4477153 15,20 C15,20.5522847 14.5522847,21 14,21 L12,21 C11.4477153,21 11,20.5522847 11,20 C11,19.4477153 11.4477153,19 12,19 Z M18,19 L20,19 C20.5522847,19 21,19.4477153 21,20 C21,20.5522847 20.5522847,21 20,21 L18,21 C17.4477153,21 17,20.5522847 17,20 C17,19.4477153 17.4477153,19 18,19 Z M32,40 C27.581722,40 24,36.418278 24,32 C24,27.581722 27.581722,24 32,24 C36.418278,24 40,27.581722 40,32 C40,36.418278 36.418278,40 32,40 Z M32,38 C35.3137085,38 38,35.3137085 38,32 C38,28.6862915 35.3137085,26 32,26 C28.6862915,26 26,28.6862915 26,32 C26,35.3137085 28.6862915,38 32,38 Z M31.5,32.5 L35,32.5 C35.2761424,32.5 35.5,32.7238576 35.5,33 C35.5,33.2761424 35.2761424,33.5 35,33.5 L31,33.5 C30.7238576,33.5 30.5,33.2761424 30.5,33 L30.5,28 C30.5,27.7238576 30.7238576,27.5 31,27.5 C31.2761424,27.5 31.5,27.7238576 31.5,28 L31.5,32.5 Z" id="Combined-Shape" fill-rule="nonzero"></path>
                </g>
            </g>
        </g>
    </g>
</svg>