<?xml version="1.0" encoding="UTF-8"?>
<svg width="70px" height="74px" viewBox="0 0 70 74" version="1.1" xmlns="http://www.w3.org/2000/svg" xmlns:xlink="http://www.w3.org/1999/xlink">
    <!-- Generator: Sketch 51.2 (57519) - http://www.bohemiancoding.com/sketch -->
    <title>icon_company</title>
    <desc>Created with Sketch.</desc>
    <defs></defs>
    <g id="Page-1" stroke="none" stroke-width="1" fill="none" fill-rule="evenodd">
        <g id="Artboard" transform="translate(-300.000000, -1612.000000)">
            <g id="card-left" transform="translate(270.000000, 1592.000000)">
                <g id="icon_company" transform="translate(30.000000, 20.000000)">
                    <path d="M65.4671989,47.1669094 L66.4306535,46.6068421 C67.317489,46.0913144 68.4514811,46.3972514 68.9634958,47.2901717 C69.4755105,48.1830919 69.1716582,49.3248646 68.2848228,49.8403923 L32.3158503,70.7495723 C31.4290148,71.2651 30.2950226,70.959163 29.7830079,70.0662427 C29.2709932,69.1733225 29.5748455,68.0315498 30.461681,67.5160221 L31.4251356,66.9559548 C32.3119711,66.4404271 32.6158234,65.2986544 32.1038087,64.4057342 C31.591794,63.5128139 30.4578018,63.2068769 29.5709663,63.7224046 L18.0095109,70.4432125 C17.1226754,70.9587402 15.9886832,70.6528031 15.4766685,69.7598829 C14.9646538,68.8669627 15.2685061,67.72519 16.1553416,67.2096623 L19.6880085,65.1560821 C20.574844,64.6405544 20.8786963,63.4987817 20.3666816,62.6058615 C19.8546669,61.7129412 18.7206747,61.4070042 17.8338393,61.9225319 L17.1915362,62.2959101 C16.3047007,62.8114378 15.1707085,62.5055008 14.6586938,61.6125806 C14.1466791,60.7196603 14.4505314,59.5778877 15.3373669,59.0623599 L12.447003,60.7425619 C11.5601675,61.2580896 10.4261754,60.9521526 9.91416069,60.0592323 C9.40214598,59.1663121 9.70599826,58.0245394 10.5928337,57.5090117 L21.5119861,51.1615821 C20.6251506,51.6771098 19.4911585,51.3711727 18.9791438,50.4782525 C18.4671291,49.5853323 18.7709813,48.4435596 19.6578168,47.9280319 L20.6212715,47.3679645 C21.5081069,46.8524368 21.8119592,45.7106641 21.2999445,44.8177439 C20.7879298,43.9248237 19.6539377,43.6188866 18.7671022,44.1344144 L14.5921321,46.5613728 C13.7052967,47.0769005 12.5713045,46.7709634 12.0592898,45.8780432 C11.5472751,44.985123 11.8511274,43.8433503 12.7379629,43.3278226 L8.56299285,45.754781 C7.67615735,46.2703087 6.54216521,45.9643716 6.0301505,45.0714514 C5.51813579,44.1785312 5.82198807,43.0367585 6.70882356,42.5212308 L8.6357328,41.4010961 C9.52256829,40.8855684 9.82642057,39.7437957 9.31440586,38.8508755 C8.80239116,37.9579553 7.66839901,37.6520182 6.78156352,38.1675459 C5.89472803,38.6830737 4.76073589,38.3771366 4.24872118,37.4842164 C3.73670647,36.5912961 4.04055875,35.4495235 4.92739424,34.9339957 L11.350425,31.2002136 C12.2372605,30.6846859 12.5411128,29.5429132 12.0290981,28.649993 C11.5170834,27.7570727 10.3830913,27.4511357 9.49625576,27.9666634 C8.60942027,28.4821911 7.47542813,28.1762541 6.96341342,27.2833339 C6.45139871,26.3904136 6.75525099,25.248641 7.64208648,24.7331132 L40.3995436,5.69082429 C41.2863791,5.17529656 42.4203712,5.48123362 42.9323859,6.37415385 C43.4444006,7.26707408 43.1405483,8.40884675 42.2537129,8.92437448 C41.3668774,9.43990221 41.0630251,10.5816749 41.5750398,11.4745951 C42.0870545,12.3675153 43.2210466,12.6734524 44.1078821,12.1579247 L55.9904891,5.2504277 C56.8773246,4.73489997 58.0113168,5.04083703 58.5233315,5.93375726 C59.0353462,6.82667749 58.7314939,7.96845016 57.8446584,8.48397789 L52.3850822,11.6576927 C51.4982467,12.1732204 51.1943945,13.3149931 51.7064092,14.2079133 C52.2184239,15.1008336 53.352416,15.4067706 54.2392515,14.8912429 L55.8450092,13.9577974 C56.7318447,13.4422696 57.8658368,13.7482067 58.3778515,14.6411269 C58.8898663,15.5340472 58.586014,16.6758198 57.6991785,17.1913476 L61.8741485,14.7643892 C62.760984,14.2488614 63.8949761,14.5547985 64.4069909,15.4477187 C64.9190056,16.3406389 64.6151533,17.4824116 63.7283178,17.9979394 L57.305287,21.7317215 C56.4184515,22.2472492 56.1145992,23.3890219 56.6266139,24.2819421 C57.1386286,25.1748624 58.2726208,25.4807994 59.1594563,24.9652717 L61.4075171,23.6584479 C62.2943525,23.1429202 63.4283447,23.4488573 63.9403594,24.3417775 C64.4523741,25.2346977 64.1485218,26.3764704 63.2616863,26.8919981 L55.2328978,31.5592258 C56.1197333,31.0436981 57.2537255,31.3496351 57.7657402,32.2425554 C58.2777549,33.1354756 57.9739026,34.2772483 57.0870671,34.792776 L61.9043402,31.9924394 C62.7911757,31.4769116 63.9251678,31.7828487 64.4371826,32.6757689 C64.9491973,33.5686892 64.645345,34.7104618 63.7585095,35.2259896 L63.437358,35.4126787 C62.5505225,35.9282064 62.2466702,37.0699791 62.7586849,37.9628993 C63.2706996,38.8558195 64.4046917,39.1617566 65.2915272,38.6462289 L67.2184365,37.5260942 C68.105272,37.0105665 69.2392641,37.3165036 69.7512788,38.2094238 C70.2632935,39.102344 69.9594412,40.2441167 69.0726058,40.7596444 L63.6130296,43.9333592 C62.7261941,44.448887 62.4223418,45.5906596 62.9343565,46.4835799 C63.4463712,47.3765001 64.5803634,47.6824372 65.4671989,47.1669094 Z M16.9998331,14.7317616 C16.0434075,15.2839542 14.8204309,14.9562586 14.2682384,13.9998331 C13.7160458,13.0434075 14.0437414,11.8204309 15.0001669,11.2682384 C15.9565925,10.7160458 17.1795691,11.0437414 17.7317616,12.0001669 C18.2839542,12.9565925 17.9562586,14.1795691 16.9998331,14.7317616 Z M3.99983305,43.7317616 C3.04340751,44.2839542 1.8204309,43.9562586 1.26823835,42.9998331 C0.716045806,42.0434075 1.0437414,40.8204309 2.00016695,40.2682384 C2.95659249,39.7160458 4.1795691,40.0437414 4.73176165,41.0001669 C5.28395419,41.9565925 4.9562586,43.1795691 3.99983305,43.7317616 Z M4.99983305,51.7317616 C4.04340751,52.2839542 2.8204309,51.9562586 2.26823835,50.9998331 C1.71604581,50.0434075 2.0437414,48.8204309 3.00016695,48.2682384 C3.95659249,47.7160458 5.1795691,48.0437414 5.73176165,49.0001669 C6.28395419,49.9565925 5.9562586,51.1795691 4.99983305,51.7317616 Z M2.99983305,66.7317616 C2.04340751,67.2839542 0.820430901,66.9562586 0.268238354,65.9998331 C-0.283954194,65.0434075 0.0437413999,63.8204309 1.00016695,63.2682384 C1.95659249,62.7160458 3.1795691,63.0437414 3.73176165,64.0001669 C4.28395419,64.9565925 3.9562586,66.1795691 2.99983305,66.7317616 Z M12.9998331,73.7317616 C12.0434075,74.2839542 10.8204309,73.9562586 10.2682384,72.9998331 C9.71604581,72.0434075 10.0437414,70.8204309 11.0001669,70.2682384 C11.9565925,69.7160458 13.1795691,70.0437414 13.7317616,71.0001669 C14.2839542,71.9565925 13.9562586,73.1795691 12.9998331,73.7317616 Z M65.9998331,3.73176165 C65.0434075,4.28395419 63.8204309,3.9562586 63.2682384,2.99983305 C62.7160458,2.04340751 63.0437414,0.820430901 64.0001669,0.268238354 C64.9565925,-0.283954194 66.1795691,0.0437413999 66.7317616,1.00016695 C67.2839542,1.95659249 66.9562586,3.1795691 65.9998331,3.73176165 Z M67.9998331,23.7317616 C67.0434075,24.2839542 65.8204309,23.9562586 65.2682384,22.9998331 C64.7160458,22.0434075 65.0437414,20.8204309 66.0001669,20.2682384 C66.9565925,19.7160458 68.1795691,20.0437414 68.7317616,21.0001669 C69.2839542,21.9565925 68.9562586,23.1795691 67.9998331,23.7317616 Z M33.0410137,2.37701499 L32.5370118,1.50405804 C32.4442276,1.3433511 32.4992898,1.13785593 32.6599968,1.04507174 C32.8207037,0.952287547 33.0261989,1.00734981 33.1189831,1.16805675 L33.622985,2.0410137 L34.495942,1.53701177 C34.6566489,1.44422758 34.8621441,1.49928984 34.9549283,1.65999678 C35.0477125,1.82070372 34.9926502,2.02619888 34.8319433,2.11898307 L33.9589863,2.62298501 L34.4629882,3.49594196 C34.5557724,3.6566489 34.5007102,3.86214407 34.3400032,3.95492826 C34.1792963,4.04771245 33.9738011,3.99265019 33.8810169,3.83194325 L33.377015,2.9589863 L32.504058,3.46298823 C32.3433511,3.55577242 32.1378559,3.50071016 32.0450717,3.34000322 C31.9522875,3.17929628 32.0073498,2.97380112 32.1680567,2.88101693 L33.0410137,2.37701499 Z M63.0410137,58.377015 L62.5370118,57.504058 C62.4442276,57.3433511 62.4992898,57.1378559 62.6599968,57.0450717 C62.8207037,56.9522875 63.0261989,57.0073498 63.1189831,57.1680567 L63.622985,58.0410137 L64.495942,57.5370118 C64.6566489,57.4442276 64.8621441,57.4992898 64.9549283,57.6599968 C65.0477125,57.8207037 64.9926502,58.0261989 64.8319433,58.1189831 L63.9589863,58.622985 L64.4629882,59.495942 C64.5557724,59.6566489 64.5007102,59.8621441 64.3400032,59.9549283 C64.1792963,60.0477125 63.9738011,59.9926502 63.8810169,59.8319433 L63.377015,58.9589863 L62.504058,59.4629882 C62.3433511,59.5557724 62.1378559,59.5007102 62.0450717,59.3400032 C61.9522875,59.1792963 62.0073498,58.9738011 62.1680567,58.8810169 L63.0410137,58.377015 Z" id="Combined-Shape" fill="#E8E6FC" opacity="0.5"></path>
                    <path d="M57,64 L62,64 C62.5522847,64 63,64.4477153 63,65 C63,65.5522847 62.5522847,66 62,66 L8,66 C7.44771525,66 7,65.5522847 7,65 C7,64.4477153 7.44771525,64 8,64 L14,64 L14,18 L46,18 L46,25 L57,25 L57,64 Z" id="Combined-Shape" fill="#6E72EE" fill-rule="nonzero"></path>
                    <path d="M16,20 L44,20 L44,64 L16,64 L16,20 Z M46,27 L55,27 L55,64 L46,64 L46,27 Z" id="Combined-Shape" fill="#F0F0FD" fill-rule="nonzero"></path>
                    <path d="M19,26 L28,26 L28,29 L19,29 L19,26 Z M19,34 L28,34 L28,37 L19,37 L19,34 Z M19,42 L28,42 L28,45 L19,45 L19,42 Z M32,26 L41,26 L41,29 L32,29 L32,26 Z M32,34 L41,34 L41,37 L32,37 L32,34 Z M32,42 L41,42 L41,45 L32,45 L32,42 Z M49,33 L52,33 L52,43 L49,43 L49,33 Z M49,46 L52,46 L52,56 L49,56 L49,46 Z" id="Combined-Shape" fill="#6E72EE" fill-rule="nonzero"></path>
                </g>
            </g>
        </g>
    </g>
</svg>