<?xml version="1.0" encoding="UTF-8"?>
<svg width="40px" height="60px" viewBox="0 0 40 60" version="1.1" xmlns="http://www.w3.org/2000/svg" xmlns:xlink="http://www.w3.org/1999/xlink">
    <!-- Generator: Sketch 51.2 (57519) - http://www.bohemiancoding.com/sketch -->
    <title>icon_wechat_app</title>
    <desc>Created with Sketch.</desc>
    <defs></defs>
    <g id="Page-1" stroke="none" stroke-width="1" fill="none" fill-rule="evenodd">
        <g id="Artboard" transform="translate(-1231.000000, -2255.000000)" fill="#6E72EE">
            <g id="全平台" transform="translate(283.000000, 2058.000000)">
                <g id="Group-18" transform="translate(581.000000, 197.000000)">
                    <g id="icon_wechat_app" transform="translate(367.000000, 0.000000)">
                        <path d="M4,0 L36,0 C38.209139,-4.05812251e-16 40,1.790861 40,4 L40,56 C40,58.209139 38.209139,60 36,60 L4,60 C1.790861,60 2.705415e-16,58.209139 0,56 L0,4 C-2.705415e-16,1.790861 1.790861,4.05812251e-16 4,0 Z M4,2 C2.8954305,2 2,2.8954305 2,4 L2,52 L38,52 L38,4 C38,2.8954305 37.1045695,2 36,2 L4,2 Z M17,54 C15.8954305,54 15,54.8954305 15,56 C15,57.1045695 15.8954305,58 17,58 L23,58 C24.1045695,58 25,57.1045695 25,56 C25,54.8954305 24.1045695,54 23,54 L17,54 Z" id="Combined-Shape" fill-rule="nonzero"></path>
                        <rect id="Combined-Shape" opacity="0.100000001" x="6" y="6" width="28" height="42"></rect>
                        <path d="M29,29.7299258 C29,31.1645856 28.0670178,32.4432293 26.8171675,33.4038638 L27.2859108,35 L25.5728982,34.0397026 C24.9515326,34.1946625 24.3226524,34.3568581 23.7008913,34.3568581 C20.7286681,34.3568581 18.3946635,32.2871684 18.3946635,29.7299258 C18.3946635,27.1792223 20.7286681,25.1021621 23.7008913,25.1021621 C26.5062759,25.1021621 29,27.1792223 29,29.7299258 Z M25.4142554,28.9314419 C25.8762751,28.9314419 26.1950548,28.613927 26.1950548,28.2952435 C26.1950548,27.9784476 25.8837458,27.6601687 25.4142554,27.6601687 C25.1038034,27.6601687 24.793615,27.9784476 24.793615,28.2952435 C24.793615,28.613927 25.1038034,28.9314419 25.4142554,28.9314419 Z M21.979661,28.9314419 C22.4499424,28.9314419 22.7611415,28.613927 22.7611415,28.2952435 C22.7611415,27.9784476 22.4499424,27.6601687 21.979661,27.6601687 C21.6695385,27.6601687 21.3586909,27.9784476 21.3586909,28.2952435 C21.3586909,28.613927 21.6695385,28.9314419 21.979661,28.9314419 Z M23.1860295,24.5384416 C20.15938,24.5384416 17.7669061,26.8475146 17.7672356,29.6911498 C17.7672356,30.1609282 17.8377899,30.6215833 17.9649019,31.0552957 C17.7672356,31.0760139 17.5688882,31.0832945 17.3716394,31.0832945 C16.5811501,31.0832945 15.9391302,30.9168744 15.1418513,30.7584316 L12.9124806,31.9051707 L13.5473814,29.9431619 C11.9528895,28.8025798 11,27.3310901 11,25.541299 C11,22.4387306 13.8717202,20 17.3716394,20 C20.5055157,20 23.2497723,21.9474476 23.7995509,24.5744401 C23.5954905,24.5530252 23.3903755,24.5384416 23.1860295,24.5384416 Z M15.2971103,24.4003798 C15.7775211,24.4003798 16.0947407,24.0690228 16.0951802,23.5853574 C16.0951802,23.0948608 15.7775211,22.7700877 15.2971103,22.7700877 C14.8174905,22.7700877 14.3378707,23.0945013 14.3378707,23.5853574 C14.3378707,24.0758539 14.8171609,24.4003798 15.2971103,24.4003798 Z M19.7562911,22.7704472 C19.2830214,22.7704472 18.8041706,23.0948608 18.7970515,23.5861439 C18.7970515,24.0763034 19.2762318,24.4010764 19.7562911,24.4010764 C20.2354714,24.4010764 20.5531525,24.0763034 20.5531525,23.5861439 C20.5531525,23.0953102 20.2359108,22.7704472 19.7562911,22.7704472 Z" id="Combined-Shape"></path>
                    </g>
                </g>
            </g>
        </g>
    </g>
</svg>