<?xml version="1.0" encoding="UTF-8"?>
<svg width="40px" height="60px" viewBox="0 0 40 60" version="1.1" xmlns="http://www.w3.org/2000/svg" xmlns:xlink="http://www.w3.org/1999/xlink">
    <!-- Generator: Sketch 51.2 (57519) - http://www.bohemiancoding.com/sketch -->
    <title>icon_ios</title>
    <desc>Created with Sketch.</desc>
    <defs></defs>
    <g id="Page-1" stroke="none" stroke-width="1" fill="none" fill-rule="evenodd">
        <g id="Artboard" transform="translate(-994.000000, -2255.000000)" fill="#6E72EE">
            <g id="全平台" transform="translate(283.000000, 2058.000000)">
                <g id="Group-18" transform="translate(581.000000, 197.000000)">
                    <g id="icon_ios" transform="translate(130.000000, 0.000000)">
                        <path d="M38,48 L38,10 L2,10 L2,48 L38,48 Z M38,50 L2,50 L2,56 C2,57.1045695 2.8954305,58 4,58 L36,58 C37.1045695,58 38,57.1045695 38,56 L38,50 Z M38,8 L38,4 C38,2.8954305 37.1045695,2 36,2 L4,2 C2.8954305,2 2,2.8954305 2,4 L2,8 L38,8 Z M4,0 L36,0 C38.209139,-4.05812251e-16 40,1.790861 40,4 L40,56 C40,58.209139 38.209139,60 36,60 L4,60 C1.790861,60 2.705415e-16,58.209139 0,56 L0,4 C-2.705415e-16,1.790861 1.790861,4.05812251e-16 4,0 Z" id="Combined-Shape" fill-rule="nonzero"></path>
                        <path d="M9,4 L27,4 C27.5522847,4 28,4.44771525 28,5 C28,5.55228475 27.5522847,6 27,6 L9,6 C8.44771525,6 8,5.55228475 8,5 C8,4.44771525 8.44771525,4 9,4 Z M31,6 C30.4477153,6 30,5.55228475 30,5 C30,4.44771525 30.4477153,4 31,4 C31.5522847,4 32,4.44771525 32,5 C32,5.55228475 31.5522847,6 31,6 Z M6,14 L34,14 L34,44 L6,44 L6,14 Z M20,56 C18.8954305,56 18,55.1045695 18,54 C18,52.8954305 18.8954305,52 20,52 C21.1045695,52 22,52.8954305 22,54 C22,55.1045695 21.1045695,56 20,56 Z" id="Combined-Shape" opacity="0.100000001"></path>
                        <path d="M28,33.2062097 C27.5630645,34.1428447 27.3533781,34.5610307 26.7904071,35.3888484 C26.0050784,36.5455337 24.8977398,37.9845656 23.5257629,37.9973721 C22.3064128,38.0080652 21.9936656,37.2297626 20.3390453,37.2391976 C18.6843989,37.2476514 18.3391541,38.0106063 17.1195178,37.9998881 C15.747723,37.9879371 14.6983285,36.6877386 13.9126876,35.531959 C11.7158073,32.2988861 11.4862165,28.5047178 12.841125,26.4877835 C13.8039286,25.0543371 15.3227823,24.2153987 16.7510901,24.2153987 C18.2054949,24.2153987 19.1197213,24.9863294 20.3218468,24.9863294 C21.4880402,24.9863294 22.1986685,24.2141407 23.8799322,24.2141407 C25.1508257,24.2141407 26.4969658,24.8833239 27.4569334,26.0397073 C24.3129128,27.7053814 24.823742,32.045222 28,33.2062097 Z M22.6044074,22.9228992 C21.9506043,23.7344131 20.8235433,24.3636169 19.7341057,24.3310849 C19.5355034,23.2837957 20.0461244,22.2069182 20.6644637,21.4804203 C21.3459509,20.6805052 22.513029,20.066951 23.5110101,20 C23.6792224,21.0942883 23.2153313,22.1642718 22.6044074,22.9228992 Z" id="Fill-1"></path>
                    </g>
                </g>
            </g>
        </g>
    </g>
</svg>