<?xml version="1.0" encoding="UTF-8"?>
<svg width="40px" height="40px" viewBox="0 0 40 40" version="1.1" xmlns="http://www.w3.org/2000/svg" xmlns:xlink="http://www.w3.org/1999/xlink">
    <!-- Generator: Sketch 51.2 (57519) - http://www.bohemiancoding.com/sketch -->
    <title>icon_demands</title>
    <desc>Created with Sketch.</desc>
    <defs></defs>
    <g id="Page-1" stroke="none" stroke-width="1" fill="none" fill-rule="evenodd">
        <g id="Artboard" transform="translate(-252.000000, -2800.000000)" fill="#6E72EE">
            <g id="开发流程" transform="translate(244.000000, 2489.000000)">
                <g id="icon_demands" transform="translate(8.000000, 311.000000)">
                    <path d="M30,29 L30,36 L4,36 L4,10 L11,10 L11,5 L35,5 L35,29 L30,29 Z" id="Combined-Shape" opacity="0.100000001"></path>
                    <path d="M4,7 C4,7.55228475 3.55228475,8 3,8 L2,8 L2,38 L32,38 L32,37 C32,36.4477153 32.4477153,36 33,36 C33.5522847,36 34,36.4477153 34,37 L34,38 C34,39.1045695 33.1045695,40 32,40 L2,40 C0.8954305,40 1.3527075e-16,39.1045695 0,38 L0,8 C-1.3527075e-16,6.8954305 0.8954305,6 2,6 L3,6 C3.55228475,6 4,6.44771525 4,7 Z M8,0 L38,0 C39.1045695,-2.02906125e-16 40,0.8954305 40,2 L40,32 C40,33.1045695 39.1045695,34 38,34 L8,34 C6.8954305,34 6,33.1045695 6,32 L6,2 C6,0.8954305 6.8954305,2.02906125e-16 8,0 Z M8,2 L8,32 L38,32 L38,2 L8,2 Z M23,27 C17.4771525,27 13,22.5228475 13,17 C13,11.4771525 17.4771525,7 23,7 C28.5228475,7 33,11.4771525 33,17 C33,22.5228475 28.5228475,27 23,27 Z M23,25 C27.418278,25 31,21.418278 31,17 C31,12.581722 27.418278,9 23,9 C18.581722,9 15,12.581722 15,17 C15,21.418278 18.581722,25 23,25 Z M18.1094744,15.6041872 L22.018084,19.2516784 L27.8581435,13.2085364 C28.0881711,12.9496137 28.5019442,12.9278913 28.7779679,13.1653155 C29.0538007,13.3812411 29.0767033,13.7696028 28.8238207,14.0287494 L22.0641277,21 L17.1896977,16.4676212 C16.9367674,16.230197 16.9367674,15.8416114 17.1896977,15.6041872 C17.4426279,15.3668078 17.8565441,15.3668078 18.1094744,15.6041872 Z" id="Combined-Shape" fill-rule="nonzero"></path>
                </g>
            </g>
        </g>
    </g>
</svg>