<?xml version="1.0" encoding="UTF-8"?>
<svg width="40px" height="32px" viewBox="0 0 40 32" version="1.1" xmlns="http://www.w3.org/2000/svg" xmlns:xlink="http://www.w3.org/1999/xlink">
    <!-- Generator: Sketch 51.2 (57519) - http://www.bohemiancoding.com/sketch -->
    <title>icon_online</title>
    <desc>Created with Sketch.</desc>
    <defs></defs>
    <g id="Page-1" stroke="none" stroke-width="1" fill="none" fill-rule="evenodd">
        <g id="Artboard" transform="translate(-1309.000000, -2804.000000)" fill="#6E72EE">
            <g id="开发流程" transform="translate(244.000000, 2489.000000)">
                <g id="icon_online" transform="translate(1065.000000, 315.000000)">
                    <path d="M11.5121171,10 C12.7476263,6.50442288 16.0813435,4 20,4 C23.9186565,4 27.2523737,6.50442288 28.4878829,10 L30,10 C33.3137085,10 36,12.6862915 36,16 C36,19.3137085 33.3137085,22 30,22 L10,22 C6.6862915,22 4,19.3137085 4,16 C4,12.6862915 6.6862915,10 10,10 L11.5121171,10 Z" id="Combined-Shape" opacity="0.100000001"></path>
                    <path d="M28,25 C28,24.4477153 28.4477153,24 29,24 L30,24 C34.418278,24 38,20.418278 38,16 C38,11.876054 34.8642343,8.43753575 30.7919931,8.03856343 L29.8205946,7.94339197 L29.2979271,7.11907935 C27.2918761,3.9552837 23.8147989,2 20,2 C16.1852011,2 12.7081239,3.9552837 10.7020729,7.11907935 L10.1794054,7.94339198 L9.20800124,8.03856399 C5.13576507,8.43753581 2,11.8760547 2,16 C2,20.418278 5.581722,24 10,24 L11,24 C11.5522847,24 12,24.4477153 12,25 C12,25.5522847 11.5522847,26 11,26 L10,26 C4.4771525,26 6.76353751e-16,21.5228475 0,16 C-6.35565922e-16,10.8102104 3.95344123,6.54379648 9.01298766,6.04809427 C11.3179066,2.41295451 15.3771654,0 20,0 C24.6228346,0 28.6820934,2.41295451 30.9870067,6.04809371 C36.0465588,6.54379648 40,10.8102104 40,16 C40,21.5228475 35.5228475,26 30,26 L29,26 C28.4477153,26 28,25.5522847 28,25 Z M21,22.3281509 L21,31 C21,31.5522847 20.5522847,32 20,32 C19.4477153,32 19,31.5522847 19,31 L19,22.3281509 L16.6280982,24.718491 C16.2556482,25.0938363 15.6517875,25.0938363 15.2793375,24.718491 C14.9068875,24.3431458 14.9068875,23.7345908 15.2793375,23.3592455 L19.3256196,19.281509 C19.6980696,18.9061637 20.3019304,18.9061637 20.6743804,19.281509 L24.7206625,23.3592455 C25.0931125,23.7345908 25.0931125,24.3431458 24.7206625,24.718491 C24.3482125,25.0938363 23.7443518,25.0938363 23.3719018,24.718491 L21,22.3281509 Z" id="Combined-Shape" fill-rule="nonzero"></path>
                </g>
            </g>
        </g>
    </g>
</svg>