<?xml version="1.0" encoding="UTF-8"?>
<svg width="40px" height="60px" viewBox="0 0 40 60" version="1.1" xmlns="http://www.w3.org/2000/svg" xmlns:xlink="http://www.w3.org/1999/xlink">
    <!-- Generator: Sketch 51.2 (57519) - http://www.bohemiancoding.com/sketch -->
    <title>icon_android</title>
    <desc>Created with Sketch.</desc>
    <defs></defs>
    <g id="Page-1" stroke="none" stroke-width="1" fill="none" fill-rule="evenodd">
        <g id="Artboard" transform="translate(-1107.000000, -2255.000000)" fill="#6E72EE">
            <g id="全平台" transform="translate(283.000000, 2058.000000)">
                <g id="Group-18" transform="translate(581.000000, 197.000000)">
                    <g id="icon_android" transform="translate(243.000000, 0.000000)">
                        <path d="M38,48 L38,10 L2,10 L2,48 L38,48 Z M38,50 L2,50 L2,56 C2,57.1045695 2.8954305,58 4,58 L36,58 C37.1045695,58 38,57.1045695 38,56 L38,50 Z M38,8 L38,4 C38,2.8954305 37.1045695,2 36,2 L4,2 C2.8954305,2 2,2.8954305 2,4 L2,8 L38,8 Z M4,0 L36,0 C38.209139,-4.05812251e-16 40,1.790861 40,4 L40,56 C40,58.209139 38.209139,60 36,60 L4,60 C1.790861,60 2.705415e-16,58.209139 0,56 L0,4 C-2.705415e-16,1.790861 1.790861,4.05812251e-16 4,0 Z" id="Combined-Shape" fill-rule="nonzero"></path>
                        <path d="M9,4 L27,4 C27.5522847,4 28,4.44771525 28,5 C28,5.55228475 27.5522847,6 27,6 L9,6 C8.44771525,6 8,5.55228475 8,5 C8,4.44771525 8.44771525,4 9,4 Z M31,6 C30.4477153,6 30,5.55228475 30,5 C30,4.44771525 30.4477153,4 31,4 C31.5522847,4 32,4.44771525 32,5 C32,5.55228475 31.5522847,6 31,6 Z M6,14 L34,14 L34,44 L6,44 L6,14 Z M20,56 C18.8954305,56 18,55.1045695 18,54 C18,52.8954305 18.8954305,52 20,52 C21.1045695,52 22,52.8954305 22,54 C22,55.1045695 21.1045695,56 20,56 Z" id="Combined-Shape" opacity="0.100000001"></path>
                        <path d="M14.7839515,33.241416 L14.7839515,26.0306878 L25.2142521,26.0306878 L25.2142521,33.241416 C25.2142521,33.8970965 24.6559141,34.4279693 23.9686953,34.4279693 L23.1193389,34.4279693 L23.1193389,36.8889686 C23.1193389,37.5025046 22.5978964,38 21.9530314,38 C21.3099627,38 20.7867238,37.5025046 20.7867238,36.8889686 L20.7867238,34.4279693 L19.2114567,34.4279693 L19.2114567,36.8889686 C19.2114567,37.5025046 18.6900142,38 18.0451492,38 C17.4021036,38 16.8788647,37.5025046 16.8788647,36.8889686 L16.8788647,34.4279693 L16.0295083,34.4279693 C15.3422664,34.4279693 14.7839515,33.8970965 14.7839515,33.241416 Z M22.5757637,21.6413636 C24.1750521,22.4288834 25.2566059,23.9247755 25.2547198,25.6440033 L14.7434632,25.6440033 C14.7434632,23.9265773 15.8249249,22.4288834 17.4242363,21.6413636 L16.6098638,20.2280468 C16.5655985,20.1542388 16.5951241,20.0592926 16.6743734,20.0188619 C16.7517342,19.9784531 16.8512506,20.004799 16.8936045,20.0804088 L17.7171432,21.5060086 C18.40807,21.2159842 19.1819541,21.0524816 19.9999885,21.0524816 C20.8180459,21.0524816 21.5919069,21.2159842 22.2828338,21.5077225 L23.1063725,20.0804088 C23.1487494,20.004799 23.2482428,19.9784531 23.3257187,20.0188619 C23.4048759,20.0592926 23.4343785,20.1542388 23.3901131,20.2280468 L22.5757637,21.6413636 Z M26.8336925,25.8215248 C27.4785575,25.8215248 28,26.3189983 28,26.9325342 L28,31.585537 C28,32.1990729 27.4785575,32.6965463 26.8336925,32.6965463 C26.190716,32.6965463 25.6674771,32.1990729 25.6674771,31.585537 L25.6674771,26.9325342 C25.6674771,26.3189983 26.1888274,25.8215248 26.8336925,25.8215248 Z M13.1663075,25.8215248 C13.8111726,25.8215248 14.332592,26.3189983 14.332592,26.9325342 L14.332592,31.585537 C14.332592,32.1990729 13.8111726,32.6965463 13.1663075,32.6965463 C12.5232389,32.6965463 12,32.1990729 12,31.585537 L12,26.9325342 C12,26.3189983 12.5214425,25.8215248 13.1663075,25.8215248 Z M22.3934051,23.831653 C22.6347919,23.831653 22.8318903,23.6435843 22.8336867,23.4115033 C22.8336867,23.1794882 22.6365883,22.9914415 22.3934051,22.9914415 C22.1501528,22.9914415 21.9530314,23.1794882 21.9530314,23.4115033 C21.9530314,23.6435843 22.1501528,23.831653 22.3934051,23.831653 Z M17.6084834,23.831653 C17.8498472,23.831653 18.0469686,23.6435843 18.0488572,23.4115033 C18.0488572,23.1794882 17.8516436,22.9914415 17.6084834,22.9914415 C17.3653002,22.9914415 17.1680867,23.1794882 17.1680867,23.4115033 C17.1680867,23.6435843 17.3653002,23.831653 17.6084834,23.831653 Z" id="Fill-1"></path>
                    </g>
                </g>
            </g>
        </g>
    </g>
</svg>