<?xml version="1.0" encoding="UTF-8"?>
<svg width="36px" height="36px" viewBox="0 0 36 36" version="1.1" xmlns="http://www.w3.org/2000/svg" xmlns:xlink="http://www.w3.org/1999/xlink">
    <!-- Generator: Sketch 51.2 (57519) - http://www.bohemiancoding.com/sketch -->
    <title>icon_customer_service</title>
    <desc>Created with Sketch.</desc>
    <defs></defs>
    <g id="Page-1" stroke="none" stroke-width="1" fill="none" fill-rule="evenodd">
        <g id="Artboard" transform="translate(-1266.000000, -3180.000000)" fill="#6E72EE" fill-rule="nonzero">
            <g id="服务保障" transform="translate(200.000000, 2975.000000)">
                <g id="Group-6-Copy-4" transform="translate(994.000000, 205.000000)">
                    <g id="icon_customer_service" transform="translate(72.000000, 0.000000)">
                        <path d="M24.9357531,26 C28.1001991,27.5910636 30.2209588,30.1721809 30.6951719,33.082208 L5,33.082208 C5.47421312,30.1721809 7.5949728,27.5910636 10.7594189,26 C12.6711318,27.3402475 15.1790977,28.1091269 17.847586,28.1091269 C20.5160742,28.1091269 23.0240401,27.3402475 24.9357531,26 Z M18,18 C15.2385763,18 13,15.7614237 13,13 C13,10.2385763 15.2385763,8 18,8 C20.7614237,8 23,10.2385763 23,13 C23,15.7614237 20.7614237,18 18,18 Z" id="Combined-Shape" opacity="0.100000001"></path>
                        <path d="M18,24 C21.3764392,24 24.3975711,22.4787487 26.4153869,20.0842549 C32.1163532,23.1048774 36,29.0989015 36,36 L0,36 C0,29.0989015 3.88364684,23.1048774 9.58461311,20.0842549 C11.6024289,22.4787487 14.6235608,24 18,24 Z M26.7587408,22.6071304 C24.3964661,24.7631338 21.2974106,26 18,26 C14.7025894,26 11.6035339,24.7631338 9.24125915,22.6071304 C5.33100103,25.1666118 2.71041038,29.3187538 2.1244324,34 L33.8755676,34 C33.2895896,29.3187538 30.668999,25.1666118 26.7587408,22.6071304 Z M18,22 C13.0294373,22 9,17.9705627 9,13 C9,8.02943725 13.0294373,4 18,4 C22.9705627,4 27,8.02943725 27,13 C27,17.9705627 22.9705627,22 18,22 Z M18,20 C21.8659932,20 25,16.8659932 25,13 C25,9.13400675 21.8659932,6 18,6 C14.1340068,6 11,9.13400675 11,13 C11,16.8659932 14.1340068,20 18,20 Z M30.0621214,8.14254381 C31.7557407,8.60781728 33,10.1586025 33,12 C33,14.209139 31.209139,16 29,16 L29,13 C29,6.92486775 24.0751322,2 18,2 C11.9248678,2 7,6.92486775 7,13 L7,16 C4.790861,16 3,14.209139 3,12 C3,10.1586025 4.24425933,8.60781728 5.9378786,8.14254381 C7.86201301,3.36902828 12.5375671,0 18,0 C23.4624329,0 28.137987,3.36902828 30.0621214,8.14254381 Z" id="Combined-Shape"></path>
                    </g>
                </g>
            </g>
        </g>
    </g>
</svg>