<?xml version="1.0" encoding="UTF-8"?>
<svg width="26px" height="36px" viewBox="0 0 26 36" version="1.1" xmlns="http://www.w3.org/2000/svg" xmlns:xlink="http://www.w3.org/1999/xlink">
    <!-- Generator: Sketch 51.2 (57519) - http://www.bohemiancoding.com/sketch -->
    <title>icon_technology</title>
    <desc>Created with Sketch.</desc>
    <defs></defs>
    <g id="Page-1" stroke="none" stroke-width="1" fill="none" fill-rule="evenodd">
        <g id="Artboard" transform="translate(-303.000000, -3178.000000)" fill="#6E72EE">
            <g id="服务保障" transform="translate(200.000000, 2975.000000)">
                <g id="Group-6" transform="translate(26.000000, 203.000000)">
                    <g id="icon_technology" transform="translate(77.000000, 0.000000)">
                        <path d="M12.9854207,27.1696224 C19.6635047,27.1696224 25.1358306,21.6303661 25.0430652,14.9643877 L25.0430652,22.850857 C25.0430652,29.5168354 19.6635047,35.0559617 12.9854207,35.0559617 C6.39990963,35.0559617 0.927583704,29.6104744 0.927583704,22.850857 L0.927583704,14.9643877 C0.927583704,21.6303661 6.3071442,27.1696224 12.9854207,27.1696224 Z M13.1707783,17.4991776 C11.7794894,17.4991776 10.5737956,16.2787516 10.5737956,14.8704628 L10.5737956,9.23737256 C10.5737956,7.82908375 11.7794894,6.60859278 13.1707783,6.60859278 C14.5620672,6.60859278 15.7680178,7.82908375 15.7680178,9.23737256 L15.7680178,14.8704628 C15.7680178,16.2787516 14.5620672,17.4991776 13.1707783,17.4991776 Z" id="Combined-Shape" opacity="0.100000001"></path>
                        <path d="M12.0709456,6.42626567 L12.0709456,1.91887298 C6.37259738,2.40053161 1.85699886,7.27202761 1.85699886,13.1594148 L1.85699886,22.8408454 C1.85699886,23.5927822 1.94986519,24.4387925 2.13559785,25.1908594 C2.22852845,25.660641 1.94986519,26.2245611 1.39279574,26.3186345 C0.928592621,26.4126429 0.371266102,26.1305527 0.27865684,25.5666326 C0.0928599111,24.626614 -6.41975305e-06,23.780864 -6.41975305e-06,22.8408454 L-6.41975305e-06,13.1594148 C-6.41975305e-06,5.92174644 5.84980122,2.38031816e-13 12.9995447,2.38031816e-13 C20.1490953,2.38031816e-13 25.998903,5.92174644 25.998903,13.1594148 L25.998903,22.8408454 C26.0917693,30.0785138 20.2419617,36 12.9995447,36 C10.8639404,36 8.72827187,35.4360799 6.77820746,34.4023132 C6.31400434,34.120223 6.12820741,33.5563029 6.40687067,33.0863912 C6.68553393,32.6162192 7.24260338,32.4282025 7.7068065,32.7102927 C9.28534132,33.6503113 11.1423466,34.120223 12.9995447,34.120223 C19.1278228,34.120223 24.1418977,29.0444218 24.1418977,22.8408454 L24.1418977,13.1594148 C24.1418977,7.27197086 19.6262121,2.40043769 13.9279509,1.91885905 L13.9279509,6.43316422 C15.3536538,6.85660496 16.4351491,8.21948136 16.4351491,9.77543891 L16.4351491,15.3210868 C16.5127031,16.8911333 15.4245498,18.2645362 13.9279509,18.6747593 L13.9279509,20.6789327 C13.9279509,21.2428528 13.5566141,21.6189513 12.9995447,21.6189513 C12.4422824,21.6189513 12.0709456,21.2428528 12.0709456,20.6789327 L12.0709456,18.672965 C10.5969127,18.2605445 9.56374751,16.8888519 9.56374751,15.3210868 L9.56374751,9.77543891 C9.56374751,8.14171178 10.6451875,6.82985925 12.0709456,6.42626567 Z M13.0048419,8.08368681 C13.003078,8.08369438 13.0013123,8.08369817 12.9995447,8.08369817 C12.9977767,8.08369817 12.9960106,8.08369438 12.9942464,8.08368682 C12.0684744,8.08654084 11.4210099,8.83722492 11.4210099,9.68136549 L11.4210099,15.2272736 C11.4210099,16.1670971 12.1638762,16.8250255 12.9995447,16.8250255 C13.8350203,16.8250255 14.5778867,16.0730236 14.5778867,15.2272736 L14.5778867,9.68136549 C14.6705763,8.83722462 13.9307744,8.0865403 13.0048419,8.08368681 Z M4.08546304,31.9582908 C3.80705685,31.9582908 3.62132419,31.8642824 3.43552726,31.6764609 C2.97132414,31.206354 2.59979455,30.6424339 2.22852202,30.1725222 C1.94985876,29.7023502 2.0427251,29.1384301 2.50692822,28.8566002 C2.97132414,28.57451 3.52839359,28.6685835 3.80705685,29.1384301 C4.08546304,29.6083418 4.4570569,30.0785138 4.82832942,30.4543521 C5.19985901,30.8304506 5.10699268,31.3943707 4.73546309,31.7702741 C4.54992323,31.8642824 4.3641263,31.9582908 4.08546304,31.9582908 Z" id="Combined-Shape"></path>
                    </g>
                </g>
            </g>
        </g>
    </g>
</svg>