<?xml version="1.0" encoding="UTF-8"?>
<svg width="30px" height="36px" viewBox="0 0 30 36" version="1.1" xmlns="http://www.w3.org/2000/svg" xmlns:xlink="http://www.w3.org/1999/xlink">
    <!-- Generator: Sketch 51.2 (57519) - http://www.bohemiancoding.com/sketch -->
    <title>icon_guarantee</title>
    <desc>Created with Sketch.</desc>
    <defs></defs>
    <g id="Page-1" stroke="none" stroke-width="1" fill="none" fill-rule="evenodd">
        <g id="Artboard" transform="translate(-1027.000000, -3178.000000)" fill="#6E72EE">
            <g id="服务保障" transform="translate(200.000000, 2975.000000)">
                <g id="Group-6-Copy-3" transform="translate(752.000000, 203.000000)">
                    <g id="icon_guarantee" transform="translate(75.000000, 0.000000)">
                        <path d="M27.549713,23.393557 C25.57703,28.8852006 20.9626249,33.1521882 15.0157524,34.5409425 L15.0078312,34.5429164 L14.967055,34.5364439 C9.02695154,33.1414244 4.42042967,28.878026 2.44980101,23.3931926 C5.38039398,25.5904168 9.91295421,27 15,27 C20.0867646,27 24.6191049,25.5905726 27.549713,23.393557 Z" id="Combined-Shape" opacity="0.100000001"></path>
                        <path d="M28.6127105,5.17585554 L30,5.17493746 L30,17.3567019 C30,26.2800193 23.9657588,33.9214226 15.3255342,35.9384887 L15.0545932,36 L14.6774813,35.9384887 C6.03532133,33.9214226 0,26.2800193 0,17.3567019 L0,5.17493746 L1.41771407,5.17493746 C5.90610682,4.97589787 10.2304498,3.4175042 14.2404203,0.544053779 L14.9990549,0 L15.7595797,0.544053779 C19.7718906,3.41805505 24.0960535,4.97589787 28.6127105,5.17585554 Z M15.0000551,2.45530488 C10.9669629,5.24835879 6.60723666,6.83199319 2,7.14253097 L2,17.3567019 C2,25.3075686 7.33637182,32.1084309 15.0014914,33.9598291 C22.6647026,32.1084304 28,25.3075595 28,17.3567019 L28,7.14504273 C23.42883,6.84407313 19.0525662,5.26109638 15.0000551,2.45530488 Z M22.2600599,11.3273272 C22.6315669,10.9186696 23.2640152,10.888553 23.6726728,11.2600599 C24.0813304,11.6315669 24.111447,12.2640152 23.7399401,12.6726728 L13.7399401,23.6726728 C13.3684331,24.0813304 12.7359848,24.111447 12.3273272,23.7399401 C12.2966456,23.7120477 12.2677285,23.682274 12.2407434,23.6507914 L6.2407434,16.6507914 C5.88132125,16.2314655 5.92988278,15.6001655 6.34920863,15.2407434 C6.76853447,14.8813212 7.39983445,14.9298828 7.7592566,15.3492086 L13.0220517,21.4891362 L22.2600599,11.3273272 Z" id="Combined-Shape" fill-rule="nonzero"></path>
                    </g>
                </g>
            </g>
        </g>
    </g>
</svg>