<?xml version="1.0" encoding="UTF-8"?>
<svg width="40px" height="34px" viewBox="0 0 40 34" version="1.1" xmlns="http://www.w3.org/2000/svg" xmlns:xlink="http://www.w3.org/1999/xlink">
    <!-- Generator: Sketch 51.2 (57519) - http://www.bohemiancoding.com/sketch -->
    <title>icon_demonstrate</title>
    <desc>Created with Sketch.</desc>
    <defs></defs>
    <g id="Page-1" stroke="none" stroke-width="1" fill="none" fill-rule="evenodd">
        <g id="Artboard" transform="translate(-1158.000000, -2803.000000)" fill="#6E72EE">
            <g id="开发流程" transform="translate(244.000000, 2489.000000)">
                <g id="icon_demonstrate" transform="translate(914.000000, 314.000000)">
                    <path d="M13.1528964,13 C13.0522295,13.6519398 13,14.3198705 13,15 C13,18.4929843 14.3776081,21.664211 16.6191444,24 L4,24 L4,15 C4,13.8954305 4.8954305,13 6,13 L13.1528964,13 Z M36,23.307148 L36,24 L35.3808556,24 C35.5952936,23.7765453 35.801825,23.5454447 36,23.307148 Z M26,25 C20.4771525,25 16,20.5228475 16,15 C16,9.4771525 20.4771525,5 26,5 C31.5228475,5 36,9.4771525 36,15 C36,20.5228475 31.5228475,25 26,25 Z" id="Combined-Shape" opacity="0.100000001"></path>
                    <path d="M35.7513692,28 L36.7762584,30.4827978 L36.8162477,30.5879458 C37.0919227,31.3789055 37.0631235,32.1681522 36.68996,32.8309461 C36.5337676,33.1083672 36.3364548,33.328264 36.1201714,33.4945314 C35.0434941,34.3319517 33.8014636,34.0321618 33.0471118,33.2983301 L32.9937476,33.2443926 L27.9999021,28 L11.9999021,28 L7.00605658,33.2443926 L6.9526924,33.2983301 C6.19834058,34.0321618 4.95631005,34.3319517 3.87963276,33.4945314 C3.66334941,33.328264 3.46603661,33.1083672 3.30984416,32.8309461 C2.93668071,32.1681522 2.90788146,31.3789055 3.18355642,30.5879458 L3.2235458,30.4827978 L4.24843499,28 L1,28 C0.44771525,28 0,27.5522847 0,27 L0,14 C0,11.5747394 1.72672273,9.55277649 4.01785089,9.09642859 C4.22193767,6.80022511 6.15073628,5 8.5,5 C10.8162768,5 12.7238135,6.75002477 12.9725356,9 L16.7789307,9 C18.7416318,5.98979073 22.1384457,4 26,4 C29.8636666,4 33.2620842,5.99196818 35.2242888,9.00494073 C37.8816267,9.12224874 40,11.3137381 40,14 L40,27 C40,27.5522847 39.5522847,28 39,28 L35.7513692,28 Z M33.6129249,28 L30.7380445,28 L34.4166712,31.8631878 C34.4968529,31.9411883 34.7236032,32.0681707 34.9219841,31.910729 C34.9219841,31.910729 35.1325585,31.7609433 34.9542949,31.2494738 L33.6129249,28 Z M6.38687929,28 L5.0455093,31.2494738 C4.86724569,31.7609433 5.07782009,31.910729 5.07782009,31.910729 C5.27620096,32.0681707 5.50295128,31.9411883 5.58313296,31.8631878 L9.2617597,28 L6.38687929,28 Z M15.7498806,11 L5,11 C3.34314575,11 2,12.3431458 2,14 L2,26 L38,26 L38,14 C38,12.838211 37.3395969,11.8306673 36.3737094,11.3322877 C36.7793004,12.4794392 37,13.713946 37,15 C37,21.0751322 32.0751322,26 26,26 C19.9248678,26 15,21.0751322 15,15 C15,13.5888326 15.2657297,12.2397298 15.7498806,11 Z M6.05000906,9 L10.9499909,9 C10.7183558,7.85887984 9.70947896,7 8.5,7 C7.29052104,7 6.28164422,7.85887984 6.05000906,9 Z M26,24 C30.9705627,24 35,19.9705627 35,15 C35,10.0294373 30.9705627,6 26,6 C21.0294373,6 17,10.0294373 17,15 C17,19.9705627 21.0294373,24 26,24 Z M24.5989173,19.2699943 C24.5989173,19.8328777 24.1427004,20.2890659 23.5797479,20.2890659 C23.0169276,20.2890659 22.5607548,19.8328777 22.5607548,19.2699943 C22.5607548,18.7072431 23.0169276,18.2510108 23.5797479,18.2510108 C23.8501362,18.2510108 24.1093262,18.3582792 24.3004453,18.5494047 C24.4914762,18.7405743 24.5989173,18.9997732 24.5989173,19.2699943 Z M20.8645786,18.1027397 C19.4546181,15.768936 19.7955904,12.7779426 21.6944806,10.8212756 C23.5935031,8.86465273 26.5730207,8.43465334 28.9477468,9.77438383 C31.3224287,11.1140702 32.4951988,13.8867352 31.8027173,16.523959 C31.1102359,19.1611387 28.7266042,20.9998677 26.0000603,21 C25.3809404,21 24.879093,20.4981797 24.879093,19.8790388 C24.879093,19.2598979 25.3809404,18.7580335 26.0000603,18.7580335 C27.7062003,18.7552118 29.1962236,17.6027712 29.6277956,15.9519491 C30.0592353,14.301083 29.3238567,12.566977 27.8370959,11.7295959 C26.3505114,10.8923029 24.4862739,11.1623476 23.2983377,12.3871382 C22.1104016,13.6117966 21.8971947,15.4835042 22.7792962,16.9439502 C23.0143705,17.286918 23.040338,17.731599 22.8469705,18.0993889 C22.6535589,18.467267 22.2724229,18.6979403 21.8568988,18.6987339 C21.4413305,18.6996598 21.0593569,18.4703973 20.8645786,18.1031806 L20.8645786,18.1027397 Z M15.3544525,6.54312793 C14.8496598,6.08127146 14.9156352,5.27966134 15.3529652,4.80807769 C16.5704331,3.49728856 18.0147458,2.41395953 19.617036,1.60964058 C22.6583096,0.100696017 26.1170835,-0.364402846 29.4525406,0.286620643 C32.5846596,0.892373743 35.5081524,2.56388948 37.6494417,4.90908442 C38.113542,5.41768883 38.1201519,6.13483253 37.6494417,6.64433988 C37.2135576,7.11612875 36.3379474,7.12097182 35.9028483,6.64433988 C35.6272552,6.34062195 35.3388554,6.04979151 35.0377314,5.77197169 C34.8871901,5.63283604 34.7337156,5.49718905 34.5770187,5.36490758 C34.5035658,5.30272749 34.429204,5.24116304 34.3541399,5.18037841 C34.3149347,5.14861116 34.1869498,5.05195498 34.1601795,5.03098202 C33.5593775,4.58940078 32.9261455,4.19313096 32.2657714,3.84520976 C31.9506426,3.68103791 31.6193195,3.55052128 31.3022078,3.39209544 L31.2254085,3.36184678 C31.1455109,3.330531 31.0651589,3.29974877 30.9843111,3.26982845 C30.8101805,3.205391 30.6350998,3.14440116 30.4590276,3.08718727 C29.7578371,2.85886526 29.0394195,2.68669003 28.3104673,2.57259059 C28.2212332,2.55777408 27.8253805,2.52169731 28.2246208,2.55777408 C28.1486065,2.55071469 28.0732532,2.53938683 27.9972389,2.53072676 C27.8063357,2.5098359 27.6152671,2.49284411 27.4243639,2.47958723 C27.0486716,2.45393538 26.6730205,2.44314108 26.297163,2.44732746 C25.9068048,2.45163697 25.5178926,2.47203533 25.1302611,2.50844044 C25.0280962,2.51792136 24.9258074,2.5287567 24.8236426,2.54061812 C24.7855528,2.54496867 24.7400269,2.55440855 24.6980951,2.55777408 C24.5467275,2.58108648 24.3953599,2.60530183 24.2444468,2.63271853 C23.5042164,2.76865282 22.776421,2.96442776 22.0683314,3.21799119 C21.8932094,3.28099214 21.7195746,3.34727653 21.5473857,3.41684435 L21.5330504,3.42263141 C21.4547639,3.45772314 21.376023,3.49133733 21.2982323,3.52683949 C20.9617452,3.68153042 20.6329008,3.84726191 20.3117818,4.02399291 C19.9906214,4.20084704 19.677393,4.39050658 19.3721791,4.59313569 C19.2200266,4.69442972 19.0698158,4.79851468 18.921464,4.90530847 C18.8523902,4.9550115 18.7836468,5.00549434 18.7155645,5.05663388 L18.7123421,5.05663388 L18.7050712,5.06242093 C18.1344683,5.51606881 17.598361,6.01117008 17.1008393,6.54312793 C16.6325252,7.04656092 15.8318139,6.97822439 15.3544525,6.54312793 Z" id="Combined-Shape" fill-rule="nonzero"></path>
                </g>
            </g>
        </g>
    </g>
</svg>