<?xml version="1.0" encoding="UTF-8"?>
<svg width="18px" height="18px" viewBox="0 0 18 18" version="1.1" xmlns="http://www.w3.org/2000/svg" xmlns:xlink="http://www.w3.org/1999/xlink">
    <!-- Generator: Sketch 51.2 (57519) - http://www.bohemiancoding.com/sketch -->
    <title>Fill 1</title>
    <desc>Created with Sketch.</desc>
    <defs></defs>
    <g id="Page-1" stroke="none" stroke-width="1" fill="none" fill-rule="evenodd">
        <g id="Artboard" transform="translate(-300.000000, -1717.000000)" fill="#6E72EE">
            <g id="card-left" transform="translate(270.000000, 1592.000000)">
                <path d="M38.9999561,125 C43.9705674,125 48,129.029433 48,133.999956 C48,138.970567 43.9705674,143 38.9999561,143 C34.0294326,143 30,138.970567 30,133.999956 C30,129.029433 34.0294326,125 38.9999561,125 Z M44.1621564,131.665511 C44.48027,131.347397 44.48027,130.83163 44.1622443,130.513516 C43.8441306,130.195403 43.3283852,130.195403 43.0101616,130.513516 L37.7653181,135.758448 L34.9898384,132.98299 C34.6717247,132.664876 34.1559573,132.664876 33.8378436,132.98299 C33.5197519,133.301169 33.5197519,133.816959 33.8378436,134.135073 L37.1891889,137.486396 L37.1892768,137.486484 C37.2389814,137.536122 37.2934762,137.57807 37.3513331,137.612327 C37.6636896,137.796775 38.0728624,137.754915 38.3412715,137.486484 L38.3414254,137.486308 L44.1621564,131.665511 Z" id="Fill-1"></path>
            </g>
        </g>
    </g>
</svg>