<?xml version="1.0" encoding="UTF-8"?>
<svg width="372px" height="285px" viewBox="0 0 372 285" version="1.1" xmlns="http://www.w3.org/2000/svg" xmlns:xlink="http://www.w3.org/1999/xlink">
    <!-- Generator: Sketch 51.2 (57519) - http://www.bohemiancoding.com/sketch -->
    <title>pic_business</title>
    <desc>Created with Sketch.</desc>
    <defs>
        <linearGradient x1="50%" y1="100%" x2="50%" y2="0%" id="linearGradient-1">
            <stop stop-color="#808080" stop-opacity="0.25" offset="0%"></stop>
            <stop stop-color="#808080" stop-opacity="0.12" offset="54%"></stop>
            <stop stop-color="#808080" stop-opacity="0.1" offset="100%"></stop>
        </linearGradient>
        <linearGradient x1="50.0089747%" y1="99.9926529%" x2="50.0089747%" y2="0.00193977786%" id="linearGradient-2">
            <stop stop-color="#808080" stop-opacity="0.25" offset="0%"></stop>
            <stop stop-color="#808080" stop-opacity="0.12" offset="54%"></stop>
            <stop stop-color="#808080" stop-opacity="0.1" offset="100%"></stop>
        </linearGradient>
    </defs>
    <g id="Page-1" stroke="none" stroke-width="1" fill="none" fill-rule="evenodd">
        <g id="Artboard-Copy-2" transform="translate(-273.000000, -131.000000)">
            <g id="pic_business" transform="translate(263.000000, 127.000000)">
                <ellipse id="Oval" fill="#6E72EE" fill-rule="nonzero" opacity="0.1" cx="285.5" cy="273.5" rx="37.5" ry="9.5"></ellipse>
                <path d="M21.4723927,200.771122 C17.2093032,202.232269 12.0350189,205.21314 12.9071624,209.951292 C13.3432342,212.35291 15.2892858,214.132971 17.1377093,215.636423 C25.0330952,222.041699 33.7114028,227.416363 42.9635707,231.63094 C47.3796107,233.635543 52.0755177,235.47418 55.4111412,239.17098 C58.7467647,242.867779 60.2925414,248.035489 61.3762123,253.017708 C63.9193202,264.817048 64.5478286,276.948644 63.2376529,288.947608 C76.5508584,289.201438 91.292687,288.902049 100.713789,279.311847 C106.353434,273.56814 109.376648,265.048578 116.008843,260.603307 C120.431392,257.638708 125.882289,256.903253 131.147693,256.28495 C156.068868,253.371334 181.119129,251.607544 206.298476,250.99358 C216.848809,250.736496 227.630195,250.645378 237.480861,246.968103 C247.331526,243.290829 256.274251,235.252893 258.275625,224.354492 C258.584781,222.675312 258.786545,220.823658 259.935302,219.652137 C260.960396,218.601022 262.49641,218.350447 263.931541,218.164956 L350.459241,206.449745 C355.197454,205.7989 360.101634,205.10575 364.091365,202.427523 C367.950925,199.824143 370.554339,195.665243 373.043853,191.610478 C378.748583,182.329428 384.668094,171.10886 380.717414,160.496831 C377.557521,152.01632 369.063885,147.131728 360.947743,144.098791 C352.831602,141.065853 344.093895,138.934335 337.497497,132.988866 C327.461338,123.94212 325.235419,108.92387 322.407461,95.4481238 C319.848562,83.2448789 316.255909,71.2814982 311.668381,59.6874431 C307.620073,49.4887013 302.689859,39.4363997 295.341724,31.4993444 C287.99359,23.5622892 277.882583,17.9357338 267.592591,18.3392577 C254.152469,18.8729507 242.329718,29.3483016 228.866816,28.0466115 C217.496408,26.9564461 208.244528,17.8446155 198.006604,12.1757552 C179.831524,2.10392824 158.379397,2.98907749 138.492573,6.12940481 C117.404924,9.45196873 96.1871043,15.2672692 79.1022036,28.3460002 C75.1970834,31.3398874 71.4611851,34.7958746 69.166927,39.2997222 C65.6523189,46.2084423 65.9549657,54.6271229 64.1944073,62.3038402 C57.1001057,93.2189795 19.0642352,106.115474 11.2442321,136.806072 C8.46508826,147.701218 10.5217849,159.51731 15.621221,169.585882 C21.1046605,180.425706 32.1203537,185.046706 37.7665066,194.350536 C33.9915571,197.796761 26.4709465,199.056146 21.4723927,200.771122 Z" id="Shape" fill="#6E72EE" fill-rule="nonzero" opacity="0.1"></path>
                <path d="M292.564796,277 C292.564796,277 289.029431,253.446921 299.649018,237.94495 C304.154547,231.470808 306.365824,223.757606 305.950603,215.964252 C305.725513,212.266267 305.149609,208.596095 304.230149,205" id="Shape" stroke="#535461" stroke-width="2"></path>
                <path d="M309.935211,194.892206 C309.545189,197.668498 303.453108,205 303.453108,205 C303.453108,205 299.646363,196.226396 300.026716,193.450105 C300.250725,191.627554 301.427283,190.069731 303.103628,189.376118 C304.779973,188.682504 306.694847,188.961198 308.11137,190.104954 C309.527892,191.24871 310.225297,193.079273 309.935211,194.892206 Z" id="Shape" fill="#6E72EE" fill-rule="nonzero"></path>
                <path d="M316.777063,211.214501 C314.972889,213.275456 306,216 306,216 C306,216 307.484285,206.748036 309.285261,204.699842 C310.451543,203.365141 312.243197,202.752366 313.985324,203.092343 C315.727451,203.43232 317.155381,204.673399 317.731225,206.348077 C318.30707,208.022755 317.943346,209.87661 316.777063,211.211311 L316.777063,211.214501 Z" id="Shape" fill="#6E72EE" fill-rule="nonzero"></path>
                <path d="M311.837596,236.786015 C309.212401,237.680889 300,235.479631 300,235.479631 C300,235.479631 306.01244,228.078963 308.637635,227.187355 C311.205344,226.463373 313.884326,227.897736 314.736028,230.452516 C315.58773,233.007297 314.314469,235.789558 311.837596,236.786015 Z" id="Shape" fill="#6E72EE" fill-rule="nonzero"></path>
                <path d="M305.277322,256.174155 C302.759154,257.452743 293,256.865284 293,256.865284 C293,256.865284 297.842888,248.863899 300.361057,247.585311 C302.879136,246.306617 306.020986,247.192709 307.378575,249.564452 C308.736165,251.936196 307.795401,254.895461 305.277322,256.174155 Z" id="Shape" fill="#6E72EE" fill-rule="nonzero"></path>
                <path d="M295.081933,215.33797 C296.829357,217.599451 306,221 306,221 C306,221 305.026244,211.281291 303.27882,209.009818 C301.52916,206.749143 298.275844,206.333108 296.012336,208.080579 C293.748828,209.82805 293.332272,213.077294 295.081933,215.33797 Z" id="Shape" fill="#6E72EE" fill-rule="nonzero"></path>
                <path d="M286.219705,236.974562 C288.490761,238.526029 298,239 298,239 C298,239 294.268978,230.468515 291.984944,228.926528 C290.509691,227.890761 288.575818,227.709656 286.924949,228.452665 C285.27408,229.195673 284.162441,230.747476 284.016334,232.51297 C283.870228,234.278464 284.712331,235.983634 286.219705,236.974562 Z" id="Shape" fill="#6E72EE" fill-rule="nonzero"></path>
                <path d="M281.573557,260.185657 C283.581661,262.023894 293,264 293,264 C293,264 290.768041,255.25918 288.756645,253.420942 C287.463235,252.197629 285.56217,251.717385 283.781659,252.164167 C282.001148,252.610949 280.617159,253.915509 280.159832,255.578133 C279.702506,257.240756 280.242725,259.003746 281.573557,260.191784 L281.573557,260.185657 Z" id="Shape" fill="#6E72EE" fill-rule="nonzero"></path>
                <path d="M309.935211,194.892206 C309.545189,197.668498 303.453108,205 303.453108,205 C303.453108,205 299.646363,196.226396 300.026716,193.450105 C300.250725,191.627554 301.427283,190.069731 303.103628,189.376118 C304.779973,188.682504 306.694847,188.961198 308.11137,190.104954 C309.527892,191.24871 310.225297,193.079273 309.935211,194.892206 Z" id="Shape" fill="#000000" fill-rule="nonzero" opacity="0.25"></path>
                <path d="M316.777063,211.214501 C314.972889,213.275456 306,216 306,216 C306,216 307.484285,206.748036 309.285261,204.699842 C310.451543,203.365141 312.243197,202.752366 313.985324,203.092343 C315.727451,203.43232 317.155381,204.673399 317.731225,206.348077 C318.30707,208.022755 317.943346,209.87661 316.777063,211.211311 L316.777063,211.214501 Z" id="Shape" fill="#000000" fill-rule="nonzero" opacity="0.25"></path>
                <path d="M311.837596,236.786015 C309.212401,237.680889 300,235.479631 300,235.479631 C300,235.479631 306.01244,228.078963 308.637635,227.187355 C311.205344,226.463373 313.884326,227.897736 314.736028,230.452516 C315.58773,233.007297 314.314469,235.789558 311.837596,236.786015 Z" id="Shape" fill="#000000" fill-rule="nonzero" opacity="0.25"></path>
                <path d="M305.277322,256.174155 C302.759154,257.452743 293,256.865284 293,256.865284 C293,256.865284 297.842888,248.863899 300.361057,247.585311 C302.879136,246.306617 306.020986,247.192709 307.378575,249.564452 C308.736165,251.936196 307.795401,254.895461 305.277322,256.174155 Z" id="Shape" fill="#000000" fill-rule="nonzero" opacity="0.25"></path>
                <path d="M295.081933,215.33797 C296.829357,217.599451 306,221 306,221 C306,221 305.026244,211.281291 303.27882,209.009818 C301.52916,206.749143 298.275844,206.333108 296.012336,208.080579 C293.748828,209.82805 293.332272,213.077294 295.081933,215.33797 Z" id="Shape" fill="#000000" fill-rule="nonzero" opacity="0.25"></path>
                <path d="M286.219705,236.974562 C288.490761,238.526029 298,239 298,239 C298,239 294.268978,230.468515 291.984944,228.926528 C290.509691,227.890761 288.575818,227.709656 286.924949,228.452665 C285.27408,229.195673 284.162441,230.747476 284.016334,232.51297 C283.870228,234.278464 284.712331,235.983634 286.219705,236.974562 Z" id="Shape" fill="#000000" fill-rule="nonzero" opacity="0.25"></path>
                <path d="M281.573557,260.185657 C283.581661,262.023894 293,264 293,264 C293,264 290.768041,255.25918 288.756645,253.420942 C287.463235,252.197629 285.56217,251.717385 283.781659,252.164167 C282.001148,252.610949 280.617159,253.915509 280.159832,255.578133 C279.702506,257.240756 280.242725,259.003746 281.573557,260.191784 L281.573557,260.185657 Z" id="Shape" fill="#000000" fill-rule="nonzero" opacity="0.25"></path>
                <path d="M293,275 C293,275 280.221472,254.967564 283.370043,236.725592 C284.743632,229.088424 283.567238,221.218044 280.017489,214.29614 C278.304548,211.022348 276.290259,207.910566 274,205" id="Shape" stroke="#535461" stroke-width="2"></path>
                <path d="M275.865918,193.563393 C276.617496,196.15791 273.964298,205 273.964298,205 C273.964298,205 266.934459,198.805826 266.18936,196.205026 C265.700945,194.527347 266.172728,192.724463 267.426992,191.475504 C268.681257,190.226545 270.527451,189.721256 272.27013,190.149976 C274.01281,190.578696 275.387222,191.876291 275.875637,193.55397 L275.865918,193.563393 Z" id="Shape" fill="#6E72EE" fill-rule="nonzero"></path>
                <path d="M288.784278,206.355257 C287.96515,208.942047 280.784017,215 280.784017,215 C280.784017,215 278.355772,206.048885 279.165187,203.458936 C279.985036,200.870281 282.800787,199.420124 285.454344,200.219921 C288.1079,201.019718 289.594414,203.766601 288.774565,206.355257 L288.784278,206.355257 Z" id="Shape" fill="#6E72EE" fill-rule="nonzero"></path>
                <path d="M295.368156,231.486862 C293.324152,233.311173 284,235 284,235 C284,235 286.5356,226.099001 288.579604,224.287294 C290.624792,222.46015 293.803137,222.594163 295.678637,224.586619 C297.554137,226.579076 297.416578,229.675473 295.37139,231.502616 L295.368156,231.486862 Z" id="Shape" fill="#6E72EE" fill-rule="nonzero"></path>
                <path d="M295.849802,252.399098 C294.111052,254.642105 285,258 285,258 C285,258 285.993572,248.349775 287.715762,246.090226 C288.822816,244.589372 290.656904,243.805306 292.508168,244.04149 C294.359432,244.277674 295.937361,245.497044 296.631238,247.22766 C297.325115,248.958277 297.026054,250.92856 295.849802,252.37594 L295.849802,252.399098 Z" id="Shape" fill="#6E72EE" fill-rule="nonzero"></path>
                <path d="M270.714564,218.162394 C273.231743,219.446362 283,218.871873 283,218.871873 C283,218.871873 278.165948,210.869832 275.655446,209.589004 C274.026804,208.75905 272.051013,208.809181 270.472335,209.720512 C268.893657,210.631843 267.95193,212.265922 268.001894,214.007207 C268.051858,215.748492 269.085922,217.332441 270.714564,218.162394 Z" id="Shape" fill="#6E72EE" fill-rule="nonzero"></path>
                <path d="M271.243506,241.943882 C274.00858,242.472677 283,239.090318 283,239.090318 C283,239.090318 275.955955,232.641587 273.19088,232.116015 C271.383209,231.72739 269.502967,232.330674 268.277843,233.692385 C267.052718,235.054096 266.674957,236.960556 267.290758,238.673929 C267.90656,240.387302 269.419295,241.638728 271.243506,241.943882 Z" id="Shape" fill="#6E72EE" fill-rule="nonzero"></path>
                <path d="M276.017423,265.715135 C278.623747,266.693472 288,264.837893 288,264.837893 C288,264.837893 282.213959,257.232957 279.601119,256.241576 C277.038996,255.421784 274.283943,256.752013 273.329982,259.269485 C272.376021,261.786956 273.556675,264.611513 276.017423,265.698829 L276.017423,265.715135 Z" id="Shape" fill="#6E72EE" fill-rule="nonzero"></path>
                <polygon id="Shape" fill="url(#linearGradient-1)" fill-rule="nonzero" points="102 23 102 31.9266578 102 253 267 253 267 31.9266578 267 23"></polygon>
                <rect id="Rectangle-path" fill="#F6F7F9" fill-rule="nonzero" x="104" y="25" width="163" height="9"></rect>
                <g id="Group" opacity="0.2" transform="translate(104.000000, 25.000000)" fill="#6E72EE" fill-rule="nonzero">
                    <rect id="Rectangle-path" x="0.0261322645" y="0.00666666667" width="162.836673" height="8.96333333"></rect>
                </g>
                <rect id="Rectangle-path" fill="#F6F7F9" fill-rule="nonzero" x="104" y="34" width="163" height="216"></rect>
                <circle id="Oval" fill="#F6F7F9" fill-rule="nonzero" cx="108.5" cy="29.5" r="1.5"></circle>
                <circle id="Oval" fill="#F6F7F9" fill-rule="nonzero" cx="112.5" cy="29.5" r="1.5"></circle>
                <circle id="Oval" fill="#F6F7F9" fill-rule="nonzero" cx="116.5" cy="29.5" r="1.5"></circle>
                <g id="Group" opacity="0.2" transform="translate(133.000000, 47.000000)" fill="#6E72EE" fill-rule="nonzero">
                    <rect id="Rectangle-path" x="0.0161993769" y="0.35" width="103.854206" height="4.48214286"></rect>
                </g>
                <rect id="Rectangle-path" fill="#6E72EE" fill-rule="nonzero" x="224" y="47" width="14" height="4"></rect>
                <g id="Group" opacity="0.2" transform="translate(119.000000, 71.000000)" fill="#6E72EE" fill-rule="nonzero">
                    <rect id="Rectangle-path" x="0.198814815" y="0.152344828" width="131.491556" height="46.8346897"></rect>
                </g>
                <rect id="Rectangle-path" fill="#F6F7F9" fill-rule="nonzero" x="156" y="88" width="76" height="4"></rect>
                <rect id="Rectangle-path" fill="#F6F7F9" fill-rule="nonzero" x="156" y="96" width="39" height="4"></rect>
                <rect id="Rectangle-path" fill="#6E72EE" fill-rule="nonzero" x="224" y="109" width="14" height="4"></rect>
                <circle id="Oval" fill="#F6F7F9" fill-rule="nonzero" cx="135.5" cy="93.5" r="7.5"></circle>
                <g id="Group" opacity="0.2" transform="translate(119.000000, 131.000000)" fill="#6E72EE" fill-rule="nonzero">
                    <rect id="Rectangle-path" x="0.198814815" y="0.149103448" width="131.491556" height="46.8346897"></rect>
                </g>
                <rect id="Rectangle-path" fill="#F6F7F9" fill-rule="nonzero" x="156" y="148" width="76" height="4"></rect>
                <rect id="Rectangle-path" fill="#F6F7F9" fill-rule="nonzero" x="156" y="156" width="39" height="4"></rect>
                <rect id="Rectangle-path" fill="#6E72EE" fill-rule="nonzero" x="224" y="169" width="14" height="4"></rect>
                <circle id="Oval" fill="#F6F7F9" fill-rule="nonzero" cx="135.5" cy="154.5" r="7.5"></circle>
                <g id="Group" opacity="0.2" transform="translate(119.000000, 191.000000)" fill="#6E72EE" fill-rule="nonzero">
                    <rect id="Rectangle-path" x="0.198814815" y="0.145862069" width="131.491556" height="46.8346897"></rect>
                </g>
                <rect id="Rectangle-path" fill="#F6F7F9" fill-rule="nonzero" x="156" y="208" width="76" height="4"></rect>
                <rect id="Rectangle-path" fill="#F6F7F9" fill-rule="nonzero" x="156" y="216" width="39" height="4"></rect>
                <rect id="Rectangle-path" fill="#6E72EE" fill-rule="nonzero" x="224" y="229" width="14" height="4"></rect>
                <circle id="Oval" fill="#F6F7F9" fill-rule="nonzero" cx="135.5" cy="214.5" r="7.5"></circle>
                <path d="M62.3627952,151.373616 C61.1069617,157.099634 58.8419183,164.155545 58.8419183,164.155545 C61.0810013,166.773061 70.8485955,167.241287 70.8485955,167.241287 L70.8648207,167.221778 L71.017338,167.221778 C71.085484,167.582702 71.1633651,167.93062 71.2574715,168.262281 C71.2401646,168.589606 71.2239394,168.921266 71.2087958,169.257262 C71.0695136,169.64872 71.0217753,170.066993 71.0692587,170.479853 C71.0884071,170.572054 71.1122351,170.663216 71.1406498,170.752985 C70.9070063,175.93599 70.7415089,181.463663 70.884291,184.656706 C70.8851839,185.561175 70.9775996,186.463222 71.1601201,187.349008 C71.3291022,188.024971 71.4248437,188.717222 71.4456843,189.413756 C71.6046916,194.086265 70.4721699,201.935559 70.4721699,201.935559 C70.4721699,201.935559 70.5013754,202.042861 70.5176006,202.098138 C70.4981303,202.231452 70.4851501,202.30949 70.4851501,202.30949 C70.5836114,202.625766 70.6392738,202.953851 70.6506476,203.284962 C70.7350188,207.225867 68.4797105,215.800262 68.4797105,215.800262 C68.4797105,215.800262 66.6559936,228.985386 66.9155974,234.009064 C66.9240397,234.410259 66.9532845,234.810742 67.0032137,235.208895 C67.561362,239.387164 68.3012329,251.053804 68.3012329,251.053804 C68.4306395,251.246202 68.5726523,251.429777 68.7263342,251.60332 C68.6614332,251.863446 68.5835521,252.126823 68.4991808,252.386949 C67.6261835,255.016586 67.2573396,257.787925 67.4120898,260.554897 C67.4348051,260.880055 67.4607655,261.234476 67.493216,261.592149 C67.8663965,265.89723 78.2602849,263.217935 78.94499,262.717193 C79.1786334,262.544859 79.013136,260.984105 78.6918762,259.003898 L89.4005343,261.653929 C89.4005343,261.653929 96.9939464,262.778973 100.605685,261.653929 C104.217423,260.528885 104.090866,257.426885 98.9247499,256.916388 C95.3065215,256.565219 92.4346541,253.190087 91.0165682,251.196874 C91.5649813,249.697899 95.6764569,238.320649 96.4325531,231.277744 C96.9217876,226.72776 97.7230453,222.21692 98.8306435,217.777218 L99.6386604,207.297401 L101.072972,201.119415 L102.783112,192.951466 C104.713915,186.962071 105.304514,176.950481 105.304514,176.950481 L106.797236,167.127482 C107.005206,166.059898 107.121372,164.976402 107.144456,163.888917 C108.54421,164.176461 109.925767,164.546703 111.281892,164.997703 C113.618327,163.176822 110.308378,145.63134 110.308378,145.63134 C110.308378,145.63134 108.715059,134.549983 107.365119,124.44735 C110.45765,123.982375 113.809785,124.710727 113.809785,124.710727 L133.419609,125.143186 C133.82693,124.607882 134.179187,124.032679 134.471005,123.426356 L135.311472,123.426356 C135.415631,123.281074 135.497654,123.121082 135.554851,122.951626 L135.902071,123.016658 C137.176756,123.311873 138.430044,123.693177 139.653346,124.15796 C139.653346,124.15796 145.838407,124.905821 144.903834,118.405929 C144.209393,113.561087 138.705792,115.320187 135.953991,116.523269 L135.606771,116.682596 C135.580811,116.500508 135.564586,116.396457 135.564586,116.396457 L134.678688,116.559036 C134.623807,116.423738 134.562071,116.291336 134.49372,116.162344 C134.49372,116.162344 124.875398,115.788414 117.077548,114.617848 C111.531761,113.785445 107.342404,110.60866 105.37266,108.846308 C104.006495,101.897698 100.037801,99.7874283 100.037801,99.7874283 C97.8344138,99.6768748 95.8484445,98.7046548 94.6283065,97.9535417 C94.1872457,97.6897216 93.7644313,97.3964155 93.3627378,97.0756173 L93.1485646,97.199177 L93.1226042,97.176416 C94.4433387,95.9473218 95.8127489,94.8190264 97.0166617,93.872819 L97.5585847,93.4533662 C101.402132,93.0762768 104.831293,90.8730601 106.777166,87.530479 C108.723039,84.1878979 108.948991,80.1124376 107.38459,76.5744565 C107.332669,76.4573999 107.271013,76.3403433 107.215847,76.2265383 C108.456765,76.0889887 109.441718,75.1168462 109.597712,73.8756518 C109.717779,72.5132432 108.77996,71.0630421 109.393274,69.8404511 C109.505933,69.6590646 109.603609,69.4687562 109.685329,69.271426 C109.736184,69.0852149 109.751596,68.8910746 109.730759,68.6991494 C109.639146,67.5340353 109.047099,66.4662084 108.108235,65.7727347 C106.71611,64.7614958 105.479747,65.2752442 103.957819,65.1874517 C102.199003,65.086653 100.456412,64.6606971 98.7235569,64.3745588 C96.7343426,64.0494016 94.6964525,63.8282947 92.7104832,64.1762129 C90.7245138,64.5241311 88.7807302,65.4996026 87.6287382,67.1579043 C87.1354909,67.866747 86.8012509,68.6763884 86.330719,69.407992 C85.8017762,70.2534007 85.1170711,70.9850044 84.5102471,71.7718848 C83.488057,73.0952746 82.6605698,74.6820417 82.741696,76.3533496 C82.7871267,77.299557 83.1213666,78.2099972 83.1862676,79.1562046 C83.1893536,80.0378502 83.1242578,80.9184101 82.9915647,81.7899778 C82.8911446,82.9129601 82.9556504,84.0446289 83.1830225,85.1488516 C83.2286927,85.4946243 83.3603651,85.8233488 83.5659382,86.1048137 C83.7975605,86.3535132 84.0876064,86.5401865 84.4096506,86.6478262 C84.7464662,86.7809823 85.0924185,86.8896494 85.4448209,86.9729834 C85.0505067,87.8922055 84.5645274,88.7691627 83.9942845,89.5904988 L83.4685868,89.0442347 L82.0472558,91.2683099 L81.99209,91.1187376 C81.923944,91.2585552 81.8460628,91.3918696 81.7649366,91.5251841 L81.6189095,91.1187376 C80.9893702,92.3835991 79.8114178,93.4403599 78.4355175,94.3117812 C74.7166926,96.6529129 69.527861,97.6218814 69.527861,97.6218814 C61.1686176,98.8379693 62.7132604,107.490402 62.7132604,107.490402 C62.7132604,107.490402 59.1664231,122.928865 58.1701934,132.472229 C57.1739636,142.015592 60.8765633,148.096032 60.8765633,148.096032 L62.3627952,151.373616 Z M102.228209,123.156475 C102.552713,124.219739 102.838278,125.227727 103.081656,126.108903 L102.925894,126.170683 C102.747416,125.354538 102.504038,124.307532 102.237944,123.156475 L102.228209,123.156475 Z M93.0317429,97.2512022 L92.9863122,97.2804663 L93.0284979,97.2381959 L93.0317429,97.2512022 Z M78.6139951,258.571439 C78.2051191,256.123005 77.5950501,253.167326 77.2186245,251.401723 C77.4847184,250.533553 77.8384287,249.206912 78.2537948,247.233207 C79.1883686,242.807818 79.7465168,227.148248 79.7465168,227.148248 L81.927189,213.992388 C83.9196484,208.939445 84.3544848,202.937043 84.3544848,202.937043 C85.1560117,200.817019 87.008934,187.839995 87.3042334,185.755738 C87.2198621,187.196184 87.0186692,190.844448 86.9115826,194.895906 C86.9115826,194.931673 86.9115826,194.970692 86.9115826,195.00646 C86.8304564,198.066189 86.807741,201.347025 86.9115826,204.06859 C86.940788,204.83271 86.9797286,205.55781 87.0316493,206.227634 C87.0478746,206.399968 87.0576097,206.578804 87.0640998,206.754389 C87.2977433,213.8103 84.1435567,222.687091 84.1435567,222.687091 C84.1435567,222.687091 82.738451,229.268273 82.946134,232.9458 C82.9436819,233.606274 83.0377027,234.263552 83.2252082,234.896744 C83.3181551,235.189614 83.3716307,235.493617 83.3842155,235.800681 C83.4426264,239.318881 81.3690408,246.703201 80.840098,248.514327 C79.6848609,250.90098 78.8249232,256.984671 78.6139951,258.571439 Z" id="Shape" fill="url(#linearGradient-2)" fill-rule="nonzero"></path>
                <path d="M90.2701088,250.201701 C90.2701088,250.201701 93.8655202,257.080519 98.9221684,257.59457 C103.978817,258.108622 104.100586,261.314678 100.56606,262.48144 C97.0315332,263.648201 89.6003753,262.48144 89.6003753,262.48144 L79,259.718414 C79,259.718414 80.2817866,248.659548 81.9833583,248.08124 C83.6849301,247.502932 90.2701088,250.201701 90.2701088,250.201701 Z" id="Shape" fill="#4C4C78" fill-rule="nonzero"></path>
                <path d="M77.7754155,249.774878 C77.7754155,249.774878 80.5901578,262.20374 79.8873129,262.708951 C79.1844681,263.214163 68.5072794,265.908624 68.1171837,261.576353 C68.0835548,261.216431 68.0566516,260.866415 68.0364743,260.53291 C67.874432,257.747505 68.2533226,254.957251 69.1529551,252.310841 C69.4602118,251.500228 69.6074389,250.639575 69.5867684,249.774878 C69.4018093,248.031403 77.7754155,249.774878 77.7754155,249.774878 Z" id="Shape" fill="#4C4C78" fill-rule="nonzero"></path>
                <path d="M81,94.8194423 C81,94.8194423 89.5141413,115.257583 88.001106,108.704401 C87.0056881,104.350753 93.4792226,98.572923 97.9552852,95.1762987 C100.234792,93.443923 102,92.3311798 102,92.3311798 C102,92.3311798 86.0069521,74.105549 87.1417286,81.9693669 C87.4523437,84.1227698 87.1504225,86.3182185 86.2690788,88.314923 C85.1028157,90.8834203 83.2900723,93.1211975 81,94.8194423 Z" id="Shape" fill="#FFB9B9" fill-rule="nonzero"></path>
                <path d="M134,123.709325 C134.64178,123.619995 135.294908,123.661323 135.920435,123.830844 C137.193854,124.124674 138.445504,124.506564 139.666429,124.973782 C139.666429,124.973782 145.849772,125.722604 144.901005,119.216397 C144.207423,114.362195 138.711118,116.122582 135.959694,117.331206 C135.024014,117.741744 134.402408,118.08988 134.402408,118.08988 L134,123.709325 Z" id="Shape" fill="#FFB9B9" fill-rule="nonzero"></path>
                <path d="M134,123.887822 C134.567879,123.805359 135.145799,123.84351 135.699297,124 C136.292748,122.426478 135.841146,118.700354 135.745615,118 C134.917678,118.378979 134.36765,118.700354 134.36765,118.700354 L134,123.887822 Z" id="Shape" fill="#000000" fill-rule="nonzero" opacity="0.1"></path>
                <path d="M134.411301,118.297108 L135.748028,118 C135.748028,118 136.435333,123.550373 135.539671,125 L134,125 L134.411301,118.297108 Z" id="Shape" fill="#CBCDDA" fill-rule="nonzero"></path>
                <path d="M101.278849,128.101961 C101.278849,128.101961 106.065036,125.168171 106.63482,128.874525 C107.204604,132.580879 107.961151,138.947202 107.961151,138.947202 L109.284317,147.034681 L111,163.242238 L110.759424,166 C110.759424,166 105.672518,164.246246 104.46964,164.852562 C103.266763,165.458879 102.301295,158.052691 102.301295,158.052691 L100.316547,150.366162 L100,134.067332 L101.278849,128.101961 Z" id="Shape" fill="#4C4C78" fill-rule="nonzero"></path>
                <path d="M101.278849,128.101961 C101.278849,128.101961 106.065036,125.168171 106.63482,128.874525 C107.204604,132.580879 107.961151,138.947202 107.961151,138.947202 L109.284317,147.034681 L111,163.242238 L110.759424,166 C110.759424,166 105.672518,164.246246 104.46964,164.852562 C103.266763,165.458879 102.301295,158.052691 102.301295,158.052691 L100.316547,150.366162 L100,134.067332 L101.278849,128.101961 Z" id="Shape" fill="#000000" fill-rule="nonzero" opacity="0.1"></path>
                <path d="M104,109 C104,109 109.109628,114.635852 116.863627,115.773861 C124.617625,116.911869 134.185558,117.27208 134.185558,117.27208 C134.185558,117.27208 136.598709,121.498969 133.117389,126 L113.613526,125.579224 C113.613526,125.579224 109.295255,124.661166 105.950712,125.579224 L104,109 Z" id="Shape" fill="#4C4C78" fill-rule="nonzero"></path>
                <path d="M104,109 C104,109 109.109628,114.635852 116.863627,115.773861 C124.617625,116.911869 134.185558,117.27208 134.185558,117.27208 C134.185558,117.27208 136.598709,121.498969 133.117389,126 L113.613526,125.579224 C113.613526,125.579224 109.295255,124.661166 105.950712,125.579224 L104,109 Z" id="Shape" fill="#000000" fill-rule="nonzero" opacity="0.05"></path>
                <g id="Group"></g>
                <path d="M87.0279471,88.0291496 C88.9799531,92.0404347 92.3667669,95 97.2918282,95 C97.5087178,95 97.7189338,95 97.9324866,95 C100.224842,93.2877488 102,92.187932 102,92.187932 C102,92.187932 85.9168052,74.1740232 87.0579779,81.9464894 C87.408338,84.3096525 87.8120862,86.2431497 87.0279471,88.0291496 Z" id="Shape" fill="#000000" fill-rule="nonzero" opacity="0.1"></path>
                <path d="M85.0000219,82.9967521 C84.9982183,89.6241589 90.369334,94.9981958 96.9967447,94.9999995 C103.624155,95.0018033 108.998196,89.630691 109,83.0032842 C109.001803,76.3758774 103.630688,71.0018403 97.0032774,71.0000362 C93.8185564,70.9922119 90.7619246,72.2534259 88.5093672,74.5047561 C86.2568097,76.7560863 84.9939313,79.8120293 85.0000219,82.9967521 Z" id="Shape" fill="#FFB9B9" fill-rule="nonzero"></path>
                <path d="M78,156.206286 C78,156.206286 104.827583,158.563634 105.829443,155.153141 C106.831303,151.742648 103.092335,142.508885 103.092335,142.508885 L104.290638,129.61357 L104.336475,129.117972 C104.336475,129.117972 100.983846,115.169512 101.095163,114.06746 C101.209755,113.066483 95.6831552,101.351473 94.5470592,98.9680401 L94.3407939,98.5376529 L94.1279805,98.6615522 L94.036307,98.7169809 L92.7266862,99.4799401 L87.5307656,98.2605096 L81.2773261,95 L80.6847227,130.669975 L78,156.206286 Z" id="Shape" fill="#CBCDDA" fill-rule="nonzero"></path>
                <path d="M92.1979522,99.0605186 C92.1979522,99.0605186 94.112628,98.5705436 94.8600683,100.378938 C95.1483429,101.151583 95.4903857,101.905381 95.883959,102.635402 L96.6313993,106.825978 L97.996587,113.443865 L99,142.777898 L98.5494881,148 L96.0511945,143.809424 L95.5972696,116.409504 L95.5972696,112.992572 C95.4498825,110.044197 94.744788,107.144561 93.5153584,104.430903 L93.1740614,103.660482 L91,101.026866 L92.1979522,99.0605186 Z" id="Shape" fill="#000000" fill-rule="nonzero" opacity="0.1"></path>
                <path d="M92.2032382,98.0605345 C92.2032382,98.0605345 94.1154666,97.5704305 94.8619514,99.3793013 C95.1498576,100.152149 95.4914632,100.906146 95.8845334,101.636359 L96.6310183,105.828038 L97.994461,112.447667 L99,141.78942 L98.5432467,147 L96.0481466,142.808321 L95.5948019,115.401188 L95.5948019,111.983358 C95.4487573,109.034396 94.7457174,106.133992 93.5189604,103.419435 L93.1780997,102.648811 L91,100.024175 L92.2032382,98.0605345 Z" id="Shape" fill="#4C4C78" fill-rule="nonzero"></path>
                <path d="M84.4736998,91 C84.4736998,91 90.7765957,97.9075186 93,98.7348066 C93,98.7348066 91.8882979,103.97766 90.7765957,105 C90.7765957,105 84.161643,98.0218592 82.9751773,97.4568821 L82,94.9716551 L84.4736998,91 Z" id="Shape" fill="#000000" fill-rule="nonzero" opacity="0.1"></path>
                <path d="M84.4736998,91 C84.4736998,91 90.7765957,97.9075186 93,98.7348066 C93,98.7348066 91.8882979,103.97766 90.7765957,105 C90.7765957,105 84.161643,98.0218592 82.9751773,97.4568821 L82,94.9716551 L84.4736998,91 Z" id="Shape" fill="#CBCDDA" fill-rule="nonzero"></path>
                <path d="M93,98 L93.0631912,98.1722764 L95.028436,103.587606 L98.535545,113.813673 C98.535545,113.813673 98.5703002,113.917689 98.6303318,114.112719 C99.2116904,115.972004 102.339652,126.0648 102.955766,129 L103,128.505924 C103,128.505924 99.7677725,114.587292 99.8751975,113.488623 C99.985782,112.49072 94.6524487,100.811681 93.5560821,98.4355667 C93.3823065,98.3120478 93.2401264,98.2080319 93.1516588,98.1300199 L93,98 Z" id="Shape" fill="#000000" fill-rule="nonzero" opacity="0.1"></path>
                <path d="M94,98 L96.1261064,103.567966 L99.8053964,113.746246 C99.8053964,113.746246 99.841825,113.849775 99.9047472,114.043894 C100.550527,116.017432 104.229817,127.276305 104.541116,129.337196 C104.872285,131.601912 109.508655,143.824907 109.508655,143.824907 L112.158008,165 C114.519245,163.201169 111.164501,145.911681 111.164501,145.911681 C111.164501,145.911681 107.38586,120.262157 106.491703,111.730649 C105.597546,103.19914 100.75254,100.6756 100.75254,100.6756 C98.5237715,100.565599 96.5168861,99.6079482 95.2816249,98.8670626 C94.8351339,98.6062387 94.4069728,98.3165732 94,98 Z" id="Shape" fill="#4C4C78" fill-rule="nonzero"></path>
                <path d="M68.0965327,235.013097 C68.6529171,239.137352 69.3980166,250.649011 69.3980166,250.649011 C72.0009845,254.533711 77.7502896,252.432736 77.7502896,252.432736 C77.7502896,252.432736 78.3652408,251.260852 79.292548,246.890565 C80.2198553,242.520278 80.7794934,227.072124 80.7794934,227.072124 L82.9464641,214.087517 C84.9247197,209.102152 85.3574631,203.194172 85.3574631,203.194172 C86.2229499,200.928098 88.3281001,185.959056 88.3281001,185.959056 C88.3281001,185.959056 87.4593596,199.377455 88.0027291,206.454082 C88.5460986,213.53071 85.1589868,223.074121 85.1589868,223.074121 C85.1589868,223.074121 83.239298,231.999218 84.2316795,234.767066 C85.224061,237.534914 81.7556063,248.985065 81.7556063,248.985065 C82.0647088,252.30972 91.9006734,250.953313 91.9006734,250.953313 C91.9006734,250.953313 96.5404635,238.583783 97.3441298,231.134872 C97.8307092,226.644155 98.6275846,222.192114 99.7290991,217.810353 L100.529512,207.470579 L101.954637,201.378075 L103.656327,193.317324 C105.572762,187.406107 106.161683,177.529259 106.161683,177.529259 L107.645375,167.836934 C108.621488,163.042568 107.362302,157.422703 106.516338,154.470331 C106.151922,153.198092 105.865596,152.417915 105.865596,152.417915 C105.013124,153.020044 100.132559,153.712815 97.6076803,154.298757 C96.2216056,154.614304 94.7961311,154.723401 93.3778576,154.622482 C86.9972451,154.121003 80.6848156,152.972291 74.5388781,151.194235 L73.8881361,151 L73.7579877,152.107139 L73.452139,154.748735 L72.9120232,159.433035 C72.9120232,159.433035 71.2396164,184.421363 72.2287441,187.807526 C73.2178719,191.193689 71.5487188,202.566146 71.5487188,202.566146 C72.4760261,205.266012 69.5704633,216.240287 69.5704633,216.240287 C69.5704633,216.240287 67.5401484,230.892078 68.0965327,235.013097 Z" id="Shape" fill="#000000" fill-rule="nonzero" opacity="0.1"></path>
                <path d="M68.0961442,235.013097 C68.6525339,239.137352 69.3976407,250.649011 69.3976407,250.649011 C72.0006339,254.533711 77.749995,252.432736 77.749995,252.432736 C77.749995,252.432736 78.3649522,251.260852 79.2922685,246.890565 C80.2195848,242.520278 80.7792283,227.072124 80.7792283,227.072124 L82.9462201,214.087517 C84.9244949,209.102152 85.3572426,203.194172 85.3572426,203.194172 C86.2227378,200.928098 88.3279085,185.959056 88.3279085,185.959056 C88.3279085,185.959056 87.4591595,199.377455 88.0025344,206.454082 C88.5459092,213.53071 85.1587643,223.074121 85.1587643,223.074121 C85.1587643,223.074121 83.2390569,231.999218 84.231448,234.767066 C85.2238392,237.534914 81.7553508,248.985065 81.7553508,248.985065 C82.0644562,252.30972 91.9005166,250.953313 91.9005166,250.953313 C91.9005166,250.953313 96.5403519,238.583783 97.3440261,231.134872 C97.8306102,226.644155 98.6274934,222.192114 99.7290186,217.810353 L100.529439,207.470579 L101.954578,201.378075 L103.656284,193.317324 C105.572738,187.406107 106.161665,177.529259 106.161665,177.529259 L107.645372,167.833697 C108.621494,163.042568 107.362296,157.422703 106.516323,154.470331 C106.151904,153.198092 105.865575,152.417915 105.865575,152.417915 C105.013095,153.020044 100.132483,153.712815 97.6075791,154.298757 C96.2214909,154.614304 94.7960025,154.723401 93.3777152,154.622482 C86.9970406,154.121003 80.6845496,152.972291 74.5385522,151.194235 L73.8878039,151 L73.7576543,152.107139 L73.4518026,154.748735 L72.9116815,159.433035 C72.9116815,159.433035 71.2392584,184.421363 72.2283958,187.807526 C73.2175332,191.193689 71.5581251,202.569383 71.5581251,202.569383 C72.4854414,205.269249 69.5798503,216.243525 69.5798503,216.243525 C69.5798503,216.243525 67.5397544,230.892078 68.0961442,235.013097 Z" id="Shape" fill="#474463" fill-rule="nonzero"></path>
                <path d="M85.0000007,82.9502174 C84.9993099,85.0332723 85.5483752,87.0800874 86.5924089,88.8864244 C88.4627529,89.21134 90.4540807,88.8539329 91.869918,87.622503 C92.8279788,86.7842208 93.4459771,85.637269 94.2699748,84.6657715 C94.8025442,84.0661722 95.3761279,83.503815 95.9866367,82.9827089 C96.3833213,82.5888919 96.8402048,82.2599104 97.3403472,82.0079623 C97.8522336,81.7476434 98.4572377,81.7404292 98.9752633,81.9884674 C99.6292297,82.3556219 99.8646576,83.17116 100.237418,83.8242402 C100.525757,84.3821644 101.018458,84.8089525 101.614018,85.0166803 C102.222627,85.2067543 102.884925,84.9816807 103.248934,84.4610747 C103.654393,83.7657554 103.356838,82.6805375 104.040233,82.2581473 C104.219795,82.1700933 104.405578,82.0951642 104.596105,82.0339555 C105.47569,81.6375586 105.577054,80.4646134 105.648991,79.5093617 C105.688229,79.0382342 105.789593,78.5053727 106.188513,78.2519386 C106.587433,77.9985044 107.107336,78.1252215 107.581461,78.1382181 C107.72186,78.1412234 107.862177,78.1292412 108,78.1024774 C105.700305,72.9454459 100.081809,70.0917383 94.5283655,71.2600575 C88.9749219,72.4283766 85.0023747,77.299823 85.0032705,82.9404699 L85.0000007,82.9502174 Z" id="Shape" fill="#000000" fill-rule="nonzero" opacity="0.1"></path>
                <path d="M108.368701,67.7819826 C109.30654,68.4639957 109.898431,69.51751 109.989922,70.6676155 C110.012075,70.8581411 109.997628,71.0511064 109.947345,71.2362932 C109.864618,71.4317591 109.767178,71.6207691 109.655852,71.8017212 C109.040116,73.0105674 109.983372,74.4468847 109.858915,75.7987127 C109.695452,77.1165843 108.576895,78.1126396 107.238758,78.1319159 C106.763855,78.1319159 106.2562,77.9921836 105.843525,78.2456514 C105.430851,78.4991191 105.34242,79.0320513 105.303118,79.5032414 C105.227789,80.4618694 105.129533,81.6349702 104.248505,82.0281702 C104.058124,82.0919039 103.872135,82.1678888 103.691722,82.2556412 C103.007206,82.6780875 103.308524,83.766699 102.899125,84.4556113 C102.536092,84.9783743 101.87187,85.20508 101.261527,85.0145402 C100.665672,84.8056247 100.172547,84.3791119 99.8826701,83.821942 C99.5060227,83.1720246 99.2800342,82.3531288 98.6184448,81.9859255 C98.0997407,81.7383464 97.4944574,81.7443519 96.9808472,82.0021735 C96.4799992,82.2543414 96.0223944,82.5833463 95.6249164,82.9770494 C95.0141944,83.4990733 94.4397265,84.0614498 93.905439,84.6603353 C93.0800898,85.6352113 92.4610779,86.7790657 91.4981705,87.6174591 C89.6902628,89.1935086 86.9128973,89.3494887 84.6857646,88.4526028 C84.3642851,88.3448325 84.0742091,88.1607693 83.8407642,87.916421 C83.6306747,87.6334897 83.4955365,87.3027551 83.4477408,86.9545434 C83.2214989,85.8604569 83.156409,84.7395945 83.2545043,83.6269668 C83.387801,82.7667715 83.4535028,81.8975969 83.451016,81.0272975 C83.3887873,80.0914166 83.0514422,79.1880315 83.0055895,78.2521506 C82.9237096,76.598111 83.752334,75.0253111 84.7741949,73.7027294 C85.3833812,72.9228286 86.0678969,72.1981708 86.5952034,71.363027 C87.0537307,70.6383692 87.3878006,69.8357213 87.8823551,69.1338106 C89.0352238,67.5090174 90.9806897,66.5341414 92.9654579,66.1799364 C94.9502262,65.8257315 96.9906728,66.049953 98.9819915,66.3749116 C100.71457,66.6608753 102.456974,67.0800719 104.222304,67.1808091 C105.738719,67.2717975 106.976743,66.7616124 108.368701,67.7819826 Z" id="Shape" fill="#472727" fill-rule="nonzero"></path>
                <path d="M94,98 L96.1604038,103.552732 L99.8990466,113.703166 C99.8990466,113.703166 99.9360628,113.806413 100,114 L95.288839,98.8646905 C94.8397609,98.604096 94.4092031,98.3152319 94,98 Z" id="Shape" fill="#000000" fill-rule="nonzero" opacity="0.1"></path>
                <path d="M71.0075152,162.639871 C71.0075152,162.639871 70.8053519,169.33119 72.498093,171 L77,161.951768 L73.2162256,160 L71.0075152,162.639871 Z" id="Shape" fill="#FFB9B9" fill-rule="nonzero"></path>
                <path d="M60,164.957581 C62.2246098,167.544122 71.8992265,168 71.8992265,168 L81.4894056,152.972195 C81.4894056,152.972195 83.7627294,151.404104 88.013845,144.349312 C92.2649606,137.294521 92.1350564,131.856318 91.9109716,127.798681 C91.6868869,123.741044 88.9881267,112.075743 88.9881267,112.075743 C88.5756808,109.450403 82.6033343,93 82.6033343,93 C81.9765464,94.2480062 80.810656,95.2858559 79.4434141,96.1458809 C75.7573819,98.4446696 70.603432,99.385524 70.603432,99.385524 C62.3122951,100.585033 63.8419173,109.114153 63.8419173,109.114153 C63.8419173,109.114153 63.7412415,142.276846 64.2608584,146.240721 C64.7804753,150.204595 60,164.957581 60,164.957581 Z" id="Shape" fill="#000000" fill-rule="nonzero" opacity="0.1"></path>
                <polygon id="Shape" fill="#CBCDDA" fill-rule="nonzero" points="71 163.693475 71.2709883 166 74.5770457 164.846737 77 161.356601 75.1827843 160"></polygon>
                <path d="M71,154.764433 L72.7720691,154.962941 L89.8650163,156.846963 C92.6074348,157.151046 95.3756126,157.001418 98.0780009,156.403027 L106,154.652547 C105.633816,153.234117 105.3461,152.364291 105.3461,152.364291 C104.489491,153.035609 99.5852405,153.807986 97.0481084,154.461258 C95.6553069,154.813063 94.2229145,154.934697 92.7977581,154.822181 C86.3784712,154.264784 80.0276608,152.984059 73.8444652,151 L73.0728631,152.017805 L71,154.764433 Z" id="Shape" fill="#000000" fill-rule="nonzero" opacity="0.1"></path>
                <g id="Group" opacity="0.1" transform="translate(67.000000, 150.000000)" fill="#000000" fill-rule="nonzero">
                    <path d="M37.7637823,1.72020325 C37.8236793,1.68998078 37.8819216,1.65652068 37.938256,1.61996835 L37.9553613,1.66835762 L37.7637823,1.72020325 Z" id="Shape"></path>
                    <path d="M1.70797502,65.8808861 C1.70797502,65.8808861 4.61088314,54.8312025 3.68221231,52.1127848 C3.68221231,52.1127848 5.35122212,40.6621835 4.36085638,37.2527532 C3.37049063,33.8433228 5.04274755,8.68329114 5.04274755,8.68329114 L5.59150758,3.9668038 L5.91621766,1.30705696 L6.04610169,0.192310127 C6.04610169,0.192310127 6.26690455,0.264018987 6.69552186,0.387879747 L7.08842105,0.505221519 L6.99750223,0.941993671 L6.68902765,3.60174051 L6.14026762,8.31822785 C6.14026762,8.31822785 4.47450491,33.475 5.45837645,36.8876899 C6.44224799,40.3003797 4.78297948,51.7477215 4.78297948,51.7477215 C5.70840321,54.4661392 2.80874219,65.5158228 2.80874219,65.5158228 C2.80874219,65.5158228 0.76956289,80.2682911 1.32481713,84.4208861 C1.88007136,88.573481 2.62365745,100.160981 2.62365745,100.160981 C4.51671722,103.016297 8.0917752,102.657753 9.87768064,102.256835 C9.85819804,102.305728 9.84520963,102.331804 9.84520963,102.331804 C9.84520963,102.331804 4.10433541,104.437437 1.50990187,100.535823 C1.50990187,100.535823 0.76956289,88.9450633 0.211061552,84.7924684 C-0.347439786,80.6398734 1.70797502,65.8808861 1.70797502,65.8808861 Z" id="Shape"></path>
                    <path d="M16.3394112,84.5349684 C15.365281,81.7481013 17.2680821,72.7616772 17.2680821,72.7616772 C17.2680821,72.7616772 20.6580553,63.1559494 20.1028011,56.0274367 C19.8722569,53.058038 19.8884924,48.9836709 19.9859054,45.2385127 C20.7749509,40.414462 21.5250312,35.02 21.5250312,35.02 C21.5250312,35.02 20.6580553,48.5273418 21.2165566,55.6558544 C21.775058,62.7843671 18.3785905,72.3900949 18.3785905,72.3900949 C18.3785905,72.3900949 16.4628011,81.376519 17.4531668,84.1633861 C18.4435326,86.9502532 14.9821231,98.4790823 14.9821231,98.4790823 C15.2289028,101.161646 21.5737377,100.819399 24.0740054,100.574937 L23.9798394,100.832437 C23.9798394,100.832437 14.1638537,102.198165 13.8586262,98.8506646 C13.8716146,98.8506646 17.3265299,87.3185759 16.3394112,84.5349684 Z" id="Shape"></path>
                </g>
                <path d="M60,164.957581 C62.2245866,167.544122 71.8991025,168 71.8991025,168 L81.4859339,152.972195 C81.4859339,152.972195 83.7592341,151.404104 88.0135529,144.349312 C92.2678717,137.294521 92.1347213,131.856318 91.9106389,127.798681 C91.6865564,123.741044 88.9878244,112.075743 88.9878244,112.075743 C88.5753828,109.450403 82.6030986,93 82.6030986,93 C81.9763172,94.2480062 80.810439,95.2858559 79.4432114,96.1458809 C75.75397,98.4446696 70.606569,99.385524 70.606569,99.385524 C62.3155186,100.585033 63.8451248,109.114153 63.8451248,109.114153 C63.8451248,109.114153 63.7541928,142.263913 64.2640616,146.227788 C64.7739303,150.191663 60,164.957581 60,164.957581 Z" id="Shape" fill="#4C4C78" fill-rule="nonzero"></path>
                <path d="M80.3534775,101.197993 L82.3602501,101.984948 L81.0224017,102.960513 L91,128 C90.7686898,123.918889 88.1867674,112.186101 88.1867674,112.186101 C87.789789,109.545573 82.041417,93 82.041417,93 C81.4381349,94.2552262 80.3159677,95.2990802 79,96.1640806 L80.3534775,101.197993 Z" id="Shape" fill="#000000" fill-rule="nonzero" opacity="0.1"></path>
                <polygon id="Shape" fill="#000000" fill-rule="nonzero" opacity="0.1" points="78 144.752221 67.3903628 142 66 146.339411 76.8402815 149"></polygon>
                <path d="M71.8125207,102.611937 C71.8125207,102.611937 76.672707,107.128365 74.8505468,117.148382 C73.0283866,127.1684 70.0854013,138.078799 70.0854013,138.078799 L78,159.654419 C78,159.654419 72.4843604,165.312858 69.7740609,166 L61.8758486,148.750472 C61.8758486,148.750472 58.1856464,142.769432 59.1655491,133.388166 C60.1454518,124.0069 63.6980088,108.822025 63.6980088,108.822025 C63.6980088,108.822025 63.6816224,99.5762526 71.8125207,102.611937 Z" id="Shape" fill="#000000" fill-rule="nonzero" opacity="0.1"></path>
                <path d="M71.837676,102.611937 C71.837676,102.611937 76.6987007,107.128365 74.8762262,117.148382 C73.0537516,127.1684 70.1102585,138.078799 70.1102585,138.078799 L78,159.654419 C78,159.654419 72.4932423,165.312858 69.7759197,166 L61.8763447,148.750472 C61.8763447,148.750472 58.1855059,142.769432 59.1655777,133.388166 C60.1456494,124.0069 63.6988192,108.822025 63.6988192,108.822025 C63.6988192,108.822025 63.6988192,99.5762526 71.837676,102.611937 Z" id="Shape" fill="#4C4C78" fill-rule="nonzero"></path>
                <path d="M77.7873654,160.033884 C77.7873654,160.033884 71.5519054,168.387461 72.0256944,170.636501 C72.4994833,172.885541 74.3250616,171.674273 74.3250616,171.674273 L76.7934026,168.403526 L79,162.298989 C79,162.298989 78.7813282,159.674038 77.7873654,160.033884 Z" id="Shape" fill="#000000" fill-rule="nonzero" opacity="0.1"></path>
                <path d="M78.8016604,160.033846 C78.8016604,160.033846 72.5510416,168.38745 73.0257301,170.636497 C73.5004187,172.885544 75.3294633,171.674272 75.3294633,171.674272 L77.7892129,168.406727 L80,162.302171 C80,162.302171 79.7842325,159.673999 78.8016604,160.033846 Z" id="Shape" fill="#000000" fill-rule="nonzero" opacity="0.1"></path>
                <path d="M77.7983432,160.033846 C77.7983432,160.033846 71.5510554,168.38745 72.0257431,170.636497 C72.5004307,172.885544 74.3294719,171.674272 74.3294719,171.674272 L76.789217,168.406727 L79,162.302171 C79,162.302171 78.7842329,159.673999 77.7983432,160.033846 Z" id="Shape" fill="#474463" fill-rule="nonzero"></path>
            </g>
        </g>
    </g>
</svg>