<?xml version="1.0" encoding="UTF-8"?>
<svg width="364px" height="259px" viewBox="0 0 364 259" version="1.1" xmlns="http://www.w3.org/2000/svg" xmlns:xlink="http://www.w3.org/1999/xlink">
    <!-- Generator: Sketch 51.2 (57519) - http://www.bohemiancoding.com/sketch -->
    <title>pic_contact</title>
    <desc>Created with Sketch.</desc>
    <defs>
        <linearGradient x1="49.9834446%" y1="99.9971032%" x2="49.9834446%" y2="-0.000733345336%" id="linearGradient-1">
            <stop stop-color="#808080" stop-opacity="0.25" offset="0%"></stop>
            <stop stop-color="#808080" stop-opacity="0.12" offset="54%"></stop>
            <stop stop-color="#808080" stop-opacity="0.1" offset="100%"></stop>
        </linearGradient>
        <linearGradient x1="50.0138616%" y1="100.13861%" x2="50.0138616%" y2="-0.00862391885%" id="linearGradient-2">
            <stop stop-color="#808080" stop-opacity="0.25" offset="0%"></stop>
            <stop stop-color="#808080" stop-opacity="0.12" offset="54%"></stop>
            <stop stop-color="#808080" stop-opacity="0.1" offset="100%"></stop>
        </linearGradient>
    </defs>
    <g id="Page-1" stroke="none" stroke-width="1" fill="none" fill-rule="evenodd">
        <g id="Artboard-Copy-3" transform="translate(-273.000000, -538.000000)">
            <g id="pic_contact" transform="translate(273.000000, 539.000000)">
                <ellipse id="Oval" fill="#6E72EE" fill-rule="nonzero" opacity="0.1" cx="288" cy="206.5" rx="75" ry="14.5"></ellipse>
                <g id="Group" opacity="0.5" transform="translate(213.000000, 34.000000)">
                    <path d="M10.7368831,2.30025974 C9.73753247,2.58428571 8.51376623,3.32415584 7.91064935,5.3474026 C6.72896104,9.31324675 9.47454545,12.0097403 8.56987013,16.1438961 C8.3187644,17.2405408 7.84099694,18.2725185 7.16727273,19.1735065 C6.06272727,20.6707792 4.86350649,21.3790909 3.69935065,22.4275325 C2.22266432,23.7669618 1.16450416,25.504585 0.652207792,27.4312987 C0.0908235602,29.5578691 0.0439460048,31.787558 0.515454545,33.9358442 C0.929220779,35.7311688 1.63402597,37.0390909 2.25116883,38.4942857 C3.01848643,40.350377 3.61815113,42.2714164 4.04298701,44.2344156 C4.27619823,45.1903528 4.40783686,46.1682398 4.43571429,47.1518182 C4.41825434,48.4585892 4.30103043,49.7621191 4.08506494,51.051039 L2.40545455,62.7697403 C2.1503492,64.301946 1.99689719,65.8493514 1.9461039,67.4018182 C1.96806663,68.9576824 2.14781812,70.5073047 2.4825974,72.0268831 C3.07168831,75.1266234 3.70636364,78.3385714 5.05636364,79.9796104 C6.40636364,81.6206494 8.70662338,81.0315584 10.1197403,77.7109091 C11.4627273,74.534026 11.4942857,70.2946753 12.6794805,66.9003896 C14.5484416,61.552987 18.2618182,60.8341558 20.3236364,55.7322078 C22.3012987,50.8231169 21.6946753,44.834026 22.6975325,39.2516883 C23.3988312,35.2507792 24.9451948,31.604026 25.8533766,27.6522078 C27.1577922,21.9611688 27.0280519,16.0527273 25.9866234,11.6766234 C25.1945621,8.08099332 23.481089,4.75313357 21.0144156,2.01974026 C20.1412987,1.05545455 19.2050649,0.196363636 18.1075325,0.108701299 C16.9398701,0.0175324675 15.9194805,1.48675325 14.7658442,1.92857143 C13.4333766,2.45103896 12.0938961,1.91454545 10.7368831,2.30025974 Z" id="Shape" fill="#6E72EE" fill-rule="nonzero"></path>
                    <path d="M17.0590909,0.406753247 C17.0590909,0.406753247 15.0814286,51.0194805 6.76402597,80.8632468" id="Shape" stroke="#535461" stroke-width="2"></path>
                    <path d="M7.86155844,5.58584416 C7.86155844,5.58584416 16.7505195,13.6788312 15.0638961,29.0793506" id="Shape" stroke="#535461" stroke-width="2"></path>
                    <path d="M0.403246753,28.6164935 C0.403246753,28.6164935 14.9937662,31.5514286 13.9102597,40.2790909" id="Shape" stroke="#535461" stroke-width="2"></path>
                    <path d="M26.0111688,11.5714286 C26.0111688,11.5714286 20.1062338,16.74 14.8464935,31.3796104" id="Shape" stroke="#535461" stroke-width="2"></path>
                    <path d="M20.242987,55.8163636 C20.242987,55.8163636 16.214026,58.9722078 12.981039,47.9232468" id="Shape" stroke="#535461" stroke-width="2"></path>
                    <path d="M2.85779221,62.2718182 C2.85779221,62.2718182 11.0735065,61.1988312 11.8309091,56.0548052" id="Shape" stroke="#535461" stroke-width="2"></path>
                </g>
                <path d="M243.839415,2.36348792 C241.760694,2.66869063 239.25906,3.62333632 238.230452,6.56534849 C236.212659,12.335809 242.344886,16.7044664 240.932789,22.7339944 C240.511452,24.3932991 239.624239,25.9005573 238.373812,27.0813586 C236.223411,29.17874 233.764786,30.0943481 231.435184,31.5174445 C229.105583,32.9405409 226.686382,35.179877 225.593261,38.615182 C224.543149,41.9191787 224.998317,45.5674158 226.091438,48.292947 C227.184558,51.0184781 228.836783,53.0519799 230.313392,55.294865 C232.107795,58.0555377 233.607973,60.9931792 234.78981,64.0605707 C235.385878,65.4586782 235.786211,66.9308816 235.979699,68.4363259 C236.169651,70.2817376 235.929523,72.2655552 235.689395,74.2067864 L233.556914,91.5039726 C233.273777,93.8036395 232.987057,96.1387951 233.148337,98.3532892 C233.331121,100.904926 234.094514,103.133615 234.847154,105.309072 C236.467123,110.000676 238.20178,114.891017 241.258933,117.474594 C244.316087,120.05817 249.111482,119.504547 251.695547,114.699379 C254.154172,110.124887 253.702588,103.811449 255.799229,98.8962661 C259.103679,91.1490857 266.873795,90.5209359 270.611909,83.1676799 C274.19591,76.1125289 272.192453,67.0877557 273.633222,58.889869 C274.665415,53.0164912 277.460936,47.7641655 278.894537,41.9830584 C280.962506,33.6538635 279.969737,24.8349247 277.238728,18.2056379 C274.507719,11.5763511 270.188996,6.84925799 265.554882,3.21876528 C263.590849,1.67500739 261.508544,0.280301979 259.175359,0.024783431 C256.695229,-0.248479461 254.713276,1.81696214 252.329915,2.33864584 C249.555898,2.9100137 246.660024,1.94827028 243.839415,2.36348792 Z" id="Shape" fill="#6E72EE" fill-rule="nonzero"></path>
                <path d="M256.907374,0 C256.907374,0 258.844628,74.765325 245,118" id="Shape" stroke="#535461" stroke-width="2"></path>
                <path d="M238,7 C238,7 257.575433,20.1672598 255.898045,43" id="Shape" stroke="#535461" stroke-width="2"></path>
                <path d="M226,40 C226,40 257.196266,46.1251401 255.964458,59" id="Shape" stroke="#535461" stroke-width="2"></path>
                <path d="M277,18 C277,18 265.252914,24.9497544 256,46" id="Shape" stroke="#535461" stroke-width="2"></path>
                <path d="M270,82.5258754 C270,82.5258754 262.022842,86.7468949 254,70" id="Shape" stroke="#535461" stroke-width="2"></path>
                <path d="M235,90 C235,90 252.03047,89.4003466 253,82" id="Shape" stroke="#535461" stroke-width="2"></path>
                <path d="M23.2618701,204 C23.2618701,204 26.2641556,207.863038 21.8753731,213.657594 C17.4865905,219.452151 13.8609187,224.375768 15.3334,228 C15.3334,228 21.954192,217.208077 27.3425422,217.057068 C32.7308924,216.906058 29.1912049,210.489903 23.2618701,204 Z" id="Shape" fill="#6E72EE" fill-rule="nonzero"></path>
                <path d="M23.1682214,204 C23.4393198,204.371147 23.6541929,204.777963 23.8063071,205.208077 C29.1285215,211.262511 31.9600266,216.913082 26.8480904,217.057068 C22.0842009,217.190518 16.370434,225.43986 15,227.5259 C15.0452212,227.686754 15.0996884,227.845034 15.1631469,228 C15.1631469,228 21.8630463,217.208077 27.3157782,217.057068 C32.7685101,216.906058 29.1684019,210.489903 23.1682214,204 Z" id="Shape" fill="#000000" fill-rule="nonzero" opacity="0.1"></path>
                <path d="M29,208.778169 C29,210.00335 28.785,211 28.5,211 C28.215,211 28,210.006524 28,208.778169 C28,207.549814 28.27,208.14336 28.535,208.14336 C28.8,208.14336 29,207.552988 29,208.778169 Z" id="Shape" fill="#FFD037" fill-rule="nonzero"></path>
                <path d="M30.2861893,211.005591 C29.1131706,211.710103 28.0924021,212.148043 28.0058963,211.953826 C27.9193905,211.759609 28.7948292,211.058906 29.9678479,210.358202 C31.1408666,209.657499 30.6771955,210.167794 30.7671615,210.358202 C30.8571276,210.548611 31.4557477,210.30108 30.2861893,211.005591 Z" id="Shape" fill="#FFD037" fill-rule="nonzero"></path>
                <path d="M7.74012125,204 C7.74012125,204 4.73769694,207.863603 9.12668236,213.659008 C13.5156678,219.454412 17.1343415,224.375238 15.6689578,228 C15.6689578,228 9.04785976,217.206498 3.65926053,217.055466 C-1.72933871,216.904434 1.80334669,210.490853 7.74012125,204 Z" id="Shape" fill="#6E72EE" fill-rule="nonzero"></path>
                <path d="M7.81729954,204 C7.55266854,204.372177 7.34401764,204.778945 7.19761762,205.208077 C1.87777515,211.262511 -0.95246801,216.913082 4.15718994,217.057068 C8.91895629,217.190518 14.6301768,225.43986 16,227.5259 C15.954799,227.686754 15.900356,227.845034 15.8369258,228 C15.8369258,228 9.14001241,217.208077 3.6897106,217.057068 C-1.76059122,216.906058 1.81254548,210.489903 7.81729954,204 Z" id="Shape" fill="#000000" fill-rule="nonzero" opacity="0.1"></path>
                <path d="M2,208.778169 C2,210.00335 2.215,211 2.5,211 C2.785,211 3,210.006524 3,208.778169 C3,207.549814 2.73,208.14336 2.465,208.14336 C2.2,208.14336 2,207.552988 2,208.778169 Z" id="Shape" fill="#FFD037" fill-rule="nonzero"></path>
                <path d="M0.713810738,211.005591 C1.88682941,211.710103 2.90759788,212.148043 2.99410368,211.953826 C3.08060948,211.759609 2.20517076,211.058906 1.03215209,210.358202 C-0.140866586,209.657499 0.322804513,210.167794 0.232838479,210.358202 C0.142872445,210.548611 -0.455747705,210.30108 0.713810738,211.005591 Z" id="Shape" fill="#FFD037" fill-rule="nonzero"></path>
                <path d="M3,228.577771 C3,228.577771 11.3308685,228.317331 13.8411515,226.497868 C16.3514346,224.678405 26.6414616,222.518923 27.2779215,225.412701 C27.9143814,228.306479 39.7973359,239.921382 30.3926636,239.997344 C20.9879913,240.073306 8.53968976,238.507048 6.03296237,236.955259 C3.52623497,235.403471 3,228.577771 3,228.577771 Z" id="Shape" fill="#A8A8A8" fill-rule="nonzero"></path>
                <path d="M30.562977,238.029731 C21.1572134,238.102814 8.70746718,236.595918 6.20044889,235.102943 C4.29084772,233.964941 3.52985209,229.88275 3.27737224,228 L3,228 C3,228 3.52629604,234.577443 6.03331434,236.070418 C8.54033263,237.563394 20.9900788,239.07377 30.3958425,238.997207 C33.112668,238.976326 34.0479103,238.029731 33.9981255,236.630719 C33.6211838,237.486831 32.5863719,238.01581 30.562977,238.029731 Z" id="Shape" fill="#000000" fill-rule="nonzero" opacity="0.2"></path>
                <path d="M347.557668,203.723686 C348.225551,203.181239 348.712273,202.449457 348.953366,201.625265 C349.135572,200.790253 348.778448,199.79187 347.976742,199.486909 C347.080289,199.145643 346.121886,199.762826 345.396706,200.3909 C344.671526,201.018974 343.837023,201.730549 342.885908,201.596221 C343.880289,200.698213 344.328536,199.3461 344.066603,198.034715 C344.02549,197.767502 343.91211,197.516489 343.738632,197.308617 C343.239388,196.778567 342.33929,197.007287 341.741655,197.424793 C339.846713,198.753551 339.318316,201.316674 339.307383,203.625662 C339.117889,202.794281 339.278231,201.926595 339.270942,201.084322 C339.263654,200.24205 339.03043,199.26908 338.308895,198.82616 C337.861467,198.586652 337.358992,198.46776 336.851247,198.481264 C335.998524,198.44859 335.051053,198.535722 334.467994,199.156535 C333.73917,199.926198 333.932308,201.222281 334.562741,202.060923 C335.193173,202.899565 336.147933,203.440508 337.029809,204.028646 C337.736598,204.447268 338.339482,205.019355 338.793563,205.7023 C338.84697,205.797015 338.89091,205.896727 338.924751,206 L344.263385,206 C345.459529,205.392764 346.567681,204.627044 347.557668,203.723686 Z" id="Shape" fill="#6E72EE" fill-rule="nonzero"></path>
                <path d="M51.1027546,169.754436 C62.3745515,184.065061 57.9961917,204.972156 50.833535,221.712687 C48.4353557,227.318802 45.7219062,233.250319 46.7350218,239.25965 C47.9713063,246.609497 54.5282189,251.992782 61.4429102,254.822366 C74.0182965,260.014655 89.0733365,258.776711 100.62498,251.600177 C110.610899,245.396312 117.762929,235.308842 127.918882,229.387936 C144.922221,219.484389 166.551885,223.222978 185.007593,230.045815 C198.064741,234.873794 212.340461,241.155472 225.316134,236.1082 C234.444802,232.571219 240.757292,223.916226 244.196926,214.755446 C245.858293,210.330682 247.062697,205.559295 250.218942,202.022314 C252.103478,199.939032 254.561878,198.457037 257.08404,197.21202 C280.109395,185.819404 309.156766,191.906548 331.501988,179.2866 C346.595994,170.755402 356.259558,154.658601 360.549359,137.875626 C364.83916,121.092652 364.329059,103.492634 363.241554,86.2109449 C362.469319,73.9270099 361.084256,60.8154213 353.223754,51.3327752 C344.909829,41.3054341 330.637651,37.5739191 317.73991,39.4803519 C304.842169,41.3867846 293.145288,48.213158 282.872438,56.213809 C270.017205,66.2128543 258.097155,78.6665644 242.312389,82.7199447 C231.564861,85.4787899 220.257641,83.968499 209.170047,83.4485628 C190.636407,82.5749284 172.099225,84.5096571 153.668314,86.6318457 C136.023807,88.6691467 118.24469,90.9115927 101.443266,96.6415019 C89.548013,100.698419 80.0119736,108.058877 68.7791426,113.201647 C61.4570797,116.554705 53.472595,117.481394 46.5437342,121.75053 C38.0030986,127.010021 30.1780202,136.160191 32.3742849,146.863095 C34.4359398,157.053137 45.1161622,162.160538 51.1027546,169.754436 Z" id="Shape" fill="#6E72EE" fill-rule="nonzero" opacity="0.1"></path>
                <ellipse id="Oval" fill="#6E72EE" fill-rule="nonzero" opacity="0.1" cx="195.5" cy="155.5" rx="151.5" ry="14.5"></ellipse>
                <ellipse id="Oval" fill="#6E72EE" fill-rule="nonzero" opacity="0.1" cx="79" cy="238.5" rx="75" ry="14.5"></ellipse>
                <path d="M155.291774,150 L154,151.383461 C154,151.383461 155.407455,152.766922 155.542416,152.94021 C155.677378,153.113497 159.6491,152.854986 159.6491,152.854986 L160,151.818101 L159.413882,150.607927 L155.291774,150 Z" id="Shape" fill="#E6E6F0" fill-rule="nonzero"></path>
                <polygon id="Shape" fill="#FDC2CC" fill-rule="nonzero" points="115.34102 150 113 150.486922 114.48847 153.798793 116.085255 154.77666 117.573725 156 118 154.655936 116.934312 152.080483"></polygon>
                <path d="M154.047286,121.079703 C154.047286,121.079703 166.67007,124.113161 169.040829,127.488417 C169.040829,127.488417 171.198964,129.332702 169.040829,132.690156 C166.882694,136.04761 163.863432,143.638375 163.863432,143.638375 C163.863432,143.638375 161.705297,151.008396 160.84417,151.549576 C159.983042,152.090757 155.018269,152.525125 154.585934,150.481457 C154.585934,150.481457 157.389028,146.038083 157.389028,143.976613 C157.389028,141.915143 162.027777,132.163217 162.027777,132.163217 C162.027777,132.163217 151.456816,130.970485 148.11153,131.728849 C144.766244,132.487214 149.624705,119.88697 154.047286,121.079703 Z" id="Shape" fill="#565171" fill-rule="nonzero"></path>
                <path d="M154.047286,121.079703 C154.047286,121.079703 166.67007,124.113161 169.040829,127.488417 C169.040829,127.488417 171.198964,129.332702 169.040829,132.690156 C166.882694,136.04761 163.863432,143.638375 163.863432,143.638375 C163.863432,143.638375 161.705297,151.008396 160.84417,151.549576 C159.983042,152.090757 155.018269,152.525125 154.585934,150.481457 C154.585934,150.481457 157.389028,146.038083 157.389028,143.976613 C157.389028,141.915143 162.027777,132.163217 162.027777,132.163217 C162.027777,132.163217 151.456816,130.970485 148.11153,131.728849 C144.766244,132.487214 149.624705,119.88697 154.047286,121.079703 Z" id="Shape" fill="#000000" fill-rule="nonzero" opacity="0.1"></path>
                <path d="M152,124.831441 C151.97527,125.444862 151.908145,126.134527 151.812757,126.876177 C151.123842,132.247943 148.880455,140.236279 148.880455,140.236279 C148.880455,140.236279 146.622935,144.984227 145.976416,148.044401 C145.329896,151.104575 140.920844,151.856622 140.920844,151.856622 C140.920844,151.856622 128.873675,153.242884 126.400649,152.702242 C123.927623,152.1616 120.04144,154.286047 118.119545,153.967207 C116.197651,153.648366 115,149.219258 115,149.219258 C118.335627,149.238458 121.636628,148.555369 124.68013,147.21611 C129.626182,145.001556 136.727299,146.055115 136.727299,146.055115 C137.797783,145.750174 138.692547,145.025416 139.200325,144.051966 C139.952831,142.468161 139.952831,132.868296 139.737325,132.234081 C138.324167,128.075294 138.440752,125.406739 138.847035,123.85066 C138.983029,123.170981 139.288945,122.535066 139.737325,122 L152,124.831441 Z" id="Shape" fill="#565171" fill-rule="nonzero"></path>
                <path d="M152,124.887511 C151.975531,125.509274 151.909115,126.208319 151.814735,126.960055 C150.745093,127.044362 147.745899,127.125156 145.522721,125.744631 C143.425383,124.451925 140.373756,124.012827 139,123.875828 C139.134556,123.186906 139.437241,122.542343 139.880882,122 L152,124.887511 Z" id="Shape" fill="#000000" fill-rule="nonzero" opacity="0.1"></path>
                <path d="M152.561811,122.947675 C152.053582,124.317273 151.273344,125.923127 151.273344,125.923127 C151.273344,125.923127 147.243308,126.443575 144.408682,124.776089 C141.574056,123.108603 137,122.899739 137,122.899739 C137.740868,122.464891 138.241938,121.143229 138.553318,119.985918 C138.72717,119.331579 138.863379,118.668611 138.961332,118 C138.961332,118 152.361383,120.605661 152.919718,121.023389 C153.127304,121.187741 152.905402,122.016348 152.561811,122.947675 Z" id="Shape" fill="#E6E6F0" fill-rule="nonzero"></path>
                <path d="M176.666254,78.2617774 L160.59605,88.0306019 L159,89 L159,84.2278526 L160.10768,83.6932581 L173.6511,77.1747685 C173.6511,77.1747685 174.298721,65.3495369 176.022172,67.1956701 C177.745622,69.0418033 176.666254,78.2617774 176.666254,78.2617774 Z" id="Shape" fill="#FDC2CC" fill-rule="nonzero"></path>
                <path d="M160,87.9039624 L159,89 L159,83.6044325 L159.694013,83 C159.739956,84.6446034 159.842149,86.2824204 160,87.9039624 Z" id="Shape" fill="#000000" fill-rule="nonzero" opacity="0.1"></path>
                <path d="M149,89.7634409 L160.496335,83 C160.496335,83 160.711648,89.5483871 162,90.5268817 C162,90.5268817 157.27369,91.9605735 155.445289,95 L149,89.7634409 Z" id="Shape" fill="#B45181" fill-rule="nonzero"></path>
                <path d="M149,89.7634409 L160.496335,83 C160.496335,83 160.711648,89.5483871 162,90.5268817 C162,90.5268817 157.27369,91.9605735 155.445289,95 L149,89.7634409 Z" id="Shape" fill="#000000" fill-rule="nonzero" opacity="0.1"></path>
                <path d="M175.848885,94.6226087 C175.848885,94.6226087 170.690175,96.8817253 167.273238,97.7117415 C166.504343,97.9447868 165.700165,98.0377309 164.8987,97.9861823 C162.567456,97.5778679 165.508154,94.6393429 165.508154,94.6393429 L166.733722,94.448573 L173.31449,93.4177465 C173.31449,93.4177465 174.023854,83.2299674 175.239431,84.0465962 C176.455008,84.863225 175.848885,94.6226087 175.848885,94.6226087 Z" id="Shape" fill="#FDC2CC" fill-rule="nonzero"></path>
                <path d="M154,85.9158222 C154,85.9158222 149.309645,89.3288089 151.054643,93.5967944 C152.799642,97.8647798 142,91.0353023 142,91.0353023 C142,91.0353023 145.489997,85.9158222 146.25321,82.0753361 C147.016423,78.23485 154,85.9158222 154,85.9158222 Z" id="Shape" fill="#FDC2CC" fill-rule="nonzero"></path>
                <path d="M154.543489,123 C152.439252,122.262171 150.239924,121.785186 148.002078,121.581315 C144.731373,121.235294 141.735704,120.650519 140,120.00692 C140.180537,119.345661 140.321985,118.675682 140.423705,118 C140.423705,118 154.33907,120.633218 154.918877,121.055363 C155.130729,121.221453 154.900293,122.058824 154.543489,123 Z" id="Shape" fill="#000000" fill-rule="nonzero" opacity="0.1"></path>
                <path d="M166.82744,97.7564991 C166.163264,97.9533597 165.468611,98.0318724 164.776302,97.9883277 C162.762561,97.643412 165.302751,95.1611492 165.302751,95.1611492 L166.361403,95 C166.804426,95.6700413 167.256079,96.7160974 166.82744,97.7564991 Z" id="Shape" fill="#000000" fill-rule="nonzero" opacity="0.1"></path>
                <path d="M146.246014,88.00296 C146.246014,88.00296 141.994074,87.8954105 140.468104,89.6412979 C138.942134,91.3871854 139.268104,96.09427 139.268104,96.09427 C139.268104,96.09427 138.949299,105.519194 141.338552,110.792706 C141.417348,110.96292 141.426349,111.15726 141.363626,111.334039 C141.338552,111.398569 141.338552,111.359134 141.338552,111.359134 C141.338552,111.359134 139.812582,118.235134 138.286612,119.436104 C136.760642,120.637074 141.557059,122.056728 147.241834,122.709195 C152.926609,123.361662 155.201236,125 155.201236,125 C155.201236,125 156.182728,123.924505 156.275863,121.508225 C156.368997,119.091946 154.760639,101.536276 154.760639,101.536276 C154.760639,101.536276 160.757056,103.06348 164.357055,101.210043 C164.357055,101.210043 165.99407,102.084779 167.52004,99.6828395 C169.04601,97.2808999 166.445413,94.6638612 166.445413,94.6638612 C166.445413,94.6638612 164.045413,97.0658008 157.393474,93.9002595 C150.741535,90.7347182 148.312879,87.8954105 146.246014,88.00296 Z" id="Shape" fill="#B45181" fill-rule="nonzero"></path>
                <path d="M114.275332,150 L113,150 L113,151.809923 L114.275332,154.682041 C114.275332,154.682041 115.976939,155 116.085255,155 C116.193571,155 117.573725,154.682041 117.573725,154.682041 L118,153.937806 C118,153.937806 113.317959,152.124389 114.275332,150 Z" id="Shape" fill="#E6E6F0" fill-rule="nonzero"></path>
                <path d="M154.976982,152.167901 L153,156.177778 L161.348061,159.799177 L167.939204,160 C167.939204,160 168.487565,158.597531 166.290517,157.896296 L164.5336,157.596708 C164.5336,157.596708 162.228323,153.787654 162.008257,152 C162.008257,152 159.811209,152.401646 159.482915,153.902881 C159.479307,153.869959 156.405605,155.272428 154.976982,152.167901 Z" id="Shape" fill="#B45181" fill-rule="nonzero"></path>
                <path d="M112.434934,150 L111.798582,150.51743 L109,152.79821 L115.455898,161.30858 C115.455898,161.30858 119.099528,162.864275 120.769098,161.30858 C120.769098,161.30858 121.795473,160.287335 119.520342,159.443107 C119.520342,159.443107 117.748135,159.752884 117.748135,157.99294 C117.748135,156.232995 118.165527,154.367522 118.77451,153.952216 C118.77451,153.952216 117.210999,153.434785 116.797028,153.850091 C116.478476,154.199339 116.198604,154.581669 115.962243,154.990481 C115.962243,154.990481 112.226238,153.523293 112.434934,150 Z" id="Shape" fill="#B45181" fill-rule="nonzero"></path>
                <path d="M145.42732,82.0590443 C145.319021,82.5920236 145.176291,83.1176457 145,83.6327023 C146.151558,86.362074 149.297595,87.6939992 152.099825,86.6385273 C152.381001,86.3528037 152.681768,86.0864494 153,85.8413453 C153,85.8413453 146.17338,78.2767433 145.42732,82.0590443 Z" id="Shape" fill="#000000" fill-rule="nonzero" opacity="0.1"></path>
                <path d="M145,96 C145,96 148.263613,100.878812 153,101" id="Shape" fill="#000000" fill-rule="nonzero" opacity="0.1"></path>
                <g id="Group" opacity="0.1" transform="translate(137.000000, 88.000000)" fill="#000000" fill-rule="nonzero">
                    <path d="M27.610122,13.2168269 C27.5420747,13.1977543 27.4758081,13.172756 27.4120732,13.1421154 C27.3083333,13.1966667 27.2022358,13.2476603 27.0937805,13.2950962 C27.268543,13.2916764 27.4421178,13.2653652 27.610122,13.2168269 Z" id="Shape"></path>
                    <path d="M28.7559756,7.09048077 C28.638829,6.93915567 28.5136895,6.7942676 28.3810976,6.65644231 C28.3810976,6.65644231 27.6737805,7.36798077 25.9267073,7.50317308 C26.88913,7.59930884 27.8603327,7.45764399 28.7559756,7.09048077 Z" id="Shape"></path>
                    <path d="M17.937561,13.4658654 L17.9587805,13.6971154 C19.3790037,13.9617585 20.8222283,14.080957 22.2663415,14.0528846 C20.8078583,13.9994444 19.3580496,13.8028381 17.937561,13.4658654 Z" id="Shape"></path>
                    <path d="M10.5107317,34.4847115 C4.91231707,33.8336538 0.176829268,32.4283654 1.66926829,31.2365385 C3.16170732,30.0447115 4.68243902,23.2210577 4.68243902,23.2210577 C4.68243902,23.2210577 4.68243902,23.2601923 4.70719512,23.1961538 C4.76912136,23.0207207 4.76023382,22.8278597 4.68243902,22.6589423 C2.32353659,17.4113462 2.63829268,8.07240385 2.63829268,8.07240385 C2.63829268,8.07240385 2.31646341,3.41538462 3.82304878,1.66855769 C4.94414634,0.377115385 7.55768293,0.110288462 8.8202439,0.0569230769 C8.70253426,0.0477447668 8.58429501,0.0477447668 8.46658537,0.0569230769 C8.46658537,0.0569230769 4.26865854,-0.0498076923 2.76207317,1.68278846 C1.2554878,3.41538462 1.57731707,8.08663462 1.57731707,8.08663462 C1.57731707,8.08663462 1.26256098,17.4398077 3.62146341,22.6731731 C3.69925821,22.8420905 3.70814575,23.0349514 3.64621951,23.2103846 C3.62146341,23.2744231 3.62146341,23.2352885 3.62146341,23.2352885 C3.62146341,23.2352885 2.1254878,30.0375962 0.604756098,31.2294231 C-0.91597561,32.42125 3.83365854,33.8300962 9.44621951,34.4775962 C15.0587805,35.1250962 17.3045122,36.7509615 17.3045122,36.7509615 C17.4171859,36.614963 17.5166638,36.4684297 17.6015854,36.3133654 C16.5087805,35.7832692 14.2595122,34.9116346 10.5107317,34.4847115 Z" id="Shape"></path>
                </g>
                <circle id="Oval" fill="#FDC2CC" fill-rule="nonzero" cx="150.5" cy="80.5" r="5.5"></circle>
                <path d="M157.93995,78.6611951 C157.478268,79.8161373 156.100272,80.2527618 154.891441,80.5520608 C153.16454,80.9746006 151.303716,81.3900981 149.650826,80.7351614 C149.436682,80.6150776 149.18958,80.5669354 148.945968,80.597836 C148.749611,80.6765027 148.585658,80.8192139 148.480762,81.00277 C146.658705,83.5943475 146.954746,87.0486105 146.482491,90.1824475 C146.334471,91.1578103 146.084247,92.1648635 145.425205,92.8937447 C144.142364,94.3022107 141.721178,94.2493933 140.540542,95.7458885 C139.761675,96.7318147 139.754626,98.1015479 139.761675,99.3586039 C139.761675,100.698994 139.749927,102.040558 139.726432,103.383296 C139.705286,104.263587 139.662995,105.175569 139.26475,105.957267 C138.588087,107.281225 137.079692,107.911514 135.687598,108.422083 C134.820623,108.74603 133.925454,109.073499 132.995042,108.985469 C132.06463,108.89744 131.134219,108.281236 131.014393,107.351649 C130.848751,106.091072 132.149213,105.21078 133.044382,104.30232 C134.475243,102.855121 135.063799,100.749464 135.116664,98.7142307 C135.166985,97.8922473 135.047007,97.0687313 134.764235,96.2951902 C134.436476,95.4958857 133.851444,94.8233432 133.499016,94.0346022 C132.413535,91.6049982 133.752764,88.7951084 135.356315,86.6683247 C136.959866,84.5415409 138.929943,82.4675747 139.271799,79.830222 C139.301608,79.2594938 139.382998,78.6926266 139.514974,78.1365415 C139.761675,77.3689275 140.346706,75.2491861 140.991651,74.7632653 C142.024148,73.986163 143.236426,73.4823017 144.515939,73.2984606 C145.506263,73.1540928 146.517734,73.2069103 147.50101,73.0167674 C148.649928,72.794934 149.717787,72.2491534 150.866705,72.0449258 C153.351328,71.6047802 156.047408,74.4886144 157.136412,76.7632871 C157.435977,77.4604778 158.221893,77.9534409 157.93995,78.6611951 Z" id="Shape" fill="#000000" fill-rule="nonzero" opacity="0.1"></path>
                <path d="M157.93995,78.6611951 C157.478268,79.8161373 156.100272,80.2527618 154.891441,80.5520608 C153.16454,80.9746006 151.303716,81.3900981 149.650826,80.7351614 C149.436682,80.6150776 149.18958,80.5669354 148.945968,80.597836 C148.749611,80.6765027 148.585658,80.8192139 148.480762,81.00277 C146.658705,83.5943475 146.954746,87.0486105 146.482491,90.1824475 C146.334471,91.1578103 146.084247,92.1648635 145.425205,92.8937447 C144.142364,94.3022107 141.721178,94.2493933 140.540542,95.7458885 C139.761675,96.7318147 139.754626,98.1015479 139.761675,99.3586039 C139.761675,100.698994 139.749927,102.040558 139.726432,103.383296 C139.705286,104.263587 139.662995,105.175569 139.26475,105.957267 C138.588087,107.281225 137.079692,107.911514 135.687598,108.422083 C134.820623,108.74603 133.925454,109.073499 132.995042,108.985469 C132.06463,108.89744 131.134219,108.281236 131.014393,107.351649 C130.848751,106.091072 132.149213,105.21078 133.044382,104.30232 C134.475243,102.855121 135.063799,100.749464 135.116664,98.7142307 C135.166985,97.8922473 135.047007,97.0687313 134.764235,96.2951902 C134.436476,95.4958857 133.851444,94.8233432 133.499016,94.0346022 C132.413535,91.6049982 133.752764,88.7951084 135.356315,86.6683247 C136.959866,84.5415409 138.929943,82.4675747 139.271799,79.830222 C139.301608,79.2594938 139.382998,78.6926266 139.514974,78.1365415 C139.761675,77.3689275 140.346706,75.2491861 140.991651,74.7632653 C142.024148,73.986163 143.236426,73.4823017 144.515939,73.2984606 C145.506263,73.1540928 146.517734,73.2069103 147.50101,73.0167674 C148.649928,72.794934 149.717787,72.2491534 150.866705,72.0449258 C153.351328,71.6047802 156.047408,74.4886144 157.136412,76.7632871 C157.435977,77.4604778 158.221893,77.9534409 157.93995,78.6611951 Z" id="Shape" fill="#F569BC" fill-rule="nonzero"></path>
                <polygon id="Shape" fill="#F7DF1E" fill-rule="nonzero" points="177 68 270 68 270 161 177 161"></polygon>
                <path d="M201,145.10817 L208.081739,140.85147 C209.449562,143.257431 210.6908,145.293243 213.672585,145.293243 C216.5313,145.293243 218.331623,144.1828 218.331623,139.866737 L218.331623,110.502842 L227.027323,110.502842 L227.027323,139.985464 C227.027323,148.928374 221.75294,153 214.045308,153 C207.090154,153 203.053493,149.420741 201.003516,145.104678 M231.749654,144.179308 L238.827876,140.107682 C240.691492,143.13172 243.114192,145.345623 247.400507,145.345623 C251.004669,145.345623 253.300784,143.557739 253.300784,141.088923 C253.300784,138.127741 250.941377,137.080153 246.971524,135.351632 L244.798478,134.426263 C238.525478,131.775865 234.362232,128.444535 234.362232,121.411726 C234.362232,114.93414 239.330701,110 247.094593,110 C252.622147,110 256.588483,111.913594 259.454231,116.907098 L252.685439,121.226653 C251.194547,118.572763 249.580586,117.525175 247.094593,117.525175 C244.548824,117.525175 242.931347,119.127984 242.931347,121.226653 C242.931347,123.817687 244.545308,124.865275 248.272539,126.464593 L250.445585,127.389963 C257.829721,130.532727 262,133.741839 262,140.959721 C262,148.732824 255.850069,152.989524 247.583353,152.989524 C239.495965,152.989524 234.291907,149.148368 231.760203,144.168832" id="Shape" fill="#000000" fill-rule="nonzero"></path>
                <path d="M309.676338,212.17234 C309.676338,212.17234 306.065507,212.425414 303.836425,208.559008 C303.400765,207.780508 302.885886,207.049044 302.299976,206.376246 C301.580363,205.196613 301.206386,203.83874 301.220594,202.457116 C301.343651,199.592461 298.355134,183.901884 298.355134,183.901884 C298.355134,183.901884 298.72782,177.926529 295.739303,174.190175 C293.770398,171.729735 290.940097,164.699906 289.234885,160.158637 C289.349268,160.260587 289.486878,160.332993 289.635698,160.369532 L289.56538,159.979376 L289.635698,159.979376 L288.753206,155.13231 C287.468362,153.655793 286.385371,152.015215 285.53264,150.253608 L285.733047,150.211429 L288.377005,149.656073 C288.377005,149.656073 292.673437,143.550667 292.947677,140.54893 L293.299267,140.54893 L293.79501,140.54893 C297.771958,140.527185 301.746848,140.734911 305.699853,141.17107 C305.699853,141.153495 305.671726,141.076167 305.636567,140.953145 C305.469201,140.349097 305.34003,139.735116 305.249818,139.114845 L305.495931,139.114845 L307.957062,138.953159 C307.957062,138.953159 316.42687,129.491009 313.311781,127.747612 C310.196692,126.004214 306.958546,135.592901 306.958546,135.592901 L305.903776,135.782706 L305.618988,135.83543 C305.647115,135.793251 305.675242,135.754587 305.706885,135.715923 C305.738528,135.677259 291.882359,135.097298 289.748207,131.73001 C289.748207,131.73001 283.644601,126.872398 283.394972,123.645707 C283.303409,122.280967 282.456692,121.081789 281.201049,120.538522 C280.446964,120.178678 279.611819,120.02236 278.778593,120.085099 L275.920164,120.281934 L276.120571,120.633425 L276.039705,120.633425 C275.86037,120.222639 275.709992,119.799818 275.58967,119.368056 L275.64944,119.368056 C275.628345,119.280183 275.610765,119.19231 275.593186,119.104437 C277.363023,118.687176 278.888452,117.571287 279.821763,116.011129 C280.755073,114.450971 281.016731,112.579499 280.547091,110.823299 C280.82675,110.85918 281.110313,110.850877 281.387392,110.798695 C282.442162,110.584285 283.184018,109.515751 283.212145,108.447217 C283.212145,108.376919 283.212145,108.306621 283.212145,108.239837 C283.212145,108.239837 283.212145,108.211718 283.212145,108.197658 C283.19082,107.110286 282.680711,106.090355 281.823364,105.420876 C281.253788,104.946362 280.571703,104.608931 280.065413,104.081693 C279.45013,103.452524 279.112603,102.608944 278.634441,101.867297 C277.833481,100.640499 276.645514,99.7163719 275.259175,99.2416564 C274.229016,98.890165 272.963291,98.8550158 272.172213,99.5931478 C271.764368,99.9762735 271.528803,100.53163 271.071736,100.855002 C270.414262,101.326001 269.521223,101.185404 268.716081,101.280307 C267.235474,101.508005 265.965747,102.458386 265.330268,103.81456 C264.935556,104.650774 264.74516,105.568755 264.774755,106.492925 C264.766056,107.126951 264.841725,107.759319 264.999773,108.373404 C265.154473,108.984999 265.383006,109.575505 265.55177,110.1871 C265.90336,111.452469 265.984226,112.784621 266.388554,114.032416 C266.660209,114.958539 267.202615,115.782323 267.946099,116.397953 L267.826558,116.911131 C267.749208,116.911131 265.808431,117.343465 264.468872,120.271389 C263.414101,122.580688 259.824366,124.9638 258.245726,125.926886 C257.651001,126.290714 257.227767,126.878515 257.071414,127.557806 C256.919797,128.237051 256.852488,128.932386 256.871008,129.628091 C256.842881,131.128959 257.155796,133.206274 258.36175,135.838945 C261.100638,141.814299 263.094154,144.429395 263.094154,144.429395 C263.094154,144.429395 263.245338,146.260666 263.255886,148.190354 C263.255886,149.627954 263.150409,151.058524 262.844525,151.775566 C262.584349,152.380132 262.492935,153.923179 262.514031,155.687666 C262.514031,159.069014 262.844525,163.480231 262.844525,163.480231 C262.844525,163.480231 263.797335,163.663007 265.270498,163.877416 L266.188148,180.017903 C266.303507,181.972543 265.675561,183.898538 264.430197,185.409782 C263.786499,186.204624 263.043237,186.913419 262.218695,187.51873 C259.602864,189.38515 253.998516,209.061641 253.998516,209.061641 C253.998516,209.061641 254.272756,209.061641 254.722792,209.114364 L253,213.919252 C253,213.919252 259.884136,219.191624 264.071575,217.750509 C264.525142,217.602755 265.001219,217.536123 265.477936,217.553674 C266.304173,217.553674 268.072671,216.8999 267.088219,216.038746 C265.187234,214.288569 263.394339,212.424576 261.719437,210.457062 C261.854156,210.522944 261.983472,210.599337 262.106186,210.685531 L262.106186,210.646867 L262.165956,210.685531 C262.165956,210.685531 262.165956,210.492211 262.211663,210.175868 L262.151893,210.154779 C262.278465,208.86129 262.679278,205.58539 263.473872,205.205779 C264.468872,204.706662 271.820623,190.137342 271.820623,190.137342 L279.168858,171.209528 C279.168858,171.209528 285.022834,181.297332 290.004867,183.037215 L290.004867,187.255112 C290.004867,187.255112 292.743755,199.708453 293.742271,201.075755 C294.740787,202.443057 293.742271,207.922808 293.742271,207.922808 C293.939247,208.148231 294.16503,208.346769 294.413808,208.513314 L293.615699,213.026464 C293.615699,213.026464 299.346619,212.776905 309.061056,215.764582 C309.054024,215.782157 312.791428,214.165296 309.676338,212.17234 Z M286.75969,147.048007 L285.546704,147.350289 L285.307622,147.410043 C285.283011,147.258901 285.265432,147.171029 285.265432,147.171029 C284.987119,147.296609 284.687861,147.369316 284.38294,147.385438 C283.952997,146.023916 283.704739,144.611606 283.644601,143.185116 C283.236484,141.477842 282.988129,139.736314 282.902746,137.983042 C282.902746,137.076195 283.053929,136.285339 283.394972,135.838945 L283.799301,135.870579 L284.080573,136.137712 L284.101668,136.155287 L284.24582,136.285339 L284.397004,136.418906 L284.421615,136.439995 L284.583347,136.584107 L284.611474,136.608711 L284.776721,136.749307 L284.963064,136.903964 L285.005255,136.939113 L285.202145,137.097284 L285.39552,137.25194 L285.441227,137.287089 L285.655697,137.448775 L285.701403,137.48041 L285.905326,137.631551 L285.940485,137.656155 L286.172534,137.821356 L286.228789,137.86002 L286.474902,138.028736 L286.495997,138.028736 L286.735079,138.186907 L286.791333,138.225572 L287.047994,138.390773 L287.104248,138.425922 L287.34333,138.573548 L287.389036,138.601667 L287.663277,138.763353 L287.730079,138.802017 L288.014867,138.960189 L288.035962,138.960189 L288.313719,139.107815 L288.380521,139.142964 L288.675856,139.290591 L288.735627,139.31871 L289.009867,139.445247 L289.062606,139.469851 L289.372005,139.603418 L289.445839,139.635052 L289.765786,139.765104 C287.779302,141.951381 286.75969,147.048007 286.75969,147.048007 Z" id="Shape" fill="url(#linearGradient-1)" fill-rule="nonzero"></path>
                <path d="M256.305923,206 L254,212.179999 C254,212.179999 260.317598,216.8327 264.424037,215.868444 C265.042712,215.720538 265.673144,215.622424 266.308787,215.575122 C267.158153,215.514435 268.621729,214.917675 267.712697,214.162454 C264.799583,211.714729 260.91426,207.166547 260.91426,207.166547 L256.305923,206 Z" id="Shape" fill="#4F4D59" fill-rule="nonzero"></path>
                <path d="M295.100037,205.410072 L294,211.411115 C294,211.411115 299.627518,211.17638 309.1706,214 C309.1706,214 312.842104,212.469122 309.782517,210.598048 C309.782517,210.598048 306.245422,210.832783 304.034738,207.196097 C301.824054,203.55941 300.497643,204.018674 300.497643,204.018674 L295.100037,205.410072 Z" id="Shape" fill="#4F4D59" fill-rule="nonzero"></path>
                <path d="M266.832589,159.686435 L267.886685,178.725217 C268.002156,180.753898 267.336158,182.749091 266.027963,184.293564 C265.436821,185.002728 264.763204,185.637433 264.021668,186.183964 C261.470756,188.024711 256,207.403977 256,207.403977 C256,207.403977 262.198082,207.758649 263.89869,209 C263.89869,209 264.250055,204.094889 265.233877,203.601895 C266.2177,203.108902 273.375009,188.758881 273.375009,188.758881 L280.546373,170.113786 C280.546373,170.113786 286.256057,180.044596 291.118952,181.7683 L291.118952,185.939241 C291.118952,185.939241 293.792841,198.207338 294.766123,199.55509 C295.739404,200.902843 294.766123,206.293854 294.766123,206.293854 C294.766123,206.293854 297.577044,209.840572 304,206.049131 C304,206.049131 301.933973,203.718937 302.05695,200.89575 C302.179928,198.072562 299.246029,182.619513 299.246029,182.619513 C299.246029,182.619513 299.597394,176.731961 296.695117,173.043375 C293.792841,169.354788 288.968597,155.263678 288.968597,155.263678 L285.6236,148 L266.832589,159.686435 Z" id="Shape" fill="#C48C96" fill-rule="nonzero"></path>
                <g id="Group" opacity="0.1" transform="translate(256.000000, 148.000000)" fill="#000000" fill-rule="nonzero">
                    <path d="M1.25612903,59.2123121 C1.25612903,59.2123121 6.77741935,39.946185 9.35709677,38.116185 C10.1484057,37.5398578 10.8636878,36.866994 11.486129,36.1134104 C12.7455174,34.5987704 13.3795963,32.6656834 13.2603226,30.7045087 L12.1780645,11.7733526 L30.2748387,0.687572254 L30.03,0.162196532 L11.0745161,11.7768786 L12.1567742,30.7080347 C12.276048,32.6692094 11.641969,34.6022964 10.3825806,36.1169364 C9.76013937,36.87052 9.04485731,37.5433838 8.25354839,38.119711 C5.68096774,39.946185 0.152580645,59.2123121 0.152580645,59.2123121 C0.152580645,59.2123121 6.41193548,59.5649133 8.12935484,60.7990173 C8.12935484,60.7990173 8.12935484,60.6086127 8.17548387,60.3018497 C5.75903226,59.476763 1.25612903,59.2123121 1.25612903,59.2123121 Z" id="Shape"></path>
                    <path d="M40.4054839,58.1157225 C40.4054839,58.1157225 41.3883871,52.7491329 40.4054839,51.4163006 C39.4225806,50.0834682 36.7222581,37.8799422 36.7222581,37.8799422 L36.7222581,33.7263006 C31.8148387,32.019711 26.0451613,22.1398266 26.0451613,22.1398266 L25.6193548,23.2469942 C27.2835484,25.8703468 31.7225806,32.3793642 35.6222581,33.7333526 L35.6222581,37.8799422 C35.6222581,37.8799422 38.3225806,50.0764162 39.3054839,51.4163006 C40.2883871,52.756185 39.3054839,58.1157225 39.3054839,58.1157225 C39.3054839,58.1157225 40.6751613,59.8293642 43.6983871,59.5966474 C41.4380645,59.4097688 40.4054839,58.1157225 40.4054839,58.1157225 Z" id="Shape"></path>
                </g>
                <path d="M308.818534,139.744508 L306.31826,139.911133 L305,140 L305,136.797087 L306.730676,136.48235 L307.802223,136.286102 C307.802223,136.286102 311.116283,126.425573 314.297782,128.217723 C317.47928,130.009873 308.818534,139.744508 308.818534,139.744508 Z" id="Shape" fill="#714B4F" fill-rule="nonzero"></path>
                <path d="M270.206651,114 C270.206651,114 268.529708,120.21825 268.015445,124.07004 C267.501182,127.921831 280,124.8181 280,124.8181 C280,124.8181 275.230028,119.222035 277.939223,116.236987 L270.206651,114 Z" id="Shape" fill="#714B4F" fill-rule="nonzero"></path>
                <path d="M283.098261,139.690509 L283.353261,142 L279.391522,141.757451 L275.429783,138.474247 L271.468043,127.893474 L268.918043,124.121657 L267,121.812166 L267.768696,119 C267.768696,119 268.119783,119.291762 268.711087,119.720617 C270.658696,121.1267 275.222826,124.082989 278.56,123.267461 C278.714269,123.230454 278.866063,123.184674 279.014565,123.130368 L284,131.275103 L283.098261,139.690509 Z" id="Shape" fill="#E6E6F0" fill-rule="nonzero"></path>
                <path d="M268.775497,118.003501 C268.775497,118.003501 266.817617,118.353616 265.468697,121.273571 C264.43488,123.507303 260.936896,125.825061 259.375548,126.759867 C258.77379,127.123192 258.346053,127.711586 258.189491,128.391401 C257.874389,129.770853 257.754013,132.344195 259.4676,136.044906 C262.161898,141.856808 264.119778,144.39864 264.119778,144.39864 C264.119778,144.39864 264.608363,150.210542 263.875486,151.905097 C263.142609,153.599652 263.875486,162.923203 263.875486,162.923203 C263.875486,162.923203 276.730933,165.345996 281.018442,162.923203 C285.305952,160.50041 284.69345,151.176859 284.69345,151.176859 C284.69345,151.176859 288.733127,159.653133 290.202422,159.894712 L289.345628,155.171666 C289.345628,155.171666 284.569534,150.084501 284.325242,143.547862 C284.325242,143.547862 282.855946,137.613419 284.080949,136.041405 C284.080949,136.041405 304.774997,137.735959 306,136.282984 C306,136.282984 292.408135,135.677286 290.326339,132.407215 C290.326339,132.407215 284.325242,127.68417 284.080949,124.536639 C284.00857,123.335288 283.313665,122.25618 282.243445,121.683205 C281.410592,121.214665 280.454861,121.003691 279.499581,121.077507 L276.734474,121.266569 C276.734474,121.266569 281.510568,129.620303 281.266275,130.719663 C281.021983,131.819023 281.510568,140.648913 281.510568,140.648913 C281.510568,140.648913 275.983894,128.902568 273.551591,127.572133 C271.119288,126.241697 268.283371,120.765905 268.283371,120.765905 L268.771956,118" id="Shape" fill="#000000" fill-rule="nonzero" opacity="0.1"></path>
                <path d="M283.098261,139.690509 L283.353261,142 L279.391522,141.757451 L275.429783,138.474247 L271.468043,127.893474 L268.918043,124.121657 L267,121.812166 L267.768696,119 C267.768696,119 268.119783,119.291762 268.711087,119.720617 L268.533696,120.680269 C268.533696,120.680269 271.490217,126.171022 274.02913,127.510316 C276.568043,128.84961 282.336957,140.639615 282.336957,140.639615 C282.336957,140.639615 281.826957,131.763717 282.081957,130.670488 C282.255652,129.928779 280.016087,125.830047 278.56,123.267461 C278.714269,123.230454 278.866063,123.184674 279.014565,123.130368 L284,131.275103 L283.098261,139.690509 Z" id="Shape" fill="#000000" fill-rule="nonzero" opacity="0.1"></path>
                <path d="M305.761702,138.924211 L305,139 L305,136.268421 L306,136 C305.651064,136.685263 305.66383,137.897895 305.761702,138.924211 Z" id="Shape" fill="#000000" fill-rule="nonzero" opacity="0.1"></path>
                <path d="M268.775497,117 C268.775497,117 266.817617,117.350141 265.468697,120.270319 C264.43488,122.50422 260.936896,124.822155 259.375548,125.757032 C258.77379,126.120385 258.346053,126.708824 258.189491,127.388691 C257.874389,128.768247 257.754013,131.341785 259.4676,135.042778 C262.161898,140.855123 264.119778,143.397148 264.119778,143.397148 C264.119778,143.397148 264.608363,149.209493 263.875486,150.904176 C263.142609,152.59886 263.875486,161.923121 263.875486,161.923121 C263.875486,161.923121 276.730933,164.346099 281.018442,161.923121 C285.305952,159.500144 284.69345,150.175883 284.69345,150.175883 C284.69345,150.175883 288.729586,158.638796 290.202422,158.897901 L289.345628,154.174496 C289.345628,154.174496 284.569534,149.086943 284.325242,142.549806 C284.325242,142.549806 282.855946,136.614912 284.080949,135.042778 C284.080949,135.042778 288.857043,140.13033 294.245639,140.007781 C298.172315,139.984407 302.097047,140.186662 306,140.613525 C306,140.613525 304.774997,136.737462 306,135.284376 C306,135.284376 292.408135,134.678631 290.326339,131.408312 C290.326339,131.408312 284.325242,126.684907 284.080949,123.537137 C284.00857,122.335694 283.313665,121.256504 282.243445,120.683486 C281.410592,120.21491 280.454861,120.003919 279.499581,120.077742 L276.734474,120.266818 C276.734474,120.266818 281.510568,128.621188 281.266275,129.720631 C281.021983,130.820075 281.510568,139.650637 281.510568,139.650637 C281.510568,139.650637 275.983894,127.896395 273.551591,126.565859 C271.119288,125.235322 268.283371,119.773119 268.283371,119.773119 L268.771956,117.007003" id="Shape" fill="#C48C96" fill-rule="nonzero"></path>
                <path d="M266.344297,130 C266.344297,130 269.220739,139.604704 270.898086,140.795002 C272.575433,141.985299 282.764277,148.032832 285.762015,146.609278 C285.762015,146.609278 286.482858,150.169879 285.415455,151 C285.415455,151 274.238918,150.567788 274.148813,150.526625 C274.148813,150.526625 266.836411,149.576446 265.637316,146.019275 C264.438221,142.462104 263,136.41457 263,136.41457 L266.344297,130 Z" id="Shape" fill="#000000" fill-rule="nonzero" opacity="0.1"></path>
                <circle id="Oval" fill="#BA7855" fill-rule="nonzero" cx="282.5" cy="140.5" r="1"></circle>
                <circle id="Oval" fill="#BA7855" fill-rule="nonzero" cx="282.5" cy="144.5" r="1"></circle>
                <g id="Group" opacity="0.1" transform="translate(258.000000, 117.000000)" fill="#000000" fill-rule="nonzero">
                    <path d="M6.79058824,45.5617293 C6.79058824,45.5617293 6.05647059,36.1511278 6.79058824,34.4407519 C7.52470588,32.7303759 7.03411765,26.8642105 7.03411765,26.8642105 C7.03411765,26.8642105 5.08235294,24.2986466 2.39647059,18.4324812 C0.684705882,14.697218 0.808235294,12.0998496 1.12235294,10.7075188 C1.27842575,10.0213566 1.70482742,9.42746947 2.30470588,9.06075188 C3.86117647,8.10661654 7.34470588,5.77781955 8.37882353,3.52323308 C9.13764706,1.8693985 10.0870588,1.0318797 10.7717647,0.614887218 L10.8176471,0.346315789 C10.8176471,0.346315789 8.86588235,0.699699248 7.52117647,3.64691729 C6.49058824,5.90150376 3.00352941,8.24090226 1.44705882,9.18443609 C0.847180358,9.55115368 0.420778694,10.1450408 0.264705882,10.831203 C-0.0494117647,12.2235338 -0.169411765,14.8209023 1.53882353,18.5561654 C4.22470588,24.4223308 6.17647059,26.9878947 6.17647059,26.9878947 C6.17647059,26.9878947 6.66352941,32.8540602 5.93294118,34.5644361 C5.20235294,36.274812 5.93294118,45.6854135 5.93294118,45.6854135 C5.93294118,45.6854135 15.0882353,47.4311278 20.5023529,46.4946617 C15.0352941,47.1484211 6.79058824,45.5617293 6.79058824,45.5617293 Z" id="Shape"></path>
                    <path d="M23.2658824,13.1882707 C23.1,13.9409774 23.2658824,18.3688722 23.4035294,21.0828571 C23.9929412,22.2878947 24.3635294,23.0900752 24.3635294,23.0900752 C24.3635294,23.0900752 23.8764706,14.1671429 24.12,13.0681203 C24.3529412,12.0079699 20.0647059,4.35368421 19.6376471,3.59744361 L18.7482353,3.6575188 C18.7482353,3.6575188 23.5129412,12.0892481 23.2658824,13.1882707 Z" id="Shape"></path>
                    <path d="M37.0623529,23.4540602 C31.6905882,23.5777444 26.9294118,18.4430827 26.9294118,18.4430827 C26.7866485,18.6421721 26.6824909,18.8663316 26.6223529,19.1039098 C28.0341176,20.4184962 31.9164706,23.6731579 36.2082353,23.5742105 C40.1226462,23.5506201 44.0351202,23.7547485 47.9258824,24.1855639 C47.9258824,24.1855639 47.9011765,24.1042857 47.8623529,23.9664662 C44.2746408,23.5951075 40.6690609,23.4240408 37.0623529,23.4540602 Z" id="Shape"></path>
                    <path d="M27.5329412,33.7198496 C27.5329412,33.7198496 27.5823529,34.4831579 27.5541176,35.6281203 C28.8247059,38.1512782 31.1364706,42.4660902 32.1705882,42.6392481 L31.9905882,41.6356391 C30.2152941,39.4022556 27.5329412,33.7198496 27.5329412,33.7198496 Z" id="Shape"></path>
                </g>
                <path d="M289.576868,149.980321 L287.018695,150.550899 L285,151 L286.082438,147.815803 L286.837708,147.617021 L288.01064,147.307804 C288.01064,147.307804 289.695206,138.395735 293.067818,139.032574 C296.440431,139.669414 289.576868,149.980321 289.576868,149.980321 Z" id="Shape" fill="#714B4F" fill-rule="nonzero"></path>
                <path d="M286.984797,149.601741 L285,150 L286.064262,147.176279 L286.806849,147 C286.971431,147.857765 287.031146,148.730848 286.984797,149.601741 Z" id="Shape" fill="#000000" fill-rule="nonzero" opacity="0.1"></path>
                <path d="M266.344297,130 C266.344297,130 269.220739,139.604704 270.898086,140.795002 C272.575433,141.985299 282.764277,148.032832 285.762015,146.609278 C285.762015,146.609278 286.482858,150.169879 285.415455,151 C285.415455,151 274.238918,150.567788 274.148813,150.526625 C274.148813,150.526625 266.836411,149.576446 265.637316,146.019275 C264.438221,142.462104 263,136.41457 263,136.41457 L266.344297,130 Z" id="Shape" fill="#C48C96" fill-rule="nonzero"></path>
                <path d="M269.585976,114 C269.585976,114 269.335864,114.979105 269,116.402602 C270.406399,119.097055 273.424445,120.503736 276.364002,119.83489 C276.067441,118.552298 276.131755,117.255254 277,116.250859 L269.585976,114 Z" id="Shape" fill="#000000" fill-rule="nonzero" opacity="0.1"></path>
                <circle id="Oval" fill="#714B4F" fill-rule="nonzero" cx="275.5" cy="112.5" r="6.5"></circle>
                <path d="M280.762924,111.04877 C281.237957,111.179982 281.735614,111.210742 282.22347,111.139045 C283.261684,110.861168 283.987105,109.935346 284,108.871744 C283.981287,107.823335 283.484489,106.839441 282.648293,106.194732 C282.093566,105.736411 281.430001,105.413503 280.920916,104.9031 C280.320547,104.295477 279.99052,103.482999 279.516545,102.76774 C278.73586,101.585006 277.577989,100.69412 276.226805,100.236558 C275.22268,99.8893447 273.990344,99.8615676 273.21794,100.583771 C272.821205,100.955288 272.589484,101.486524 272.147107,101.802488 C271.504607,102.253865 270.633897,102.121924 269.85096,102.212199 C268.410448,102.428782 267.173281,103.339896 266.550688,104.64269 C265.951573,105.950928 265.837222,107.425979 266.227682,108.809246 C266.378652,109.399508 266.603352,109.968937 266.764854,110.545311 C267.115947,111.7675 267.186166,113.048716 267.57939,114.253545 C267.972614,115.458374 268.783638,116.638899 270.012463,117 C269.915583,115.647672 270.185886,114.294308 270.7954,113.079966 C270.895837,112.814415 271.093958,112.596162 271.350126,112.468871 C271.568936,112.41331 271.798393,112.41331 272.017203,112.468871 C273.557167,112.694157 275.12831,112.379716 276.458527,111.580005 C276.92548,111.302235 277.652242,110.343927 278.147283,110.25018 C278.786272,110.142544 280.095848,110.90294 280.762924,111.04877 Z" id="Shape" fill="#000000" fill-rule="nonzero" opacity="0.1"></path>
                <path d="M280.762924,111.04877 C281.237957,111.179982 281.735614,111.210742 282.22347,111.139045 C283.261684,110.861168 283.987105,109.935346 284,108.871744 C283.981287,107.823335 283.484489,106.839441 282.648293,106.194732 C282.093566,105.736411 281.430001,105.413503 280.920916,104.9031 C280.320547,104.295477 279.99052,103.482999 279.516545,102.76774 C278.73586,101.585006 277.577989,100.69412 276.226805,100.236558 C275.22268,99.8893447 273.990344,99.8615676 273.21794,100.583771 C272.821205,100.955288 272.589484,101.486524 272.147107,101.802488 C271.504607,102.253865 270.633897,102.121924 269.85096,102.212199 C268.410448,102.428782 267.173281,103.339896 266.550688,104.64269 C265.951573,105.950928 265.837222,107.425979 266.227682,108.809246 C266.378652,109.399508 266.603352,109.968937 266.764854,110.545311 C267.115947,111.7675 267.186166,113.048716 267.57939,114.253545 C267.972614,115.458374 268.783638,116.638899 270.012463,117 C269.918387,115.648202 270.191105,114.296087 270.802422,113.083438 C270.902859,112.817888 271.10098,112.599634 271.357148,112.472343 C271.575958,112.416782 271.805414,112.416782 272.024225,112.472343 C273.564189,112.697629 275.135332,112.383188 276.465548,111.583478 C276.932502,111.305707 277.659264,110.347399 278.154305,110.253652 C278.786272,110.142544 280.095848,110.90294 280.762924,111.04877 Z" id="Shape" fill="#503F43" fill-rule="nonzero"></path>
                <polygon id="Shape" fill="#E44D26" fill-rule="nonzero" points="346 89 340.624499 149.289404 316.462964 156 292.368446 149.289404 287 89"></polygon>
                <polygon id="Shape" fill="#F16529" fill-rule="nonzero" points="317 151 336.43526 145.576479 341 94 317 94"></polygon>
                <path d="M306.278804,108.414889 L316.996382,108.414889 L316.996382,101 L298,101 L298.180918,102.990051 L300.044373,123.421718 L317,123.421718 L317,116.006829 L306.973529,116.006829 L306.278804,108.414889 Z M308.001143,127.129163 L300.40259,127.129163 L301.462769,138.772026 L316.963816,143 L317,143 L317,135.262878 L316.967435,135.262878 L308.529423,133.032038 L308.001143,127.129163 Z" id="Shape" fill="#EBEBEB" fill-rule="nonzero"></path>
                <path d="M293,73 L296.742635,73 L296.742635,76.6309673 L300.165177,76.6309673 L300.165177,73 L303.907812,73 L303.907812,84 L300.165177,84 L300.165177,80.3172111 L296.742635,80.3172111 L296.742635,84 L293,84 L293,73 Z M308.828814,76.6482412 L305.532903,76.6482412 L305.532903,73 L315.86736,73 L315.86736,76.6482412 L312.57145,76.6482412 L312.57145,84 L308.832332,84 L308.832332,76.6482412 L308.828814,76.6482412 Z M317.51004,73 L321.41448,73 L323.816943,76.865892 L326.215887,73 L330.120328,73 L330.120328,84 L326.391763,84 L326.391763,78.5483668 L323.816943,82.4591709 L323.753627,82.4591709 L321.175289,78.5483668 L321.175289,84 L317.51004,84 L317.51004,73 Z M331.981093,73 L335.723729,73 L335.723729,80.3621231 L341,80.3621231 L341,83.9965452 L331.991646,83.9965452 L331.991646,73 L331.981093,73 Z" id="Shape" fill="#000000" fill-rule="nonzero"></path>
                <path d="M317,123.423369 L326.329905,123.423369 L325.450476,133.03996 L317,135.270612 L317,143 L332.536571,138.786545 L332.648762,137.533131 L334.429333,118.013151 L334.613905,116.023268 L317,116.023268 L317,123.437532 L317,123.423369 Z M317,108.400101 L317,108.417805 L335.305143,108.417805 L335.457143,106.750126 L335.819048,102.989884 L336,101 L317,101 L317,108.39656 L317,108.400101 Z" id="Shape" fill="#FFFFFF" fill-rule="nonzero"></path>
                <path d="M130.431956,133.751081 C129.733693,131.73985 128.727477,129.172096 127.925369,128.587395 C127.877047,128.549412 127.824124,128.517467 127.767812,128.492293 L127.667548,128.492293 L127.667548,126.009075 L125.784027,126.304947 C125.481744,125.407409 125.253032,124.487497 125.100086,123.554034 C125.471194,123.919208 126.029171,124.028979 126.514518,123.832296 C126.48229,123.782984 126.457225,123.730149 126.428578,123.677315 L126.514518,123.642092 C126.218041,123.127488 126.061413,122.546403 126.059751,121.954912 C126.075379,121.415226 126.16327,120.879921 126.321153,120.362834 C126.657752,119.218088 127.227105,118.14731 127.5458,116.999042 C127.74943,116.257567 127.845867,115.491575 127.832267,114.723639 C127.841923,113.422558 127.54016,112.137503 126.95138,110.972393 C126.805296,110.636981 126.576355,110.342771 126.285344,110.116476 C126.020395,109.972089 125.747871,109.841582 125.468913,109.725501 C125.001988,109.416059 124.599651,109.021496 124.283655,108.563143 C122.946018,106.961146 121.155223,105.785575 119.137989,105.185261 C118.612777,104.99343 118.043577,104.949517 117.494383,105.058459 C116.230347,105.410688 115.768419,106.935842 114.744298,107.742448 C113.838346,108.446907 112.595795,108.52792 111.464249,108.767436 C110.302611,108.961799 109.233363,109.512959 108.409793,110.341902 C107.874317,110.944023 107.58248,111.718723 107.589781,112.518681 C107.527086,113.277723 107.87025,114.014205 108.495733,114.462989 C109.204501,114.921417 110.084508,115.044154 110.894896,114.797607 C110.262793,116.945303 110.569965,119.255004 111.742436,121.17049 C112.914908,123.085975 114.846427,124.433656 117.071844,124.888984 L117.293856,125.276437 C117.971081,126.51882 118.484878,127.840901 118.822875,129.210841 C117.089748,130.179473 115.195484,131.084703 114.053196,131.169238 C114.00787,131.608506 113.925222,132.043268 113.806118,132.468965 C113.539233,133.537984 113.025866,134.532265 112.305747,135.374859 C110.751662,137.09374 103.758283,150.091011 103.758283,150.091011 C103.758283,150.091011 103.536271,150.608789 103.178187,151.49993 C98.8346283,152.024752 91.7481468,152.782045 89.7679425,152.391071 L81.9975207,145.128097 C81.9975207,145.128097 79.490933,147.012525 79.7057834,149.302017 L78.3056751,147.991723 C78.3056751,147.991723 70.921984,153.532295 82.5811975,157.149692 L100.320677,159.175013 C98.6305204,164.190762 97.054951,170.027206 97.5419452,173.204317 L97.6887596,173.204317 C98.0280585,173.203738 98.3668236,173.177834 98.7021372,173.126826 L98.6699096,173.690394 L96.9618492,203.781367 C96.9618492,203.781367 96.5715377,209.321939 101.817468,211.80868 C101.817468,211.80868 108.230751,230.346523 105.702679,232.449334 C105.702679,232.449334 106.003469,232.604315 106.508367,232.822697 L101.233791,237.401682 C101.233791,237.401682 97.3485798,238.356224 95.2108186,238.16602 C94.4330129,238.06166 93.6994868,238.548241 93.506339,239.296677 C93.506339,239.335422 93.506339,239.374167 93.484854,239.416435 L93.484854,239.465747 C93.484854,239.504492 93.484854,239.54676 93.484854,239.589027 C93.484854,239.631295 93.484854,239.620728 93.484854,239.634817 C93.484854,239.648906 93.484854,239.705263 93.484854,239.740486 L93.484854,239.786276 C93.484854,239.828543 93.484854,239.867289 93.5099199,239.909556 L93.5099199,239.955346 C93.521856,239.999962 93.5361793,240.043404 93.5528899,240.085671 L93.5528899,240.127939 C93.5707941,240.170206 93.5922792,240.212474 93.6137642,240.254741 L93.6137642,240.28292 C93.6388301,240.325187 93.663896,240.367455 93.6925427,240.409722 L93.7176085,240.444945 C93.7486425,240.489561 93.7832573,240.534177 93.8214529,240.578793 L93.8500996,240.614015 C93.8894888,240.659805 93.9324589,240.702073 93.9790098,240.747863 L94.0004949,240.747863 L94.1437285,240.867621 L94.175956,240.892277 L94.3514171,241.015557 L94.3943872,241.043736 L94.5984951,241.159971 L94.6307226,241.159971 L94.8491538,241.26564 L94.8813814,241.26564 L95.135621,241.367787 L95.1893336,241.388921 L95.4722199,241.4805 L95.5187708,241.4805 L95.8231422,241.557991 L95.8482081,241.557991 L96.206292,241.624914 L96.274328,241.624914 L96.6324119,241.677749 L96.7004479,241.677749 L97.1122444,241.716494 C97.9107717,241.776373 98.9886044,241.797507 100.234737,241.793985 C100.234737,241.793985 100.234737,241.825685 100.234737,241.839774 C100.234737,241.853864 100.234737,241.91022 100.234737,241.945443 L100.234737,241.991233 C100.234737,242.033501 100.234737,242.072246 100.259802,242.114514 L100.259802,242.160303 C100.271739,242.204919 100.286062,242.248361 100.302772,242.290628 L100.302772,242.332896 C100.320677,242.375163 100.342162,242.417431 100.363647,242.459699 L100.363647,242.487877 C100.388713,242.530144 100.413779,242.572412 100.442425,242.61468 L100.467491,242.649902 C100.498525,242.694518 100.53314,242.739134 100.571335,242.78375 L100.599982,242.818973 C100.639371,242.864763 100.682341,242.90703 100.728892,242.95282 L100.746797,242.95282 L100.89003,243.072578 L100.922258,243.097234 L101.097719,243.220514 L101.140689,243.248693 L101.341216,243.364929 L101.373444,243.364929 L101.591875,243.470597 L101.624102,243.470597 L101.878342,243.572744 L101.932054,243.593878 L102.214941,243.685457 L102.261492,243.685457 L102.565863,243.762948 L102.590929,243.762948 L102.949013,243.829872 L103.017049,243.829872 L103.375133,243.882706 L103.443169,243.882706 L103.854965,243.921451 C108.90753,244.305382 125.03205,243.157113 125.03205,243.157113 L125.03205,243.111323 L125.03205,243.054967 C125.193188,242.315284 125.96665,238.014561 123.216565,234.833928 C123.298924,234.749393 123.377703,234.661335 123.4529,234.569756 C123.4529,234.569756 121.304396,230.938269 122.482493,229.793523 C123.660589,228.648776 116.792539,208.948576 116.792539,208.948576 C116.792539,208.948576 113.100693,203.214278 115.238454,196.715642 C117.376215,190.217006 115.045089,183.147758 115.045089,183.147758 C115.045089,183.147758 120.147785,181.661349 120.240887,175.486765 C120.240887,175.300083 120.240887,175.106357 120.240887,174.91263 C120.347586,174.927951 120.455341,174.935017 120.563163,174.933764 C120.634688,174.938791 120.706487,174.938791 120.778013,174.933764 C120.778013,174.933764 119.807606,171.492481 120.971378,169.009263 C122.135151,166.526044 124.663224,168.819059 126.99435,158.688936 C128.680926,151.359038 130.163393,142.930184 130.858076,138.826709 C131.143426,137.126143 130.997045,135.382565 130.431956,133.751081 Z M86.0940011,155.237086 L84.3214856,153.581607 C84.9087432,153.821123 85.560456,154.053594 86.2873665,154.286066 L92.9656322,155.057449 C89.9863737,155.321621 87.2040614,155.469557 86.0940011,155.247653 L86.0940011,155.237086 Z" id="Shape" fill="url(#linearGradient-2)" fill-rule="nonzero"></path>
                <path d="M102.656837,154.099631 C102.656837,154.099631 88.8363056,156.066421 85.9555277,155.476015 L78.2782548,148 C78.2782548,148 70.9826849,153.704797 82.5021953,157.442804 L104,160 L102.656837,154.099631 Z" id="Shape" fill="#FDC2CC" fill-rule="nonzero"></path>
                <path d="M102.656837,154.099631 C102.656837,154.099631 88.8363056,156.066421 85.9555277,155.476015 L78.2782548,148 C78.2782548,148 70.9826849,153.704797 82.5021953,157.442804 L104,160 L102.656837,154.099631 Z" id="Shape" fill="#000000" fill-rule="nonzero" opacity="0.05"></path>
                <polygon id="Shape" fill="#264DE4" fill-rule="nonzero" points="75.9556847 159 46.5515781 150.910551 40 78 112 78 105.441331 150.9"></polygon>
                <polygon id="Shape" fill="#2965F1" fill-rule="nonzero" points="100.285542 145.445864 106 83 76 83 76 152"></polygon>
                <path d="M54.6688607,110.229214 L55.4906754,119.234007 L76,119.234007 L76,110.229214 L54.6688607,110.229214 Z M53.0180223,92 L53.8506504,101.004793 L75.9963955,101.004793 L75.9963955,92 L53,92 L53.0180223,92 Z M75.9963955,133.619712 L75.9567466,133.619712 L65.7489422,130.909773 L65.0965366,123.725776 L55.8799561,123.725776 L57.1631406,137.867056 L75.9351199,143 L75.9783733,143 L75.9963955,133.619712 Z" id="Shape" fill="#EBEBEB" fill-rule="nonzero"></path>
                <path d="M57,58 L67.8715526,58 L67.8715526,62.6 L61.5442313,62.6 L61.5442313,67.2 L67.8715526,67.2 L67.8715526,71.8 L57,71.8 L57,58 Z M70.0642237,58 L80.9357763,58 L80.9357763,62 L74.5943315,62 L74.5943315,62.8 L80.9216528,62.8 L80.9216528,72 L70.0465693,72 L70.0465693,67.8 L76.3738906,67.8 L76.3738906,67 L70.0465693,67 L70.0465693,58 L70.0642237,58 Z M83.1284474,58 L94,58 L94,62 L87.6409008,62 L87.6409008,62.8 L93.9682222,62.8 L93.9682222,72 L83.0931387,72 L83.0931387,67.8 L89.42046,67.8 L89.42046,67 L83.0931387,67 L83.0931387,58 L83.1284474,58 Z" id="Shape" fill="#000000" fill-rule="nonzero"></path>
                <polygon id="Shape" fill="#FFFFFF" fill-rule="nonzero" points="97.3434803 110.230481 99 92 76 92 76 101.005418 88.9309587 101.005418 88.0972854 110.21631 76 110.21631 76 119.221728 87.2997019 119.221728 86.2170093 130.912476 76 133.629689 76 143 94.8099796 137.88087 94.9471207 136.35753 97.1125059 112.643026 97.3362624 110.223395"></polygon>
                <path d="M106.918813,231 L100.416611,236.696763 C100.416611,236.696763 96.7020624,237.617487 94.6601062,237.431273 C92.6181499,237.24506 91.6877705,240.555527 96.5173804,240.924507 C101.34699,241.293486 116.762715,240.189997 116.762715,240.189997 C116.762715,240.189997 118.24714,234.307019 113.790379,231 L106.918813,231 Z" id="Shape" fill="#47465A" fill-rule="nonzero"></path>
                <path d="M106.918813,231 L100.416611,236.696763 C100.416611,236.696763 96.7020624,237.617487 94.6601062,237.431273 C92.6181499,237.24506 91.6877705,240.555527 96.5173804,240.924507 C101.34699,241.293486 116.762715,240.189997 116.762715,240.189997 C116.762715,240.189997 118.24714,234.307019 113.790379,231 L106.918813,231 Z" id="Shape" fill="#000000" fill-rule="nonzero" opacity="0.05"></path>
                <path d="M116.994969,237 C116.983937,237.598245 116.905731,238.194048 116.761498,238.778658 C116.761498,238.778658 101.345504,239.763382 96.51581,239.434115 C94.1915631,239.277175 93.2054134,238.510936 93.031182,237.778548 C92.8186197,238.621718 93.6618997,239.73261 96.51581,239.932632 C101.345504,240.261899 116.761498,239.277175 116.761498,239.277175 C116.943096,238.529218 117.021489,237.764597 116.994969,237 Z" id="Shape" fill="#FFFFFF" fill-rule="nonzero" opacity="0.3"></path>
                <path d="M115,124.239966 C115,124.239966 118.929648,130.010915 117.499162,133.923422 C116.068677,137.83593 125,129.825769 125,129.825769 C125,129.825769 122.142379,124.589297 123.572864,119 L115,124.239966 Z" id="Shape" fill="#FDC2CC" fill-rule="nonzero"></path>
                <path d="M112.911844,233 L106.416611,238.696763 C106.416611,238.696763 102.702062,239.617487 100.660106,239.431273 C98.6181499,239.24506 97.6877705,242.555527 102.51738,242.924507 C107.34699,243.293486 122.762715,242.189997 122.762715,242.189997 C122.762715,242.189997 124.24714,236.307019 119.790379,233 L112.911844,233 Z" id="Shape" fill="#47465A" fill-rule="nonzero"></path>
                <path d="M116,231.249594 C115.028821,232.456274 113.659388,232.920653 112.227073,232.991014 C108.971176,233.145806 105.386895,231.249594 105.386895,231.249594 C107.807857,229.188034 101.662876,210.996351 101.662876,210.996351 C96.6357999,208.558363 97.0061057,203.119503 97.0061057,203.119503 L98.634054,173.603313 L99.0462812,166.187326 L104.262004,163 L108.370303,166.166218 L112.268994,169.177644 C112.52297,170.135669 112.686721,171.115666 112.758077,172.104636 C113.212226,178.996438 107.80087,180.618246 107.80087,180.618246 C107.80087,180.618246 110.036679,187.555782 107.986023,193.933952 C105.935367,200.312123 109.474233,205.937438 109.474233,205.937438 C109.474233,205.937438 116.178166,225.441342 115.063755,226.567109 C113.949344,227.692875 116,231.249594 116,231.249594 Z" id="Shape" fill="#565171" fill-rule="nonzero"></path>
                <path d="M116,231.249594 C115.028821,232.456274 113.659388,232.920653 112.227073,232.991014 C108.971176,233.145806 105.386895,231.249594 105.386895,231.249594 C107.807857,229.188034 101.662876,210.996351 101.662876,210.996351 C96.6357999,208.558363 97.0061057,203.119503 97.0061057,203.119503 L98.634054,173.603313 L99.0462812,166.187326 L104.262004,163 L108.370303,166.166218 L112.268994,169.177644 C112.52297,170.135669 112.686721,171.115666 112.758077,172.104636 C113.212226,178.996438 107.80087,180.618246 107.80087,180.618246 C107.80087,180.618246 110.036679,187.555782 107.986023,193.933952 C105.935367,200.312123 109.474233,205.937438 109.474233,205.937438 C109.474233,205.937438 116.178166,225.441342 115.063755,226.567109 C113.949344,227.692875 116,231.249594 116,231.249594 Z" id="Shape" fill="#000000" fill-rule="nonzero" opacity="0.05"></path>
                <path d="M122,234.250528 C118.831161,238.18684 111.374245,234.250528 111.374245,234.250528 C111.524408,234.111407 111.63643,233.935747 111.699523,233.74046 C113.067091,230.001139 107.086169,212.124158 107.086169,212.124158 C102.0531,209.686388 101.489984,203.875138 101.489984,203.875138 L100.171383,173.826895 L100,169.936313 L107.845151,166.925157 L110.255008,166 L118.282035,172.187644 C118.626686,173.469496 118.796129,174.792589 118.785692,176.12044 C118.684261,182.174411 113.798092,183.637777 113.798092,183.637777 C113.798092,183.637777 116.036566,190.574693 113.983466,196.952293 C111.930366,203.329894 115.483943,208.937117 115.483943,208.937117 C115.483943,208.937117 122.195866,228.439278 121.080127,229.564944 C119.964388,230.690609 122,234.250528 122,234.250528 Z" id="Shape" fill="#565171" fill-rule="nonzero"></path>
                <path d="M118.999539,175 C117.362888,174.774552 114.050535,172.878736 112.349981,171.850555 C111.700291,171.457728 111.284915,171.194705 111.284915,171.194705 C111.284915,171.194705 109.580811,166.641332 105.040082,170.101623 C103.562908,171.256002 101.89479,172.163578 100.105279,172.786507 C99.4216899,173.019402 98.7168155,173.189811 98,173.295474 L98.4189257,166.094791 L103.719401,163 L107.894457,166.074295 L110.340557,165.175918 L118.488307,171.181042 C118.838142,172.42579 119.010133,173.710585 118.999539,175 Z" id="Shape" fill="#000000" fill-rule="nonzero" opacity="0.1"></path>
                <path d="M128.861124,139.567559 C128.198284,143.592555 126.767945,151.881796 125.163175,159.055719 C122.930452,168.995068 120.512831,166.743322 119.399958,169.181541 C118.287085,171.61976 119.21506,174.993861 119.21506,174.993861 C117.35562,175.180334 111.219119,171.056823 111.219119,171.056823 C111.219119,171.056823 109.544577,166.366858 105.082618,169.93095 C100.62066,173.495042 97.0866771,173.305051 97.0866771,173.305051 C96.1552128,167.116267 103.038281,150.611671 103.038281,150.611671 C103.038281,150.611671 109.732963,137.857639 111.219119,136.186421 C111.908709,135.36028 112.400509,134.385155 112.656435,133.336555 C112.770593,132.919422 112.849946,132.493388 112.893662,132.062911 C115.311283,131.876438 121.266375,127.749409 121.266375,127.749409 L125.91672,127 L125.91672,129.438219 C125.97174,129.463063 126.023337,129.494995 126.070219,129.533215 C126.834229,130.12078 127.814535,132.625847 128.466908,134.599644 C129.001052,136.197796 129.136449,137.904074 128.861124,139.567559 Z" id="Shape" fill="#E1A0A7" fill-rule="nonzero"></path>
                <path d="M107,158 L104.519062,157.704797 L85.503338,155.442804 C73.9808391,151.704797 81.279622,146 81.279622,146 L88.9564869,153.476015 C91.1709671,153.929889 99.8596515,152.870849 103.752096,152.369004 C104.918749,152.214022 105.656909,152.110701 105.656909,152.110701 L107,158 Z" id="Shape" fill="#FDC2CC" fill-rule="nonzero"></path>
                <path d="M125.322555,131.577379 C125.322555,131.577379 120.419923,127.616126 113.051828,140.445064 C105.683732,153.274001 104,151.199565 104,151.199565 C104,151.199565 105.506869,156.863555 104.753435,157.992813 C104.753435,157.992813 109.84354,157.614034 111.728895,157.992813 C113.614251,158.371592 125.304868,143.652298 125.304868,143.652298 C125.304868,143.652298 131.357106,135.351013 125.322555,131.577379 Z" id="Shape" fill="#000000" fill-rule="nonzero" opacity="0.1"></path>
                <path d="M125.317722,130.577379 C125.317722,130.577379 120.412947,126.616126 113.055785,139.445064 C105.698623,152.274001 104,150.199565 104,150.199565 C104,150.199565 109.846095,156.614034 111.732275,156.992813 C113.618454,157.371592 125.314183,142.652298 125.314183,142.652298 C125.314183,142.652298 131.354912,134.351013 125.317722,130.577379 Z" id="Shape" fill="#000000" fill-rule="nonzero" opacity="0.1"></path>
                <path d="M104.708426,157.69625 C104.781596,156.215 104.286031,153.6125 104,152.2625 C105.077605,152.105 105.759424,152 105.759424,152 L107,158 L104.708426,157.69625 Z" id="Shape" fill="#000000" fill-rule="nonzero" opacity="0.1"></path>
                <path d="M125.322555,131.577111 C125.322555,131.577111 120.419923,127.616348 113.051828,140.447237 C105.683732,153.278126 104,151.200407 104,151.200407 C104,151.200407 105.506869,156.863696 104.753435,157.992814 C104.753435,157.992814 109.84354,157.614081 111.728895,157.992814 C113.614251,158.371546 125.304868,143.654074 125.304868,143.654074 C125.304868,143.654074 131.357106,135.350277 125.322555,131.577111 Z" id="Shape" fill="#E1A0A7" fill-rule="nonzero"></path>
                <path d="M124,119 L115,124.15662 C115.380845,124.700691 115.732478,125.264046 116.053453,125.844367 C116.571232,125.947944 117.098258,126.000082 117.626609,126 C120.024971,126 121.138119,123.520257 122.588373,121.849802 C122.483028,120.521739 123.585642,120.487154 124,119 Z" id="Shape" fill="#000000" fill-rule="nonzero" opacity="0.1"></path>
                <circle id="Oval" fill="#FDC2CC" fill-rule="nonzero" cx="118" cy="118" r="8"></circle>
                <path d="M107.778134,111.416147 C108.55045,110.575054 109.553872,110.015519 110.644312,109.817889 C111.708013,109.574518 112.874322,109.50187 113.722547,108.779021 C114.68364,107.96173 115.114593,106.40706 116.301424,106.058349 C116.817052,105.948815 117.351223,105.994098 117.843961,106.189116 C119.737192,106.79686 121.417972,107.987724 122.67337,109.610842 C122.970418,110.076559 123.348946,110.477333 123.788375,110.791374 C124.050139,110.908935 124.305875,111.041096 124.554513,111.187306 C124.826804,111.417161 125.040767,111.715561 125.177,112.055451 C126.031482,113.888556 126.228438,115.989318 125.731083,117.965374 C125.43352,119.131377 124.899959,120.213833 124.581875,121.376203 C124.263791,122.538573 124.185125,123.853504 124.763149,124.892372 C124.202226,125.197494 123.494232,124.812459 123.141945,124.256701 C122.789658,123.700943 122.68363,123.018051 122.498936,122.375115 C122.135651,121.11302 121.451592,119.981809 120.522025,119.10595 C119.947422,118.568354 118.921343,118.205113 118.521173,118.898903 C118.367261,119.167701 118.377522,119.512779 118.244132,119.792474 C117.984192,120.340968 117.218053,120.44994 116.728956,120.155715 C116.247308,119.802634 115.908941,119.26944 115.781544,118.662796 C115.032507,115.963919 113.749909,114.267586 111.034222,115.419058 C110.008144,115.847682 108.828154,116.145539 107.853379,115.419058 C106.604984,114.445574 106.854663,112.516766 107.778134,111.416147 Z" id="Shape" fill="#000000" fill-rule="nonzero" opacity="0.1"></path>
                <path d="M107.778134,111.416147 C108.55045,110.575054 109.553872,110.015519 110.644312,109.817889 C111.708013,109.574518 112.874322,109.50187 113.722547,108.779021 C114.68364,107.96173 115.114593,106.40706 116.301424,106.058349 C116.817052,105.948815 117.351223,105.994098 117.843961,106.189116 C119.737192,106.79686 121.417972,107.987724 122.67337,109.610842 C122.970418,110.076559 123.348946,110.477333 123.788375,110.791374 C124.050139,110.908935 124.305875,111.041096 124.554513,111.187306 C124.826804,111.417161 125.040767,111.715561 125.177,112.055451 C126.031482,113.888556 126.228438,115.989318 125.731083,117.965374 C125.43352,119.131377 124.899959,120.213833 124.581875,121.376203 C124.263791,122.538573 124.185125,123.853504 124.763149,124.892372 C124.202226,125.197494 123.494232,124.812459 123.141945,124.256701 C122.789658,123.700943 122.68363,123.018051 122.498936,122.375115 C122.135651,121.11302 121.451592,119.981809 120.522025,119.10595 C119.947422,118.568354 118.921343,118.205113 118.521173,118.898903 C118.367261,119.167701 118.377522,119.512779 118.244132,119.792474 C117.984192,120.340968 117.218053,120.44994 116.728956,120.155715 C116.247308,119.802634 115.908941,119.26944 115.781544,118.662796 C115.032507,115.963919 113.749909,114.267586 111.034222,115.419058 C110.008144,115.847682 108.828154,116.145539 107.853379,115.419058 C106.604984,114.449206 106.854663,112.520399 107.778134,111.416147 Z" id="Shape" fill="#8F5A6A" fill-rule="nonzero"></path>
                <path d="M127,129.395336 L123.054645,129.395336 C123.054645,129.395336 115.287796,132.946696 115.094718,132.770128 C114.96357,132.650194 113.761384,132.856746 113,133 C113.119209,132.605023 113.202073,132.201617 113.247723,131.794003 C115.772313,131.617435 121.990893,127.709606 121.990893,127.709606 L126.846995,127 L126.846995,129.308717 C126.901714,129.331697 126.953108,129.360792 127,129.395336 Z" id="Shape" fill="#000000" fill-rule="nonzero" opacity="0.05"></path>
                <path d="M122.994969,240 C122.983937,240.598245 122.905731,241.194048 122.761498,241.778658 C122.761498,241.778658 107.345504,242.763382 102.51581,242.434115 C100.191563,242.277175 99.2054134,241.510936 99.031182,240.778548 C98.8186197,241.621718 99.6618997,242.73261 102.51581,242.932632 C107.345504,243.261899 122.761498,242.277175 122.761498,242.277175 C122.943096,241.529218 123.021489,240.764597 122.994969,240 Z" id="Shape" fill="#FFFFFF" fill-rule="nonzero" opacity="0.3"></path>
                <g id="Group" opacity="0.05" transform="translate(97.000000, 129.000000)" fill="#000000" fill-rule="nonzero">
                    <path d="M6.28521739,40.5256489 C3.78434783,42.5271756 1.57217391,43.3348092 0.11826087,43.6859542 C0.11826087,43.8264122 0.146086957,43.9633588 0.166956522,44.0967939 C0.166956522,44.0967939 3.69043478,44.2829008 8.13913043,40.729313 C8.82844389,40.1330218 9.64326517,39.7031101 10.5217391,39.4722137 C9.55130435,38.991145 8.16695652,39.0227481 6.28521739,40.5256489 Z" id="Shape"></path>
                    <path d="M31.4469565,5.43221374 C30.7826087,3.46229008 29.8191304,0.965648855 29.0573913,0.375725191 C29.0106481,0.337580224 28.9592052,0.305711762 28.9043478,0.280916031 C28.9043478,0.280916031 27.3704348,0.333587786 27.4226087,0.375725191 C28.1843478,0.962137405 28.9286957,3.27618321 29.5930435,5.24259542 C30.1314009,6.84109899 30.2700046,8.5491643 29.9965217,10.2148092 C29.3356522,14.2319084 27.9095652,22.5048855 26.3095652,29.6647328 C24.0834783,39.5845802 21.6730435,37.3372519 20.5634783,39.770687 C19.6521739,41.7651908 20.1078261,44.3847328 20.306087,45.2661069 C20.9056898,45.5690483 21.5629406,45.7379231 22.2330435,45.7612214 C22.2330435,45.7612214 21.3043478,42.3937405 22.4173913,39.9603053 C23.5304348,37.5268702 25.9408696,39.7741985 28.1634783,29.8543511 C29.773913,22.6769466 31.1895652,14.4039695 31.8504348,10.4044275 C32.1239176,8.73878262 31.9853139,7.03071731 31.4469565,5.43221374 Z" id="Shape"></path>
                </g>
                <path d="M151.557668,169.723686 C152.225551,169.181239 152.712273,168.449457 152.953366,167.625265 C153.135572,166.790253 152.778448,165.79187 151.976742,165.486909 C151.080289,165.145643 150.121886,165.762826 149.396706,166.3909 C148.671526,167.018974 147.837023,167.730549 146.885908,167.596221 C147.880289,166.698213 148.328536,165.3461 148.066603,164.034715 C148.02549,163.767502 147.91211,163.516489 147.738632,163.308617 C147.239388,162.778567 146.33929,163.007287 145.741655,163.424793 C143.846713,164.753551 143.318316,167.316674 143.307383,169.625662 C143.117889,168.794281 143.278231,167.926595 143.270942,167.084322 C143.263654,166.24205 143.03043,165.26908 142.308895,164.82616 C141.861467,164.586652 141.358992,164.46776 140.851247,164.481264 C139.998524,164.44859 139.051053,164.535722 138.467994,165.156535 C137.73917,165.926198 137.932308,167.222281 138.562741,168.060923 C139.193173,168.899565 140.147933,169.440508 141.029809,170.028646 C141.736598,170.447268 142.339482,171.019355 142.793563,171.7023 C142.84697,171.797015 142.89091,171.896727 142.924751,172 L148.263385,172 C149.459529,171.392764 150.567681,170.627044 151.557668,169.723686 Z" id="Shape" fill="#6E72EE" fill-rule="nonzero"></path>
                <path d="M161.073693,235.975268 C161.90883,235.200336 162.693788,234.286131 162.937519,233.175515 C163.18125,232.064899 162.70454,230.729303 161.636425,230.318625 C160.44286,229.861522 159.163272,230.675736 158.195516,231.52209 C157.22776,232.368444 156.116633,233.307646 154.851383,233.129091 C156.176937,231.931252 156.774281,230.128179 156.424882,228.379511 C156.369336,228.02462 156.218209,227.691388 155.987599,227.41531 C155.324508,226.701088 154.120189,227.011775 153.328063,227.568868 C150.819067,229.354424 150.102211,232.757695 150.08429,235.835994 C149.829806,234.725378 150.044863,233.568338 150.037694,232.429153 C150.030526,231.289968 149.718693,230.029365 148.754522,229.415133 C148.154022,229.093575 147.478879,228.935881 146.797505,228.958031 C145.661288,228.915178 144.396037,229.029453 143.621833,229.857951 C142.657661,230.886432 142.904977,232.611279 143.747283,233.743322 C144.589588,234.875365 145.862008,235.586016 147.034068,236.36809 C147.974994,236.926897 148.777437,237.689775 149.381771,238.600035 C149.453417,238.727256 149.512247,238.861231 149.557401,239 L156.679365,239 C158.274265,238.193674 159.752428,237.176215 161.073693,235.975268 Z" id="Shape" fill="#6E72EE" fill-rule="nonzero"></path>
            </g>
        </g>
    </g>
</svg>