<?xml version="1.0" encoding="UTF-8"?>
<svg width="274px" height="187px" viewBox="0 0 274 187" version="1.1" xmlns="http://www.w3.org/2000/svg" xmlns:xlink="http://www.w3.org/1999/xlink">
    <!-- Generator: Sketch 51.2 (57519) - http://www.bohemiancoding.com/sketch -->
    <title>pic_waiting</title>
    <desc>Created with Sketch.</desc>
    <defs>
        <linearGradient x1="0.0151367844%" y1="50.0114859%" x2="100.034472%" y2="50.0114859%" id="linearGradient-1">
            <stop stop-color="#808080" stop-opacity="0.25" offset="0%"></stop>
            <stop stop-color="#808080" stop-opacity="0.12" offset="54%"></stop>
            <stop stop-color="#808080" stop-opacity="0.1" offset="100%"></stop>
        </linearGradient>
        <linearGradient x1="50.0241984%" y1="99.9891091%" x2="50.0241984%" y2="0%" id="linearGradient-2">
            <stop stop-color="#808080" stop-opacity="0.25" offset="0%"></stop>
            <stop stop-color="#808080" stop-opacity="0.12" offset="54%"></stop>
            <stop stop-color="#808080" stop-opacity="0.1" offset="100%"></stop>
        </linearGradient>
        <linearGradient x1="50.0241539%" y1="99.9924693%" x2="50.0241539%" y2="0.00188267189%" id="linearGradient-3">
            <stop stop-color="#808080" stop-opacity="0.25" offset="0%"></stop>
            <stop stop-color="#808080" stop-opacity="0.12" offset="54%"></stop>
            <stop stop-color="#808080" stop-opacity="0.1" offset="100%"></stop>
        </linearGradient>
        <linearGradient x1="50%" y1="100.004204%" x2="50%" y2="0%" id="linearGradient-4">
            <stop stop-color="#808080" stop-opacity="0.25" offset="0%"></stop>
            <stop stop-color="#808080" stop-opacity="0.12" offset="54%"></stop>
            <stop stop-color="#808080" stop-opacity="0.1" offset="100%"></stop>
        </linearGradient>
    </defs>
    <g id="Page-1" stroke="none" stroke-width="1" fill="none" fill-rule="evenodd">
        <g id="Artboard-Copy-3" transform="translate(-645.000000, -202.000000)">
            <g id="pic_waiting" transform="translate(645.000000, 202.000000)">
                <g id="Group" opacity="0.7" transform="translate(18.000000, 115.000000)" fill="url(#linearGradient-1)" fill-rule="nonzero">
                    <path d="M33.6461789,22.1362844 C34.2967661,19.4878023 33.2694302,16.7071903 31.061626,15.1408716 C30.4921951,14.7519266 29.8564228,14.4553211 29.3312195,14.0076147 C28.4549593,13.2605046 27.9491057,12.1608257 27.5952846,11.0611468 C26.7273171,8.42527523 26.4536585,5.46481651 24.9333333,3.08357798 C23.5512195,0.915 20.8533333,0.285412844 18.4622764,0.0643577982 C17.5915447,-0.0139908257 16.6765854,-0.0559633028 15.8804878,0.31059633 C14.5481301,0.92059633 13.9123577,2.51275229 13.8515447,3.99298165 C13.7907317,5.47321101 14.1721951,6.93105505 14.2661789,8.40848624 C14.3601626,9.88591743 14.1003252,11.5116514 13.0250407,12.5133945 C11.9497561,13.5151376 10.4073171,13.6326606 8.97821138,13.8341284 C7.10721321,14.0970046 5.2689179,14.559407 3.49398374,15.2136239 C2.00406504,15.7732569 0.342764228,16.7554128 0.273658537,18.3559633 C0.215609756,19.6655046 1.2604878,20.7120183 2.04552846,21.7557339 C3.51333333,23.7144495 4.25691057,26.2775688 3.74829268,28.6755963 C3.2396748,31.0736239 1.53691057,33.211422 1.24113821,35.685 C1.12924304,36.3133 1.21530555,36.9613097 1.48715447,37.5373853 C1.7252157,37.9284219 2.03932794,38.2663826 2.4104065,38.5307339 C3.33089431,39.2498624 4.34536585,39.8290826 5.2299187,40.6097706 C7.04601626,42.2383028 8.0300813,44.6027523 8.78747967,46.936422 C8.85934959,47.1602752 8.92569106,47.3897248 8.99479675,47.613578 L7.20910569,47.613578 C3.57639252,47.6334157 0.63505989,50.6071181 0.610894309,54.2844037 C0.627540797,57.9693235 3.57440684,60.9523693 7.21463415,60.9692202 L25.0439024,60.9692202 C28.6841297,60.9523693 31.6309958,57.9693235 31.6476423,54.2844037 C31.6309958,50.5994839 28.6841297,47.616438 25.0439024,47.5995872 L20.156748,47.5995872 C21.3121951,46.0326147 22.5201626,44.5607798 24.3030894,43.9619725 C26.0860163,43.3631651 28.244878,43.7129358 29.6435772,42.4537615 C30.3013467,41.8004541 30.7278795,40.9457668 30.8570732,40.022156 C31.1528525,38.376377 30.8764284,36.6776952 30.0747967,35.2149083 C29.5219512,34.1991743 28.6926829,33.278578 28.5130081,32.1369266 C28.3609756,31.1547706 28.7120325,30.1586239 29.1874797,29.2855963 C30.5364228,26.8036239 32.9219512,24.8756881 33.6461789,22.1362844 Z" id="Shape"></path>
                </g>
                <path d="M36.3440434,116.051684 C35.5137609,115.975215 34.6419643,115.935564 33.8836396,116.28959 C32.6133073,116.878688 32.0072011,118.413744 31.9463137,119.838343 C31.8854263,121.262943 32.2535182,122.670549 32.3420817,124.086652 C32.4306452,125.502755 32.184328,127.077461 31.1575453,128.05174 C30.1307626,129.026018 28.6666977,129.13081 27.2994992,129.3234 C25.515654,129.579171 23.7632395,130.027262 22.0714869,130.660201 C20.6517038,131.189824 19.0686318,132.144277 19.0022092,133.690661 C18.946857,134.953825 19.9431961,135.956426 20.6932179,136.967523 C22.0936278,138.848108 22.7910651,141.326287 22.3150365,143.637367 C21.8390078,145.948447 20.2171893,148.010293 19.9238228,150.39501 C19.8175777,151.000305 19.8998686,151.624462 20.1590695,152.179299 C20.3868109,152.556413 20.6872016,152.882124 21.0419366,153.136585 C21.9192685,153.830475 22.8990018,154.38842 23.7292844,155.141786 C25.4618072,156.710828 26.3972589,158.990754 27.1223723,161.239525 C27.8308288,163.450172 28.3857328,165.709291 28.7829373,168 C30.2746782,167.017225 32.2037013,167.031386 33.7950761,166.232704 C37.1853964,164.53338 38.3256511,159.605343 41.9041687,158.378997 C43.5979451,157.812556 45.6625809,158.13826 46.9965682,156.926076 C47.6234957,156.296839 48.0301195,155.47357 48.1534285,154.583842 C48.4348983,152.997383 48.1708542,151.360129 47.4061742,149.950354 C46.8720258,148.97041 46.086025,148.08393 45.9172009,146.973705 C45.7705177,146.024917 46.1081659,145.067631 46.559286,144.226466 C47.846224,141.833252 50.1211981,139.978158 50.8158678,137.33571 C51.4363334,134.782918 50.4573127,132.10263 48.3526963,130.592228 C47.7804163,130.258557 47.2260934,129.893619 46.6921313,129.498997 C45.8618487,128.779617 45.3830525,127.717539 45.0315662,126.666791 C44.2012837,124.117806 43.9438961,121.2856 42.4936693,118.977353 C41.1928934,116.870192 38.6245528,116.261268 36.3440434,116.051684 Z" id="Shape" fill="#4DB6AC" fill-rule="nonzero"></path>
                <path d="M35.4720343,116 C35.4720343,116 38.2658272,159.528644 31,167" id="Shape" stroke="#535461" opacity="0.6"></path>
                <path d="M23.2648709,162 L44.7351291,162 C47.0905522,162 49,163.944363 49,166.342857 L49,170.657143 C49,173.055637 47.0905522,175 44.7351291,175 L23.2648709,175 C20.9094478,175 19,173.055637 19,170.657143 L19,166.342857 C19,163.944363 20.9094478,162 23.2648709,162 Z" id="Rectangle-path" fill="#6C63FF" fill-rule="nonzero"></path>
                <path d="M19,133.052566 C19,133.052566 27.1040409,132.131544 37,138" id="Shape" stroke="#535461" opacity="0.6"></path>
                <path d="M37,143 C37,143 41.4482894,135.44441 51,134" id="Shape" stroke="#535461" opacity="0.6"></path>
                <path d="M20,150.617569 C20,150.617569 31.6483087,148.542403 37,152" id="Shape" stroke="#535461" opacity="0.6"></path>
                <path d="M36,156 C36,156 42.117306,154.023287 49,155.628205" id="Shape" stroke="#535461" opacity="0.6"></path>
                <g id="Group" opacity="0.7" transform="translate(229.000000, 149.000000)" fill="url(#linearGradient-2)" fill-rule="nonzero">
                    <path d="M23.0020192,4.80301075 L23.0020192,0.218064516 L0.136634615,0.218064516 L0.136634615,21.4150538 C0.136634615,23.8854888 2.13413342,25.888172 4.59817308,25.888172 L18.5404808,25.888172 C21.0045204,25.888172 23.0020192,23.8854888 23.0020192,21.4150538 L23.0020192,16.7182796 C25.124967,16.7182797 27.0866517,15.582761 28.1481257,13.7394625 C29.2095996,11.8961639 29.2095996,9.62512641 28.1481257,7.78182785 C27.0866517,5.9385293 25.124967,4.80301063 23.0020192,4.80301075 Z M23.0020192,14.4286022 L23.0020192,7.09548387 C24.3326414,7.05864233 25.578219,7.749315 26.2543644,8.89890911 C26.9305099,10.0485032 26.9305099,11.4755828 26.2543644,12.6251769 C25.578219,13.774771 24.3326414,14.4654437 23.0020192,14.4286022 Z" id="Shape"></path>
                </g>
                <path d="M251.5,155 C248.462434,155 246,157.462434 246,160.5 C246,163.537566 248.462434,166 251.5,166 C254.537566,166 257,163.537566 257,160.5 C257,159.041309 256.420537,157.642363 255.389087,156.610913 C254.357637,155.579463 252.958691,155 251.5,155 Z M251.5,163.883094 C249.626886,163.883094 248.108428,162.364635 248.108428,160.491521 C248.108428,158.618407 249.626886,157.099949 251.5,157.099949 C253.373114,157.099949 254.891572,158.618407 254.891572,160.491521 C254.892322,161.391512 254.535328,162.254898 253.899204,162.891552 C253.263079,163.528207 252.399991,163.88592 251.5,163.88592 L251.5,163.883094 Z" id="Shape" fill="#6C63FF" fill-rule="nonzero"></path>
                <path d="M251.5,155 C248.462434,155 246,157.462434 246,160.5 C246,163.537566 248.462434,166 251.5,166 C254.537566,166 257,163.537566 257,160.5 C257,159.041309 256.420537,157.642363 255.389087,156.610913 C254.357637,155.579463 252.958691,155 251.5,155 Z M251.5,163.883094 C249.626886,163.883094 248.108428,162.364635 248.108428,160.491521 C248.108428,158.618407 249.626886,157.099949 251.5,157.099949 C253.373114,157.099949 254.891572,158.618407 254.891572,160.491521 C254.892322,161.391512 254.535328,162.254898 253.899204,162.891552 C253.263079,163.528207 252.399991,163.88592 251.5,163.88592 L251.5,163.883094 Z" id="Shape" fill="#000000" fill-rule="nonzero" opacity="0.1"></path>
                <path d="M231,151 L252,151 L252,172.208304 C252,173.750115 250.775124,175 249.264164,175 L233.741448,175 C232.230488,175 231.005612,173.750115 231.005612,172.208304 L231.005612,151 L231,151 Z" id="Shape" fill="#6C63FF" fill-rule="nonzero"></path>
                <rect id="Rectangle-path" fill="#E0E0E0" fill-rule="nonzero" x="0" y="174" width="274" height="9"></rect>
                <g id="Group" opacity="0.7" transform="translate(87.000000, 0.000000)" fill="url(#linearGradient-3)" fill-rule="nonzero">
                    <path d="M92.2607082,112.261276 C89.3411898,101.555291 72.786034,93.7361538 60.3311048,92.0023452 C60.3311048,91.9230206 60.3311048,91.8436961 60.3311048,91.7643715 L60.3311048,82.6023827 L60.3703683,82.6023827 L60.3703683,82.2425891 C69.3259911,78.8770163 76.2540424,71.5412041 79.1607365,62.3462852 C79.9306296,60.9398734 80.6007271,59.4800325 81.1659773,57.9777674 C82.4953258,57.4876548 83.4993484,55.2750657 83.4993484,52.6120263 C83.5042552,51.7012193 83.3776541,50.7945571 83.1235411,49.9206567 C83.286867,48.5651231 83.3702154,47.2009747 83.3731445,45.8354409 C83.3831919,36.1821669 79.3362248,26.9783331 72.2391501,20.5139024 C72.3438675,19.9653653 72.3796742,19.4056761 72.3457224,18.8480863 C72.0652691,14.4484053 67.4125496,11.4595685 63.0543059,11.261257 C65.4049391,8.56754686 66.008758,4.74679629 64.6052125,1.44767355 C61.8259207,5.53855535 56.1186969,5.98050657 51.2079603,6.00600375 C53.328187,5.17592871 54.2929462,2.2097561 53.0477337,0.280469043 C47.9154391,7.22986867 37.9032578,8.51889306 31.8005949,14.6127205 C30.4703199,15.9463113 29.3555067,17.4825615 28.4968555,19.1653846 C20.4589105,25.6337034 15.779537,35.4515244 15.7867139,45.8326079 C15.7892405,47.1857403 15.8707132,48.5375463 16.0307082,49.8809944 C15.7689822,50.7660856 15.6385568,51.6854731 15.6436827,52.6091932 C15.6436827,55.2835647 16.656119,57.5046529 17.9966856,57.9919325 C18.5640482,59.4992664 19.2369688,60.9638662 20.0103399,62.3746154 C22.905826,71.5172364 29.7792829,78.8215549 38.6716997,82.2057598 L38.6716997,91.7813696 C38.6716997,91.8550281 38.6716997,91.9286867 38.6716997,92.0023452 C26.1690935,93.7021576 9.48212465,101.586454 6.58784703,112.37743 C4.0890085,121.698068 1.42189802,131.925272 0.0925495751,137.942608 C11.4705382,146.01955 35.3427195,150.759193 50.2936827,150.759193 C64.5098584,150.759193 87.7426062,146.478499 98.7868555,139.126811 C97.62017,132.508874 94.8689235,121.819887 92.2607082,112.261276 Z" id="Shape"></path>
                </g>
                <path d="M137.835557,147 C151.662543,147 174.257931,142.873547 185,135.781825 C183.837855,129.415135 181.160113,119.108914 178.623752,109.887409 C175.394628,98.1424525 155.004772,90 142.843245,90 L131.122824,90 C118.921711,90 98.5064063,98.1877671 95.3168684,109.983703 C92.8851286,118.97297 90.2922153,128.843039 89,134.637633 C100.055934,142.428898 123.284704,147 137.835557,147 Z" id="Shape" fill="#6C63FF" fill-rule="nonzero"></path>
                <circle id="Oval" fill="#72351C" fill-rule="nonzero" cx="137.5" cy="46.5" r="32.5"></circle>
                <path d="M127,74 L148,74 L148,90.6149556 C148,96.3504572 143.29899,101 137.5,101 C131.70101,101 127,96.3504572 127,90.6149556 L127,74 Z" id="Shape" fill="#000000" fill-rule="nonzero" opacity="0.1"></path>
                <path d="M130.014098,73.0000013 L144.988722,73.0000013 C146.651805,73.0000013 148,74.3334362 148,75.9783114 L148,89.6149561 C148,95.3504575 143.29899,100 137.5,100 C131.70101,100 127,95.3504575 127,89.6149561 L127,75.9783114 C127,75.1879311 127.317645,74.4299633 127.88298,73.8713416 C128.448314,73.3127199 129.214969,72.9992613 130.014098,73.0000013 Z" id="Shape" fill="#FDA57D" fill-rule="nonzero"></path>
                <path d="M127,82.8430813 C133.767895,85.6958153 141.21795,85.7195078 148,82.9098651 L148,80 L127,80 L127,82.8430813 Z" id="Shape" fill="#000000" fill-rule="nonzero" opacity="0.1"></path>
                <circle id="Oval" fill="#FDA57D" fill-rule="nonzero" cx="137" cy="53" r="30"></circle>
                <path d="M116,25.5599346 C116,25.5599346 128.827225,51.2721591 165,36.3353051 L156.591041,23.293362 L141.65445,18 L116,25.5599346 Z" id="Shape" fill="#000000" fill-rule="nonzero" opacity="0.1"></path>
                <path d="M116,25.5618245 C116,25.5618245 128.827225,51.2709018 165,36.335876 L156.591041,23.2927141 L141.65445,18 L116,25.5618245 Z" id="Shape" fill="#72351C" fill-rule="nonzero"></path>
                <path d="M115.641338,23.7021352 C116.51064,21.0632417 118.012932,18.6675056 120.022012,16.7161832 C126.038635,10.8823794 135.900165,9.65154799 140.959858,3 C142.174643,4.84624716 141.246364,7.68446578 139.146276,8.4769189 C143.985359,8.44600761 149.609469,8.03011023 152.348464,4.11561663 C153.730561,7.27224773 153.134929,10.9273926 150.818523,13.504219 C155.116111,13.695307 159.700204,16.5560066 159.98671,20.7627524 C160.172938,23.5728698 158.379412,26.2228106 156.030064,27.8301977 C153.680716,29.4375849 150.838579,30.1766458 148.039417,30.7808211 C139.862541,32.551195 110.298005,39.9530444 115.641338,23.7021352 Z" id="Shape" fill="#72351C" fill-rule="nonzero"></path>
                <path d="M167,53.0056294 L166.201761,53.0056294 L150.72605,66.7977087 C135.829344,59.8031542 124.867616,66.7977087 124.867616,66.7977087 L108.635827,53.5685714 L107,53.7740453 C107.448229,70.1931321 120.979065,83.2090447 137.379522,82.9974565 C153.779978,82.7858683 166.97149,69.4252011 166.997189,53 L167,53.0056294 Z M136.948002,72.094993 C131.110179,72.094993 126.379772,70.9100001 126.379772,69.4491656 C126.379772,67.988331 131.11299,66.8033381 136.948002,66.8033381 C142.783014,66.8033381 147.516232,67.988331 147.516232,69.4491656 C147.516232,70.9100001 142.785825,72.094993 136.948002,72.094993 Z" id="Shape" fill="#72351C" fill-rule="nonzero"></path>
                <ellipse id="Oval" fill="#FDA57D" fill-rule="nonzero" cx="107.5" cy="53.5" rx="2.5" ry="5.5"></ellipse>
                <ellipse id="Oval" fill="#FDA57D" fill-rule="nonzero" cx="167.5" cy="53.5" rx="2.5" ry="5.5"></ellipse>
                <g id="Group" opacity="0.7" transform="translate(79.000000, 107.000000)" fill="url(#linearGradient-4)" fill-rule="nonzero">
                    <path d="M4.14304348,0.19916318 L112.698696,0.19916318 C114.961863,0.19916318 116.796522,2.04622275 116.796522,4.32468619 L116.796522,63.7578243 C116.796522,66.0362877 114.961863,67.8833473 112.698696,67.8833473 L4.14304348,67.8833473 C1.87987662,67.8833473 0.0452173913,66.0362877 0.0452173913,63.7578243 L0.0452173913,4.32468619 C0.0452173913,2.04622275 1.87987662,0.19916318 4.14304348,0.19916318 Z" id="Rectangle-path"></path>
                </g>
                <path d="M88.5499297,108 L185.45007,108 C189.619781,108 193,111.396577 193,115.586467 L193,166.413533 C193,170.603423 189.619781,174 185.45007,174 L88.5499297,174 C84.3802187,174 81,170.603423 81,166.413533 L81,115.586467 C81,111.396577 84.3802187,108 88.5499297,108 Z" id="Rectangle-path" fill="#535461" fill-rule="nonzero"></path>
                <circle id="Oval" fill="#FFFFFF" fill-rule="nonzero" cx="136.5" cy="140.5" r="3.5"></circle>
                <rect id="Rectangle-path" fill="#E0E0E0" fill-rule="nonzero" x="11" y="183" width="250" height="4"></rect>
                <rect id="Rectangle-path" fill="#000000" fill-rule="nonzero" opacity="0.1" x="11" y="183" width="250" height="1"></rect>
                <path d="M247.96647,151 L247.96647,170.821978 C247.96647,173.129436 246.190621,175 244,175 L246.03353,175 C248.224151,175 250,173.129436 250,170.821978 L250,151 L247.96647,151 Z" id="Shape" fill="#000000" fill-rule="nonzero" opacity="0.1"></path>
                <path d="M235.020541,134.556237 C234.663137,134.620574 234.257512,134.720004 234.081647,135.047537 C233.797993,135.56808 234.30857,136.155885 234.768089,136.509737 C235.61905,137.170652 236.515396,137.819869 237.09405,138.741055 C237.672703,139.662242 237.854242,140.948978 237.221694,141.835072 C236.396261,142.99021 234.427704,143.23586 234.237657,144.657119 C234.115685,145.569532 234.878714,146.347423 235.655925,146.80363 C237.567751,147.932448 240.032702,148.233662 241.419769,150 C241.987076,148.786374 243.274864,148.084517 244.53996,147.783304 C245.805056,147.482091 247.143901,147.505486 248.440199,147.303702 C248.85717,147.239365 249.328035,147.107767 249.515246,146.718822 C249.878323,145.961402 248.845824,145.051913 249.200391,144.291569 C249.484044,143.706689 250.266929,143.756403 250.848419,143.525376 C251.795822,143.148128 252.184428,141.890636 251.917793,140.893415 C251.651159,139.896194 250.890967,139.094908 250.091063,138.448615 C247.940968,136.693975 245.354046,135.682132 242.735922,134.939334 C241.519048,134.597179 240.089433,134.062014 238.827174,134.00645 C237.621645,133.945037 236.228906,134.336907 235.020541,134.556237 Z" id="Shape" fill="#EEEEEE" fill-rule="nonzero"></path>
            </g>
        </g>
    </g>
</svg>