<?xml version="1.0" encoding="UTF-8"?>
<svg width="448px" height="318px" viewBox="0 0 448 318" version="1.1" xmlns="http://www.w3.org/2000/svg" xmlns:xlink="http://www.w3.org/1999/xlink">
    <!-- Generator: Sketch 51.2 (57519) - http://www.bohemiancoding.com/sketch -->
    <title>pic_platform</title>
    <desc>Created with Sketch.</desc>
    <defs>
        <linearGradient x1="50%" y1="100%" x2="50%" y2="1.47409601e-06%" id="linearGradient-1">
            <stop stop-color="#808080" stop-opacity="0.25" offset="0%"></stop>
            <stop stop-color="#808080" stop-opacity="0.12" offset="54%"></stop>
            <stop stop-color="#808080" stop-opacity="0.1" offset="100%"></stop>
        </linearGradient>
        <linearGradient x1="49.9999942%" y1="100.007692%" x2="49.9999942%" y2="0.00769230769%" id="linearGradient-2">
            <stop stop-color="#808080" stop-opacity="0.25" offset="0%"></stop>
            <stop stop-color="#808080" stop-opacity="0.12" offset="54%"></stop>
            <stop stop-color="#808080" stop-opacity="0.1" offset="100%"></stop>
        </linearGradient>
        <linearGradient x1="50.0149527%" y1="99.9949563%" x2="50.0149527%" y2="0.00359698464%" id="linearGradient-3">
            <stop stop-color="#808080" stop-opacity="0.25" offset="0%"></stop>
            <stop stop-color="#808080" stop-opacity="0.12" offset="54%"></stop>
            <stop stop-color="#808080" stop-opacity="0.1" offset="100%"></stop>
        </linearGradient>
    </defs>
    <g id="Page-1" stroke="none" stroke-width="1" fill="none" fill-rule="evenodd">
        <g id="Artboard" transform="translate(-283.000000, -2058.000000)" fill-rule="nonzero">
            <g id="全平台" transform="translate(283.000000, 2058.000000)">
                <g id="pic_platform">
                    <g id="Group-11">
                        <path d="M55.6259964,234.780608 C53.8002154,238.487924 56.4303052,242.489089 55.5093716,246.317165 C54.3672531,251.147544 47.816158,254.90719 40.7583483,257.306278 C33.7005386,259.705367 25.8183124,261.162532 18.9374506,263.746785 C15.9615081,264.861797 12.8608977,266.918734 14.4091921,268.810633 C14.9440575,269.466759 15.9494434,269.925646 16.9266786,270.356354 C36.9620108,279.115443 61.7307002,283.873367 86.4993896,283.720405 C112.671598,283.555367 138.304919,278.084962 164.45702,278.712911 C198.189731,279.517975 230.812496,290.410481 264.16316,287.270734 C278.323016,285.938354 291.477487,282.138456 305.259318,279.767544 C325.535943,276.277595 346.86219,275.927392 367.858671,274.780177 C383.627145,273.918759 401.639641,271.684709 409.180036,263.287899 C414.625206,257.217722 412.340969,249.199291 404.667864,244.058962 C396.994758,238.918633 384.737092,236.72081 373.408402,237.719089 C367.319785,238.254456 361.267361,239.64319 355.182765,239.091722 C351.647828,238.769696 348.374291,237.811671 345.161077,236.869747 C320.227504,229.543671 294.372998,222.233696 266.680646,221.171013 C221.619246,219.428051 179.891706,234.273418 136.012639,240.693797 C129.176014,241.692076 121.760287,242.460911 115.305709,240.78638 C108.501257,239.019266 104.045386,234.845013 97.236912,233.085949 C94.0196768,232.248684 90.4002873,232.007165 87.219246,231.097443 C78.4804309,228.593696 82.5261041,225.152051 70.4172352,227.474658 C64.0631957,228.686278 57.6649192,230.642582 55.6259964,234.780608 Z" id="Shape" fill="#6E72EE" opacity="0.1"></path>
                        <path d="M421.055655,185.868987 C405.291203,207.492987 410.51921,238.359114 419.607899,262.949772 C422.65623,271.181544 426.118779,279.888304 424.538312,288.844633 C422.607971,299.793494 413.535368,307.997089 404.104847,312.46519 C386.912747,320.608405 366.60395,319.308228 351.225566,309.047696 C337.95447,300.192 328.612424,285.475443 315.08395,277.042405 C292.442657,262.933671 263.049192,269.237316 237.850197,280.009063 C220.022693,287.628987 200.494075,297.442709 183.121005,290.406456 C170.895512,285.455316 162.663411,272.852051 158.332208,259.379316 C156.241005,252.874405 154.777163,245.814 150.610844,240.721975 C148.133573,237.694937 144.860036,235.585671 141.494004,233.822582 C110.773429,217.721316 71.2577379,227.784608 41.4741831,209.81962 C21.3664632,197.687316 8.85141831,174.143241 3.65156194,149.39157 C-1.54829443,124.639899 -0.261400359,98.5115696 1.80969479,72.8300506 C3.28157989,54.5792658 5.61005386,35.0766076 16.5727828,20.7344051 C28.1668941,5.56701266 47.5989946,-0.462911392 64.9760862,1.91605063 C82.3531777,4.29501266 97.9286176,13.9678481 111.561652,25.4802532 C128.608977,39.8747848 144.292998,57.9363797 165.494578,63.3866582 C179.935943,67.1060506 195.278133,64.4734937 210.290557,63.3101772 C235.384991,61.3699747 260.390952,63.6040253 285.244093,66.1278987 C309.035548,68.5430886 332.991885,71.2400506 355.524596,79.1578481 C371.470018,84.7610886 384.109731,95.3516962 399.122154,102.589215 C408.906571,107.306886 419.672244,108.401772 428.88158,114.496101 C440.246463,122.003316 450.517487,135.302962 447.183627,151.263342 C444.034758,166.434759 429.420467,174.39281 421.055655,185.868987 Z" id="Shape" fill="#6E72EE" opacity="0.1"></path>
                        <g id="草" transform="translate(38.606822, 115.124051)">
                            <path d="M27.344278,133.722613 L26.5926699,134.009235 C26.5792177,133.973893 26.5536948,133.905622 26.5169062,133.805346 C26.4559388,133.639164 26.3853167,133.442828 26.3058452,133.217262 C26.0791873,132.573933 25.8267989,131.824785 25.5551215,130.977208 C24.7794851,128.557383 24.0040631,125.832669 23.2804108,122.862129 C20.4698081,111.324811 19.2213035,99.5613922 20.4154398,88.572188 C20.9868963,83.313281 22.1155574,78.3844086 23.8543123,73.8452093 C28.1051291,62.7503003 28.7468584,50.7832543 25.58858,39.6637227 C24.0542055,34.3082479 22.0331489,29.1046454 19.5507206,24.1180817 L20.2706079,23.7590322 C22.7749329,28.7895808 24.8138165,34.0390826 26.3619782,39.4426832 C29.5687901,50.7330853 28.9175056,62.8783176 24.6053027,74.1334483 C22.8925854,78.6046738 21.7793191,83.466317 21.2150329,88.6592385 C20.0324092,99.5424958 21.2715218,111.217423 24.0618247,122.671412 C24.7807658,125.622612 25.5509795,128.329025 26.3209788,130.731264 C26.5902739,131.571409 26.8402172,132.313299 27.0643697,132.949517 C27.1426817,133.171792 27.2121329,133.364873 27.2719183,133.527832 C27.3075814,133.625041 27.3319697,133.690276 27.344278,133.722613 Z" id="Shape" fill="#535461"></path>
                            <path d="M52.1996409,127.811848 C52.1996409,127.811848 42.4916338,126.640481 39.7328546,124.289696 C36.9740754,121.938911 25.1708438,118.36443 24.1413285,121.653114 C23.1118133,124.941797 8.0270018,137.021772 19.0058169,138.096532 C29.984632,139.171291 44.7075045,138.660076 47.7759425,137.138506 C50.8443806,135.616937 52.1996409,127.811848 52.1996409,127.811848 Z" id="Shape" fill="#A8A8A8"></path>
                            <path d="M18.9294075,136.909063 C29.9122442,137.979797 44.615009,137.476633 47.7035548,135.955063 C50.056158,134.795772 51.379246,129.997595 51.8779174,127.771595 L52.2036625,127.811848 C52.2036625,127.811848 50.8845961,135.612911 47.7799641,137.138506 C44.6753321,138.664101 29.9886535,139.151165 19.0058169,138.092506 C15.8368402,137.782557 14.8394973,136.554835 15.0486176,134.872253 C15.4145781,135.938962 16.5687612,136.67962 18.9294075,136.909063 Z" id="Shape" fill="#000000" opacity="0.2"></path>
                            <path d="M40.5693357,29.7148861 C38.5585637,33.4342785 25.9872172,40.5631139 25.9872172,40.5631139 C25.9872172,40.5631139 25.1064991,26.1323544 27.1212926,22.412962 C29.1357736,18.6947925 33.7801802,17.3152119 37.4948652,19.3315825 C41.2095502,21.3479531 42.587838,25.9967164 40.5733573,29.7148861 L40.5693357,29.7148861 Z" id="Shape" fill="#6E72EE"></path>
                            <path d="M43.1189946,69.6701772 C39.499605,71.8599494 25.0622621,71.6828354 25.0622621,71.6828354 C25.0622621,71.6828354 31.5811849,58.7776709 35.1925314,56.5878987 C38.8072698,54.3970131 43.5119935,55.5540226 45.7008259,59.1721519 C47.8896582,62.7902812 46.733733,67.4994182 43.1189946,69.6903038 L43.1189946,69.6701772 Z" id="Shape" fill="#6E72EE"></path>
                            <path d="M38.2448833,100.339063 C35.0517774,103.108481 20.7833393,105.358633 20.7833393,105.358633 C20.7833393,105.358633 25.0300898,91.5356962 28.2191741,88.7662785 C30.2845156,86.973678 33.1484145,86.4201271 35.7320679,87.3141429 C38.3157212,88.2081587 40.2266106,90.413919 40.7449224,93.1005353 C41.2632343,95.7871516 40.3102248,98.5464628 38.2448833,100.339063 Z" id="Shape" fill="#6E72EE"></path>
                            <path d="M10.0337522,42.6240759 C13.2831598,45.3290886 27.5958348,47.2773418 27.5958348,47.2773418 C27.5958348,47.2773418 23.0635548,33.5469873 19.8101257,30.846 C16.5607479,28.1426853 11.737191,28.5878277 9.03640963,31.8402534 C6.33562823,35.0926792 6.78035321,39.9207609 10.0297307,42.6240759 L10.0337522,42.6240759 Z" id="Shape" fill="#6E72EE"></path>
                            <path d="M4.78965889,78.5621013 C8.69859964,80.1722278 22.9388869,77.757038 22.9388869,77.757038 C22.9388869,77.757038 14.4936445,66.0151899 10.6007899,64.4090886 C8.07209361,63.3700563 5.18168417,63.7602597 3.01835089,65.4327131 C0.855017621,67.1051665 -0.252577702,69.8057843 0.112785365,72.51727 C0.478148431,75.2287558 2.26096255,77.5391702 4.78965889,78.5782025 L4.78965889,78.5621013 Z" id="Shape" fill="#6E72EE"></path>
                            <path d="M4.48,114.190177 C8.06319569,116.432278 22.5085817,116.452405 22.5085817,116.452405 C22.5085817,116.452405 16.1786715,103.450633 12.5994973,101.224633 C9.0180745,98.9803927 4.29714658,100.067117 2.05500942,103.651899 C-0.187127742,107.236681 0.898577496,111.962038 4.48,114.206278 L4.48,114.190177 Z" id="Shape" fill="#6E72EE"></path>
                            <path d="M26.148079,7.3381519 C26.4738241,11.5566835 19.798061,24.3773165 19.798061,24.3773165 C19.798061,24.3773165 11.2201077,12.7441519 10.8943627,8.52562025 C10.5667596,4.30835992 13.7167459,0.623771091 17.9300539,0.295860759 C22.1433618,-0.032049572 25.8244975,3.12089157 26.1521005,7.3381519 L26.148079,7.3381519 Z" id="Shape" fill="#6E72EE"></path>
                        </g>
                        <g id="草" transform="translate(351.080790, 217.769620)">
                            <path d="M15.5754399,0.00805063291 C15.5754399,0.00805063291 17.4937163,2.5198481 14.6907002,6.3116962 C11.887684,10.1035443 9.57529623,13.3036709 10.5082944,15.670557 C10.5082944,15.670557 14.7389587,8.62625316 18.1854219,8.52964557 C21.6318851,8.43303797 19.3677558,4.24268354 15.5754399,0.00805063291 Z" id="Shape" fill="#6E72EE"></path>
                            <path d="M15.5754399,0.00805063291 C15.747765,0.255477343 15.8832335,0.526668441 15.9775943,0.813113924 C19.339605,4.76597468 21.1291921,8.46121519 17.8998923,8.54574684 C14.8917774,8.63027848 11.2804309,14.0161519 10.4157989,15.3887848 C10.4435181,15.4938949 10.4770833,15.5973727 10.5163375,15.6987342 C10.5163375,15.6987342 14.7470018,8.65443038 18.193465,8.55782278 C21.6399282,8.46121519 19.3677558,4.24268354 15.5754399,0.00805063291 Z" id="Shape" fill="#000000" opacity="0.1"></path>
                            <path d="M19.1425494,3.20817722 C19.1425494,4.09374684 19.0420108,4.8183038 18.9213645,4.8183038 C18.8007181,4.8183038 18.7001795,4.10179747 18.7001795,3.20817722 C18.7001795,2.31455696 18.8248474,2.74124051 18.9454937,2.74124051 C19.06614,2.74124051 19.1425494,2.32260759 19.1425494,3.20817722 Z" id="Shape" fill="#FFD037"></path>
                            <path d="M20.3691203,4.26281013 C19.5929623,4.68546835 18.9173429,4.94308861 18.8610413,4.83440506 C18.8047397,4.72572152 19.383842,4.29501266 20.16,3.87235443 C20.936158,3.4496962 20.6305206,3.75562025 20.6868223,3.87235443 C20.7431239,3.98908861 21.1452783,3.8401519 20.3691203,4.26281013 Z" id="Shape" fill="#FFD037"></path>
                            <path d="M5.44114901,0.00805063291 C5.44114901,0.00805063291 3.52287253,2.5198481 6.32588869,6.3116962 C9.12890485,10.1035443 11.4412926,13.3036709 10.5082944,15.670557 C10.5082944,15.670557 6.27763016,8.62625316 2.83116697,8.52964557 C-0.61529623,8.43303797 1.65285458,4.24268354 5.44114901,0.00805063291 Z" id="Shape" fill="#6E72EE"></path>
                            <path d="M5.44114901,0.00805063291 C5.26882384,0.255477343 5.13335537,0.526668441 5.03899461,0.813113924 C1.67698384,4.76597468 -0.112603232,8.46121519 3.11669659,8.54574684 C6.12481149,8.63027848 9.73615799,14.0161519 10.6007899,15.3887848 C10.5730707,15.4938949 10.5395055,15.5973727 10.5002513,15.6987342 C10.5002513,15.6987342 6.26958707,8.65443038 2.82312388,8.55782278 C-0.623339318,8.46121519 1.65285458,4.24268354 5.44114901,0.00805063291 Z" id="Shape" fill="#000000" opacity="0.1"></path>
                            <path d="M1.8740395,3.20817722 C1.8740395,4.09374684 1.9745781,4.8183038 2.09522442,4.8183038 C2.21587074,4.8183038 2.31640934,4.10179747 2.31640934,3.20817722 C2.31640934,2.31455696 2.19174147,2.74124051 2.07109515,2.74124051 C1.95044883,2.74124051 1.8740395,2.32260759 1.8740395,3.20817722 Z" id="Shape" fill="#FFD037"></path>
                            <path d="M0.651490126,4.26281013 C1.42764811,4.68546835 2.1032675,4.94308861 2.15956912,4.83440506 C2.21587074,4.72572152 1.6367684,4.29501266 0.860610413,3.87235443 C0.0844524237,3.4496962 0.390089767,3.75562025 0.333788151,3.87235443 C0.277486535,3.98908861 -0.124667864,3.8401519 0.651490126,4.26281013 Z" id="Shape" fill="#FFD037"></path>
                            <path d="M23.6466786,16.2421519 C23.6466786,16.2421519 18.3704129,15.187519 16.9628725,13.7786582 C15.5553321,12.3697975 9.22140036,9.9063038 8.51763016,11.6653671 C7.81385996,13.4244304 -0.981256732,19.4141013 4.99877917,20.4687342 C10.9788151,21.5233671 19.0741831,21.8775949 20.8315978,21.1731646 C22.5890126,20.4687342 23.6466786,16.2421519 23.6466786,16.2421519 Z" id="Shape" fill="#A8A8A8"></path>
                            <path d="M4.99877917,19.8126076 C10.9788151,20.8672405 19.0741831,21.2214684 20.8315978,20.517038 C22.170772,19.9816709 23.1037702,17.4054684 23.4697307,16.2059241 L23.6466786,16.2421519 C23.6466786,16.2421519 22.5930341,20.4687342 20.8315978,21.1731646 C19.0701616,21.8775949 10.9788151,21.5233671 4.99877917,20.4687342 C3.2735368,20.1628101 2.77888689,19.4463038 2.96387792,18.5406076 C3.11267504,19.1283038 3.71590664,19.5871899 4.99877917,19.8126076 Z" id="Shape" fill="#000000" opacity="0.2"></path>
                        </g>
                        <g id="花" transform="translate(287.540395, 0.000000)">
                            <path d="M0.191528218,110.91488 C0.368412044,110.635373 0.462972858,110.485394 0.571510776,110.312761 C0.881748821,109.819317 1.24168303,109.243435 1.64717086,108.590572 C2.80592149,106.724903 4.09718969,104.616766 5.48783201,102.30982 C9.4610822,95.7185655 13.4343039,88.8556949 17.1422472,82.0707457 C18.8722371,78.9051381 20.5061979,75.8248921 22.0284596,72.850685 C28.3971106,60.4075637 32.5176868,50.4175733 33.7068993,43.8046397 C34.7745777,37.8675288 36.1823334,31.719621 37.8477474,25.4988575 C39.2328277,20.3252153 40.7167747,15.3917927 42.2008101,10.8644427 C42.7203167,9.27958286 43.2027816,7.85853805 43.6358582,6.62205542 C43.7875225,6.18903675 43.9222078,5.80994539 44.0383707,5.48737528 C44.1082013,5.29346433 44.1564217,5.16126575 44.1814887,5.09337374 L44.935926,5.37244904 C44.9115984,5.43833843 44.8641168,5.56851133 44.795025,5.76037066 C44.6796507,6.08075101 44.5457527,6.45762631 44.394875,6.88839919 C43.9635459,8.11989242 43.4828158,9.53582746 42.9650355,11.115421 C41.485394,15.6293666 40.0056642,20.5487689 38.6246461,25.7072382 C36.9647259,31.9074806 35.5619048,38.0338383 34.4984867,43.9472591 C33.2910896,50.6613126 29.1474345,60.7072557 22.7442985,73.2177541 C21.2185766,76.1987218 19.5812313,79.2853482 17.847885,82.4570973 C14.1339811,89.2529534 10.1552236,96.125386 6.17649455,102.725729 C4.78394414,105.035841 3.4908191,107.14701 2.33024247,109.015618 C1.92396574,109.669752 1.56325184,110.246881 1.25224151,110.741554 C1.1433425,110.914761 1.04842256,111.065309 0.967999299,111.192515 C0.93578732,111.243465 0.676963626,111.15092 0.191528218,110.91488 Z" id="Shape" fill="#535461"></path>
                            <path d="M51.3953321,45.4860759 L32.4940754,47.0962025 C32.4940754,47.0962025 42.5479354,64.4050633 51.3953321,45.4860759 Z" id="Path" fill="#6E72EE"></path>
                            <path d="M18.4186715,35.0202532 L33.3868582,47.0197215 C33.3868582,47.0197215 13.9949731,54.7443038 18.4186715,35.0202532 Z" id="Path" fill="#6E72EE"></path>
                            <path d="M53.8082585,28.9822785 L36.7890844,31.2646329 C36.7890844,31.2646329 51.7974865,43.4734177 53.8082585,28.9822785 Z" id="Shape" fill="#6E72EE"></path>
                            <path d="M25.6574506,22.9443038 L36.8936445,30.8379494 C36.8936445,30.8379494 23.2445242,36.6303797 25.6574506,22.9443038 Z" id="Shape" fill="#6E72EE"></path>
                            <path d="M41.0639856,15.7752152 C41.0639856,15.7752152 55.0147217,12.0759494 57.0254937,12.8810127 C59.0362657,13.6860759 57.8298025,22.5417722 52.1996409,22.9443038 C46.5694794,23.3468354 41.0639856,15.7752152 41.0639856,15.7752152 Z" id="Shape" fill="#6E72EE"></path>
                            <path d="M31.6897666,5.23291139 C31.6897666,5.23291139 40.5371634,13.6860759 40.9393178,15.6987342 C41.3414722,17.7113924 33.7005386,22.5417722 29.6789946,15.6987342 C25.6574506,8.8556962 31.6897666,5.23291139 31.6897666,5.23291139 Z" id="Shape" fill="#6E72EE"></path>
                            <ellipse id="Oval" fill="#FFD037" cx="48.1780969" cy="6.03797468" rx="4.02154399" ry="4.02531646"></ellipse>
                            <ellipse id="Oval" fill="#FFD037" cx="40.9393178" cy="4.02531646" rx="4.02154399" ry="4.02531646"></ellipse>
                        </g>
                    </g>
                    <g id="Group-12" transform="translate(73.000000, 33.000000)">
                        <path d="M272.663475,0.188862385 L10.5773759,0.188862385 C4.91900958,0.184421158 0.327782094,4.77141738 0.321134752,10.4356514 L0.321134752,163.333817 C0.327782094,168.998051 4.91900958,173.585047 10.5773759,173.580606 L116.118312,173.580606 L116.118312,211.260661 L106.18722,211.260661 C104.836433,211.260659 103.740782,212.355648 103.738567,213.707835 L103.738567,218.787028 L180.762738,218.787028 L180.762738,213.699798 C180.760523,212.347611 179.664872,211.252622 178.314085,211.252624 L165.633277,211.252624 L165.633277,173.56855 L272.663475,173.56855 C278.317148,173.573 282.906431,168.99334 282.919716,163.333817 L282.919716,10.4356514 C282.913069,4.77141738 278.321841,0.184421158 272.663475,0.188862385 Z" id="Shape" fill="url(#linearGradient-1)"></path>
                        <rect id="Rectangle-path" fill="#474059" x="116.764596" y="166.431963" width="48.6800142" height="47.0227156"></rect>
                        <rect id="Rectangle-path" fill="#000000" opacity="0.1" x="116.764596" y="209.283633" width="48.6800142" height="4.17104587"></rect>
                        <path d="M107.002099,209.757798 L177.912667,209.757798 C179.24285,209.757798 180.321177,210.837244 180.321177,212.168807 L180.321177,217.183706 L104.593589,217.183706 L104.593589,212.168807 C104.593589,210.837244 105.671916,209.757798 107.002099,209.757798 Z" id="Shape" fill="#474059"></path>
                        <path d="M12.9183121,1.79620183 L270.760085,1.79620183 C276.282933,1.79620183 280.760085,6.27335434 280.760085,11.7962018 L280.760085,162.616202 C280.760085,168.139049 276.282933,172.616202 270.760085,172.616202 L12.9183121,172.616202 C7.39546456,172.616202 2.91831206,168.139049 2.91831206,162.616202 L2.91831206,11.7962018 C2.91831206,6.27335434 7.39546456,1.79620183 12.9183121,1.79620183 Z" id="Rectangle-path" fill="#535461"></path>
                        <rect id="Rectangle-path" fill="#FFFFFF" x="8.76697872" y="21.7473028" width="265.558369" height="139.549211"></rect>
                        <g id="Group-13" transform="translate(30.507801, 43.800000)">
                            <path d="M125.539603,12.9471193 C109.744238,26.0438499 102.470288,46.8051192 106.633417,66.9090538 C110.796545,87.0129883 125.715345,103.169037 145.409816,108.901266 L160.888511,55.6420734 L125.539603,12.9471193 Z" id="Shape" fill="#D6D6E3"></path>
                            <path d="M162.092766,0.188862385 C149.181409,0.169729201 136.672344,4.68454684 126.743858,12.9471193 L162.092766,55.6420734 L191.364199,8.55908257 C182.585204,3.07420312 172.441297,0.173534141 162.092766,0.188862385 Z" id="Shape" fill="#D6D6E3"></path>
                            <path d="M162.092766,55.6420734 L146.614071,108.897248 C163.187428,113.71448 181.056607,110.529186 194.950031,100.281058 C208.843455,90.0329293 217.17564,73.8914581 217.488511,56.6185321 L162.092766,55.6420734 Z" id="Shape" fill="#8499F0"></path>
                            <rect id="Rectangle-path" fill="#8499F0" x="0.321134752" y="28.7191376" width="20.070922" height="12.0550459"></rect>
                            <rect id="Rectangle-path" fill="#FC6681" x="0.321134752" y="49.6145505" width="20.070922" height="12.0550459"></rect>
                            <rect id="Rectangle-path" fill="#6E72EE" x="0.321134752" y="70.5099633" width="20.070922" height="12.0550459"></rect>
                            <rect id="Rectangle-path" fill="#D6D6E3" x="31.2303546" y="32.3356514" width="37.7333333" height="4.82201835"></rect>
                            <rect id="Rectangle-path" fill="#D6D6E3" x="31.2303546" y="53.2310642" width="37.7333333" height="4.82201835"></rect>
                            <rect id="Rectangle-path" fill="#D6D6E3" x="31.2303546" y="74.1264771" width="37.7333333" height="4.82201835"></rect>
                            <path d="M231.136738,91.2084771 C231.1467,70.3820568 220.408095,51.0282604 202.740397,40.030789 L170.923972,91.2084771 L231.136745,92.2693211 C231.136738,91.9197248 231.136738,91.5661101 231.136738,91.2084771 Z" id="Shape" fill="url(#linearGradient-2)"></path>
                            <path d="M228.728227,89.2073394 C228.737202,70.0472919 218.857859,52.2420754 202.603915,42.1243486 L173.332482,89.2073394 L228.728233,90.1998716 C228.728227,89.8583119 228.728227,89.5328257 228.728227,89.2073394 Z" id="Shape" fill="#6E72EE"></path>
                        </g>
                        <ellipse id="Oval" fill="#FFFFFF" cx="141.54817" cy="14.5383853" rx="2.3402695" ry="2.31456881"></ellipse>
                        <rect id="Rectangle-path" fill="#000000" opacity="0.1" x="116.868965" y="172.732734" width="48.5274752" height="1"></rect>
                        <rect id="Rectangle-path" fill="#D6D6E3" x="8.75092199" y="21.4861101" width="265.739007" height="4.82201835"></rect>
                        <ellipse id="Oval" fill="#FC6681" cx="11.9622695" cy="23.8971193" rx="1.20425532" ry="1.20550459"></ellipse>
                        <ellipse id="Oval" fill="#FFC74C" cx="15.173617" cy="23.8971193" rx="1.20425532" ry="1.20550459"></ellipse>
                        <ellipse id="Oval" fill="#85D459" cx="18.3849645" cy="23.8971193" rx="1.20425532" ry="1.20550459"></ellipse>
                    </g>
                    <g id="iPhone" transform="translate(95.000000, 129.000000)">
                        <path d="M54.4,128 L9.6,128 C4.2980664,128 0,123.701934 0,118.4 L1.13686838e-14,9.6 C1.13686838e-14,4.2980664 4.2980664,0 9.6,0 L54.4,0 C59.7019336,0 64,4.2980664 64,9.6 L64,118.4 C64,123.701934 59.7019336,128 54.4,128 Z" id="Rectangle-path" fill="#535461"></path>
                        <rect id="Rectangle-path" fill="#6E72EE" transform="translate(32.200000, 64.000000) rotate(-180.000000) translate(-32.200000, -64.000000) " x="4.8" y="12" width="54.8" height="104"></rect>
                        <path d="M36.0700423,54.8813535 C36.9778501,53.7180718 37.6671732,52.0773554 37.4172168,50.3993702 C35.9342578,50.5020331 34.2000278,51.4428592 33.1873658,52.6694516 C32.268539,53.7834659 31.5097771,55.4347533 31.804892,57.04067 C33.4237515,57.0905547 35.0985178,56.1257316 36.0700423,54.8813535 M44.0876712,70.6498158 C43.438403,72.0860551 43.1268177,72.727303 42.2902658,73.9966813 C41.1232997,75.7703463 39.47784,77.9769627 37.4391387,77.9966002 C35.6272347,78.012997 35.1625051,76.8195453 32.7038073,76.834013 C30.2450709,76.846976 29.7320512,78.0168936 27.9197219,78.0004583 C25.8812912,77.9821325 24.321934,75.9884038 23.154504,74.2161276 C19.8900301,69.2585229 19.5488676,63.4405326 21.5622059,60.3477589 C22.9928925,58.1497074 25.2498467,56.8632765 27.3722534,56.8632765 C29.5334392,56.8632765 30.891942,58.0454241 32.6782511,58.0454241 C34.4111665,58.0454241 35.4671311,56.8613475 37.9654198,56.8613475 C39.8539153,56.8613475 41.8542242,57.8874752 43.2806966,59.6606773 C38.6088112,62.2148276 39.3678824,68.8695535 44.0876712,70.6498158" id="Fill-1" stroke="#FFFFFF" fill="#FFFFFF"></path>
                        <ellipse id="Oval" fill="#FFFFFF" cx="38.4" cy="5.8" rx="1" ry="1"></ellipse>
                        <rect id="Rectangle-path" fill="#FFFFFF" transform="translate(30.600000, 5.800000) rotate(180.000000) translate(-30.600000, -5.800000) " x="25.2" y="5.2" width="10.8" height="1.2" rx="0.6"></rect>
                        <ellipse id="Oval" fill="#FFFFFF" cx="32.2" cy="120.8" rx="3.4" ry="3.6"></ellipse>
                    </g>
                    <g id="Samsung" transform="translate(179.000000, 124.000000)">
                        <rect id="Rectangle-path" fill="#535461" x="0" y="19.3432836" width="1.19230769" height="19.3432836"></rect>
                        <rect id="Rectangle-path" fill="#535461" x="0" y="45.5373134" width="1.19230769" height="10.880597"></rect>
                        <path d="M9.94649573,0 L52.8483761,0 C57.9026784,-9.42228751e-16 62,4.16198453 62,9.29605263 L62,125.703947 C62,130.838015 57.9026784,135 52.8483761,135 L9.94649573,135 C4.89219339,135 0.794871795,130.838015 0.794871795,125.703947 L0.794871795,9.29605263 C0.794871795,4.16198453 4.89219339,5.14938969e-15 9.94649573,0 Z" id="Rectangle-path" fill="#535461"></path>
                        <path d="M9.94649573,6.44776119 L52.8483761,6.44776119 C57.9026784,6.44776119 62,10.5944104 62,15.7095613 L62,119.693424 C62,124.808575 57.9026784,128.955224 52.8483761,128.955224 L9.94649573,128.955224 C4.89219339,128.955224 0.794871795,124.808575 0.794871795,119.693424 L0.794871795,15.7095613 C0.794871795,10.5944104 4.89219339,6.44776119 9.94649573,6.44776119 Z" id="Rectangle-path" fill="#6E72EE"></path>
                        <rect id="Rectangle-path" fill="#EAEAF3" x="26.6282051" y="3.2238806" width="10.3333333" height="1.20895522" rx="0.604477612"></rect>
                        <ellipse id="Oval" fill="#EAEAF3" cx="40.7371795" cy="3.82835821" rx="1" ry="1.00746269"></ellipse>
                        <path d="M22.6493136,63.4344708 L22.6493136,72.1481789 C22.6552871,72.7000718 22.443419,73.231352 22.0611414,73.6230785 C21.6788638,74.0148049 21.1581073,74.2342578 20.615457,74.2323069 C19.4841023,74.2323069 18.3856085,73.3000595 18.3856085,72.1481789 L18.3856085,63.4344708 C18.3856085,62.2981077 19.4805815,61.3658603 20.615457,61.3658603 C21.7368548,61.3704396 22.6448112,62.293911 22.6493136,63.4344708 Z M23.4485383,75.2445294 C23.4472884,75.8353361 23.6774891,76.4023109 24.0882348,76.8200753 C24.4989805,77.2378397 25.0564298,77.471974 25.6373106,77.4707028 L27.1090107,77.4707028 L27.1313091,82.0674822 C27.1313091,84.8427386 31.2142791,84.8212527 31.2142791,82.0674822 L31.2142791,77.4718964 L33.965208,77.4718964 L33.965208,82.0686759 C33.965208,84.8296083 38.0728237,84.8367703 38.0728237,82.0686759 L38.0728237,77.4718964 L39.5668222,77.4718964 C40.1454541,77.47 40.6996458,77.2343913 41.1074797,76.8169022 C41.5153137,76.399413 41.7433819,75.8342424 41.7415114,75.2457231 L41.7415228,61.7454438 L23.4485332,61.7454438 L23.4485383,75.2445294 Z M41.7908027,61.0196993 L23.3652123,61.0196993 C23.3652123,57.796821 25.2582364,55.0012724 28.0690191,53.5426216 L26.6606937,50.8867311 C26.4541393,50.5178906 26.9787406,50.2899018 27.1559548,50.6014467 L28.5912731,53.2800167 C31.1444033,52.1439638 34.0479935,52.1439638 36.6011237,53.2800167 L38.0282268,50.6098023 C38.2136563,50.2863208 38.7323895,50.5274398 38.5234879,50.8950867 L37.1151625,53.5426216 C39.8977787,55.0012724 41.7908027,57.800402 41.7908027,61.0196993 Z M29.1651657,56.8418941 C29.1651657,56.4054775 28.817324,56.051692 28.3882395,56.051692 C27.9712164,56.0681864 27.6415038,56.4168276 27.6415038,56.8412972 C27.6415038,57.2657669 27.9712164,57.6144081 28.3882395,57.6309024 C28.8159528,57.6309069 29.1632274,57.2792988 29.1651657,56.8442814 L29.1651657,56.8418941 Z M37.552917,56.8418941 C37.5463984,56.412298 37.198838,56.0693441 36.7764557,56.0757239 C36.3540734,56.0821037 36.016679,56.4354034 36.0227057,56.8650069 C36.0287324,57.2946103 36.3759,57.6379757 36.7982893,57.6320961 C37.2188048,57.6223459 37.5543047,57.2720914 37.552917,56.8442814 L37.552917,56.8418941 Z M44.5640301,61.363473 C44.0241398,61.3618818 43.5059109,61.5793131 43.1241491,61.9675983 C42.7423874,62.3558834 42.5286091,62.8829676 42.5301736,63.4320835 L42.5301736,72.1457916 C42.5279907,72.696528 42.7410832,73.2255722 43.1225398,73.6164573 C43.5039963,74.0073424 44.0225452,74.2280238 44.5640301,74.2299196 C45.7036001,74.2299196 46.7938787,73.2976722 46.7938787,72.1457916 L46.7938787,63.4320835 C46.7903578,62.2766219 45.6953849,61.3658603 44.5640301,61.3658603 L44.5640301,61.363473 Z" id="Shape" fill="#FFFFFF"></path>
                    </g>
                    <g id="ren" transform="translate(320.000000, 64.000000)">
                        <path d="M95.9196653,40.7386032 C95.9196653,40.5828408 95.9049372,40.4337922 95.8754812,40.2914575 C95.8460251,40.1491228 95.8192469,39.9853036 95.7951464,39.8 C95.7362343,39.4777328 95.6706276,39.1662078 95.5983264,38.8654251 C95.5608368,38.7150337 95.5220084,38.5673279 95.481841,38.4223077 C95.0410757,36.7576938 94.247845,35.2078682 93.1561506,33.8783401 L92.967364,33.6608097 C92.8415063,33.5211606 92.7183264,33.3868826 92.5978243,33.2579757 C92.4773222,33.1290688 92.358159,33.0135897 92.2403347,32.9115385 C92.1238494,32.8027733 92.007364,32.7020648 91.8989121,32.609413 C91.6779916,32.4241093 91.4731381,32.2710324 91.2883682,32.1421255 C91.1035983,32.0132186 91.0272803,31.9648785 90.9188285,31.9004251 C90.6550538,31.739537 90.358488,31.6403961 90.0512134,31.6103846 L88.1392469,31.4170243 L85.5524686,31.1592105 L76.2095397,27.4611943 L75.84,27.5941296 C75.5672532,26.8272157 75.3366146,26.0458893 75.1491213,25.253664 C75.4331201,25.1285779 75.6856394,24.941394 75.8882008,24.7058097 C76.108978,24.5294989 76.2828438,24.3011597 76.3943096,24.0411336 C76.6272803,23.489251 76.1774059,22.304919 76.2697908,21.6241296 C76.41841,20.5405061 76.9727197,19.4931377 77.4185774,18.5102227 C78.3785774,16.3993725 79.0774895,14.1112753 78.9650209,11.7949798 C78.8525523,9.47868421 77.8162343,7.1261336 75.8962343,5.83303644 C74.9041004,5.16433198 73.7352301,4.80580972 72.7069456,4.19350202 C71.9035983,3.71815789 71.1966527,3.09779352 70.4294561,2.56202429 C66.619867,-0.0314633756 61.7199101,-0.389272158 57.5758996,1.62342105 C55.6358159,2.59827935 53.9809205,4.0404251 52.1492887,5.22475709 C50.3176569,6.40908907 48.1606695,7.29129555 46.019749,6.94888664 C45.9895792,7.03652929 45.9680536,7.1269283 45.9554812,7.21878543 L45.774728,7.19461538 C45.4051883,8.22184211 46.308954,9.23295547 47.1444351,9.93388664 C48.7270293,11.2632389 50.5184937,12.5885628 52.5830962,12.6369028 C53.3864435,12.6369028 54.2219247,12.4838259 54.948954,12.8181781 C55.1073455,12.8933949 55.2557702,12.9881198 55.390795,13.1001619 C54.4436951,16.9096264 55.673999,20.932066 58.5881172,23.5537045 L53.820251,21.8054049 C53.820251,21.8054049 53.6194142,21.9101417 53.3141423,22.1075304 L46.6905439,17.6159312 C46.6905439,17.6159312 33.4152301,12.6771862 29.7278661,20.3310324 C26.0405021,27.9848785 45.7104603,24.0169636 45.7104603,24.0169636 L49.92,26.3735425 C49.7807254,27.2579633 49.943503,28.1636337 50.3819247,28.9436235 L61.8577406,36.1744939 C59.5400837,36.9036235 55.7282008,38.0678138 55.0533891,38.0678138 C54.0692887,38.0678138 51.3660251,39.0547571 49.6428452,42.998502 C47.9196653,46.942247 41.7740586,66.1775709 36.3675314,69.3801012 C30.9610042,72.5826316 16.685523,94.0375709 16.685523,94.0375709 L16.7497908,94.2067611 C16.4953975,94.2739001 16.2463598,94.3490958 16.0026778,94.4323482 C12.4358159,95.6166802 10.0338075,98.1102227 8.59179916,100.132449 C8.09435844,100.825708 7.99867995,101.73079 8.34011966,102.513242 C8.68155937,103.295694 9.40941701,103.839329 10.254728,103.943259 C15.878159,104.66836 18.9589958,102.025769 20.4371548,100.027713 C20.5335565,99.8988057 20.6219247,99.7698988 20.7062762,99.6490486 C21.145838,99.8413569 21.6406843,99.8643061 22.0960669,99.713502 L28.9887866,94.0496559 C28.9887866,94.0496559 23.61841,99.4476316 26.7594979,104.374291 L26.5184937,104.7167 C21.1791074,112.48703 17.2694414,121.152979 14.9743933,130.304717 C14.9743933,130.304717 12.0220921,132.524332 11.7610042,141.398765 C11.4999163,150.273198 8.54761506,164.577834 8.54761506,164.577834 C8.54761506,164.577834 6.57941423,181.589514 7.80853556,186.76996 C7.80853556,186.76996 7.94912134,186.975405 8.21020921,187.289615 C8.11782427,187.402409 8.01740586,187.519231 7.90493724,187.644109 C6.83246862,188.824413 4.89640167,190.463947 2.64301255,189.97249 C-0.799330544,189.231275 -0.799330544,195.398664 4.11715481,195.890121 C7.2823431,196.20836 13.5082845,197.650506 17.5370711,198.637449 C18.4375092,198.85947 19.389334,198.627293 20.0875097,198.015326 C20.7856854,197.40336 21.1425293,196.488459 21.043682,195.563826 C20.8026778,193.356296 20.3648536,190.681478 19.5695397,188.780101 C19.5213389,188.663279 19.4691213,188.546457 19.4169038,188.433664 C19.5615063,188.2967 19.7061088,188.155709 19.8507113,188.002632 C19.8507113,188.002632 19.8507113,177.154312 21.5698745,174.193482 C21.5698745,174.193482 26.2413389,151.755628 25.9882845,146.083725 C25.7954812,141.652551 38.1067782,124.366943 43.4651046,117.079676 L43.4209205,116.801721 C44.8388285,114.916457 45.7104603,113.788522 45.7104603,113.788522 L49.8918828,140.665607 C49.8918828,140.665607 51.8600837,146.583239 54.3102929,149.789798 C54.3102929,149.789798 64.8823431,170.253765 66.1114644,176.666883 C67.0433473,181.529089 68.9633473,184.401296 69.8389958,185.509089 C69.7385774,185.613826 69.6301255,185.718563 69.5176569,185.8233 C68.4010042,186.870668 66.7461088,187.918036 64.8823431,187.519231 C61.44,186.778016 61.44,192.945405 66.3564854,193.436862 C69.5216736,193.755101 75.7476151,195.197247 79.7764017,196.18419 C80.6768398,196.406211 81.6286645,196.174034 82.3268403,195.562067 C83.025016,194.950101 83.3818599,194.0352 83.2830126,193.110567 C83.0058577,190.544514 82.4555649,187.354069 81.3951464,185.456721 C81.3041004,185.298273 81.2103766,185.149224 81.1139749,185.009575 C81.4894179,184.85553 81.8236913,184.615482 82.0900418,184.308644 C82.0900418,184.308644 75.6994142,168.775364 75.6994142,164.569777 C75.6994142,164.569777 72.9961506,148.541012 63.8982427,142.623381 C63.8982427,142.623381 64.7578243,122.57836 67.3486192,111.423887 C67.412887,111.155331 67.4784937,110.886775 67.5454393,110.618219 C69.9609617,110.233117 72.3553601,109.724888 74.7193305,109.095506 L74.9643515,101.699474 L76.1934728,107.617105 L89.9628452,98.9884008 C89.9628452,98.9884008 89.8423431,97.4334615 89.6093724,95.0486842 C89.492887,93.8401822 89.3482845,92.4584615 89.1755649,90.9397773 C89.0389958,89.7312753 88.8823431,88.4381781 88.7096234,87.1209109 C88.6667782,86.790587 88.6225941,86.4602632 88.5770711,86.1299393 C88.396318,84.800587 88.1994979,83.4551215 87.9866109,82.1418826 C87.9062762,81.6477395 87.8232636,81.1589676 87.7375732,80.6755668 C87.6251046,80.0310324 87.5086192,79.398583 87.3881172,78.7862753 C87.3265272,78.4801215 87.2649372,78.177996 87.2033473,77.8798988 C87.1417573,77.5818016 87.0788285,77.2890756 87.0145607,77.0017206 C86.9502929,76.7143657 86.8846862,76.4337247 86.8177406,76.1597976 L86.7173222,75.7569636 C86.6503766,75.4884076 86.5820921,75.2279082 86.5124686,74.9754656 C86.2247644,73.9237368 86.0576585,72.8425198 86.0143933,71.7527935 C85.9983264,71.3177328 85.9983264,70.8840148 86.0143933,70.4516397 C86.0304603,70.0192645 86.0706276,69.5868893 86.1348954,69.1545142 C86.1643515,68.9396694 86.1991632,68.7248246 86.2393305,68.5099798 C86.3980817,67.6517766 86.6319576,66.8092783 86.9382427,65.9922672 C87.0908787,65.5813765 87.2622594,65.1785425 87.4523849,64.7837652 C87.8982427,63.8532186 88.3762343,62.8421053 88.8662762,61.7786235 C89.112636,61.2415115 89.3616736,60.6976856 89.6133891,60.1471457 C89.8651046,59.5966059 90.1168201,59.0326383 90.3685356,58.4552429 C92.7785774,53.0210121 95.1243515,46.9623887 95.7549791,42.9823887 C95.8232636,42.5795547 95.8674477,42.1767206 95.8955649,41.7980567 C95.9267735,41.4458187 95.9348244,41.0919021 95.9196653,40.7386032 Z" id="Shape" fill="url(#linearGradient-3)"></path>
                        <path d="M54.8405021,25.5678745 L46.7307113,20.0651619 C46.7307113,20.0651619 33.8530544,15.2835223 30.2620921,22.695668 C26.6711297,30.1078138 45.7626778,26.284919 45.7626778,26.284919 L53.8724686,30.8288866 L54.8405021,25.5678745 Z" id="Shape" fill="#F7BBC3"></path>
                        <path d="M78.8284519,193.255587 C74.9161506,192.30087 68.8830126,190.899008 65.8102092,190.592854 C61.0423431,190.113482 61.0423431,184.14751 64.380251,184.85247 C66.1917992,185.255304 67.794477,184.224049 68.8789958,183.208907 C69.2168741,182.89178 69.5335437,182.552665 69.8269456,182.193765 C70.2202633,181.713184 70.7636837,181.379661 71.3693724,181.247105 C73.1568201,180.844271 76.8803347,180.26419 79.1698745,181.500891 C79.6981106,181.830432 80.1249519,182.300337 80.4030126,182.858441 C81.4312971,184.687308 81.965523,187.781073 82.2346444,190.270587 C82.3318513,191.169013 81.9855446,192.058446 81.3070038,192.653082 C80.628463,193.247718 79.7031703,193.472645 78.8284519,193.255587 Z" id="Shape" fill="#B77983"></path>
                        <path d="M18.4970711,195.648421 C14.5847699,194.693704 8.5516318,193.291842 5.47882845,192.985688 C0.710962343,192.506316 0.710962343,186.540344 4.04887029,187.245304 C6.2339749,187.716619 8.11380753,186.133482 9.15414226,184.989433 C9.27866109,184.848441 9.39514644,184.715506 9.49556485,184.586599 C9.88888255,184.106018 10.432303,183.772495 11.0379916,183.639939 C12.8254393,183.237105 16.548954,182.657024 18.8384937,183.893725 C19.5092887,184.256275 20.0435146,185.053887 20.4733054,186.081113 C21.2445188,187.926093 21.6783264,190.512287 21.9032636,192.663421 C22.0004705,193.561847 21.6541638,194.45128 20.975623,195.045916 C20.2970822,195.640552 19.3717895,195.865479 18.4970711,195.648421 Z" id="Shape" fill="#B77983"></path>
                        <path d="M20.465272,186.081113 C14.7695397,191.966518 9.88920502,185.972348 9.15012552,184.981377 C9.27464435,184.840385 9.39112971,184.707449 9.49154812,184.578543 C9.88486581,184.097961 10.4282862,183.764438 11.0339749,183.631883 C12.8214226,183.229049 16.5449372,182.648968 18.834477,183.885668 C19.5012552,184.256275 20.0394979,185.053887 20.465272,186.081113 Z" id="Shape" fill="#000000" opacity="0.1"></path>
                        <path d="M80.3989958,182.858441 C77.9327197,184.550344 69.6261088,184.131397 69.6261088,184.131397 C69.3549795,183.841151 69.1052817,183.531493 68.8789958,183.204879 C69.2168741,182.887752 69.5335437,182.548636 69.8269456,182.189737 C70.2202633,181.709155 70.7636837,181.375633 71.3693724,181.243077 C73.1568201,180.840243 76.8803347,180.260162 79.1698745,181.496862 C79.6971856,181.828072 80.1226414,182.299378 80.3989958,182.858441 Z" id="Shape" fill="#000000" opacity="0.1"></path>
                        <path d="M80.8328033,181.742591 C79.161841,183.893725 69.6261088,183.418381 69.6261088,183.418381 C69.6261088,183.418381 66.7661925,180.550202 65.5732218,174.330445 C64.380251,168.110688 54.1456067,148.259028 54.1456067,148.259028 C51.7596653,145.14915 49.8517155,139.39668 49.8517155,139.39668 L45.7988285,113.329291 C45.7988285,113.329291 26.225272,139.167065 26.4622594,144.673806 C26.6992469,150.180547 22.1683682,171.937611 22.1683682,171.937611 C20.4974059,174.805789 20.4974059,185.331842 20.4974059,185.331842 C14.2955649,191.777186 9.04970711,184.12334 9.04970711,184.12334 C7.84468619,179.1 9.76468619,162.599919 9.76468619,162.599919 C9.76468619,162.599919 12.6246025,148.730344 12.8656067,140.117753 C13.1066109,131.505162 15.9866109,129.366113 15.9866109,129.366113 C18.2145435,120.493674 22.0071705,112.092503 27.185272,104.559595 C28.6272803,102.489028 29.5953138,101.385263 29.5953138,101.385263 L68.2041841,105.929231 C67.4628655,107.5732 66.9051639,109.294369 66.5412552,111.061336 C64.030795,121.881457 63.1953138,141.326255 63.1953138,141.326255 C72.0321339,147.06664 74.6430126,162.612004 74.6430126,162.612004 C74.6309623,166.676599 80.8328033,181.742591 80.8328033,181.742591 Z" id="Shape" fill="#605D82"></path>
                        <g id="Group" opacity="0.05" transform="translate(14.058577, 101.111336)" fill="#000000">
                            <path d="M29.5912971,15.4164575 L29.0972385,12.2300405 C29.0972385,12.2300405 9.55983264,38.0557287 9.78075314,43.5624696 C10.0016736,49.0692105 5.48686192,70.8262753 5.48686192,70.8262753 C3.81589958,73.6944534 3.81589958,84.2205061 3.81589958,84.2205061 C2.81809582,85.3558636 1.5266473,86.1923626 0.0843514644,86.6375101 C1.9641841,87.132996 4.24569038,86.7704453 6.67983264,84.2205061 C6.67983264,84.2205061 6.67983264,73.6984818 8.35079498,70.8262753 C8.35079498,70.8262753 12.8816736,49.0732389 12.6446862,43.5624696 C12.4558996,39.2642308 24.3976569,22.494251 29.5912971,15.4164575 Z" id="Shape"></path>
                            <path d="M60.8133891,61.4966397 C60.8133891,61.4966397 58.1904603,45.9512753 49.3656904,40.2108907 C49.3656904,40.2108907 50.2011715,20.7701215 52.7116318,9.94597166 C53.0755405,8.1790051 53.6332421,6.45783525 54.3745607,4.8138664 L15.74159,0.269898785 L15.4885356,0.576052632 L51.5146444,4.8138664 C50.7733257,6.45783525 50.2156242,8.1790051 49.8517155,9.94597166 C47.3412552,20.7660931 46.5057741,40.2108907 46.5057741,40.2108907 C55.3425941,45.9512753 57.9534728,61.4966397 57.9534728,61.4966397 C57.9534728,65.5612348 64.1553138,80.6312551 64.1553138,80.6312551 C63.1712134,81.9001822 59.4517155,82.2425911 56.5676987,82.3312146 C58.8572385,82.3916397 65.6374895,82.4117814 67.0112134,80.6312551 C66.9991632,80.6312551 60.8133891,65.5652632 60.8133891,61.4966397 Z" id="Shape"></path>
                        </g>
                        <path d="M22.4133891,98.0336842 C22.1259819,98.7413748 21.7464529,99.407808 21.2846862,100.015628 C19.8507113,101.953259 16.8662762,104.515283 11.4075314,103.814352 C10.590744,103.707415 9.88973457,103.178664 9.56069519,102.421337 C9.23165582,101.66401 9.32280713,100.789094 9.80083682,100.116336 C11.2026778,98.1585628 13.5323849,95.7375304 16.990795,94.5894534 C17.9771989,94.260914 18.9994448,94.0526282 20.0354812,93.9690891 L22.4133891,98.0336842 Z" id="Shape" fill="#F7BBC3"></path>
                        <path d="M72.7712134,31.1511538 L53.6475314,24.1378138 C53.6475314,24.1378138 48.1606695,27.0059919 50.3096234,31.0746154 L68.9111297,42.7930567 L72.7712134,31.1511538 Z" id="Shape" fill="#D9D9EA"></path>
                        <path d="M72.7712134,31.1511538 L53.6475314,24.1378138 C53.6475314,24.1378138 48.1606695,27.0059919 50.3096234,31.0746154 L68.9111297,42.7930567 L72.7712134,31.1511538 Z" id="Shape" fill="#000000" opacity="0.1"></path>
                        <path d="M73.4259414,19.5898178 C73.4259414,19.5898178 73.188954,30.8288866 78.1938075,34.6558097 C83.1986611,38.4827328 63.6451883,40.6338664 63.6451883,40.6338664 C63.6451883,40.6338664 66.7461088,29.1530972 63.6451883,23.1750405 C60.5442678,17.1969838 73.4259414,19.5898178 73.4259414,19.5898178 Z" id="Shape" fill="#F7BBC3"></path>
                        <path d="M68.2041841,105.929231 C67.4628655,107.5732 66.9051639,109.294369 66.5412552,111.061336 C43.4771548,114.59419 27.4262762,104.970486 27.4262762,104.970486 C27.3379079,104.833522 27.2535565,104.69253 27.1772385,104.567652 C28.6192469,102.497085 29.5872803,101.39332 29.5872803,101.39332 L68.2041841,105.929231 Z" id="Shape" fill="#000000" opacity="0.1"></path>
                        <path d="M22.4133891,98.0336842 C22.1259819,98.7413748 21.7464529,99.407808 21.2846862,100.015628 C19.0754812,99.6490486 17.3121339,95.4152632 16.9867782,94.5894534 C17.9731822,94.260914 18.9954281,94.0526282 20.0314644,93.9690891 L22.4133891,98.0336842 Z" id="Shape" fill="#000000" opacity="0.1"></path>
                        <path d="M75.3499582,29.636498 L66.7661925,32.7463765 L63.1872803,37.5280162 C63.1872803,37.5280162 55.7964854,39.9208502 54.8405021,39.9208502 C53.8845188,39.9208502 51.26159,40.8755668 49.5946444,44.7024899 C47.9276987,48.529413 41.9628452,67.1846559 36.7169874,70.2945344 C31.4711297,73.404413 17.6374895,94.2107895 17.6374895,94.2107895 C17.6374895,94.2107895 20.023431,100.656134 22.8833473,99.713502 L29.5631799,94.2107895 C29.5631799,94.2107895 24.3173222,99.4718016 27.4182427,104.25747 C27.4182427,104.25747 46.9717155,115.975911 73.92,108.801437 L74.1569874,101.626964 L75.3620084,107.367348 L88.6895397,98.9924291 C88.6895397,98.9924291 87.4845188,83.55583 85.3395816,75.6965385 C84.4467353,72.3939732 84.7733875,68.8791133 86.2594142,65.7989069 C89.721841,58.5478947 95.0641004,46.4628745 94.4133891,42.0679555 C93.6461925,36.8754251 90.7179916,34.6195547 89.5933054,33.9347368 C89.3375323,33.7807006 89.0507525,33.6857486 88.7538075,33.6567814 L84.4117155,33.2217206 L75.3499582,29.636498 Z" id="Shape" fill="#D9D9EA"></path>
                        <path d="M60.6848536,53.6695749 C60.6848536,53.6695749 55.9129707,75.9221255 50.667113,79.4992915 C45.4212552,83.0764575 31.3506276,94.5652834 30.872636,96.4787449" id="Shape" fill="#000000" opacity="0.05"></path>
                        <path d="M58.5358996,52.960587 C58.5358996,52.960587 53.7680335,75.1970243 48.5221757,78.782247 C43.276318,82.3674696 29.2056904,93.8482389 28.7276987,95.7617004" id="Shape" fill="#D9D9EA"></path>
                        <path d="M63.0667782,37.407166 C63.0667782,37.407166 79.5353975,31.9044534 84.2912134,33.3425709" id="Shape" fill="#000000" opacity="0.1"></path>
                        <g id="Group" opacity="0.05" transform="translate(74.309623, 29.406883)" fill="#000000">
                            <path d="M11.9698745,36.3960526 C15.4323013,29.1450405 20.7745607,17.0600202 20.1238494,12.6651012 C19.3566527,7.47257085 16.4284519,5.2167004 15.3037657,4.53188259 C15.0479925,4.37784632 14.7612128,4.28289432 14.4642678,4.25392713 L12.6085356,4.06862348 C12.8023359,4.11532324 12.9879005,4.19139359 13.1588285,4.29421053 C14.2754812,4.97902834 17.203682,7.23087045 17.9789121,12.4274291 C18.6296234,16.8344332 13.287364,28.9194534 9.82493724,36.1583806 C8.33891052,39.238587 8.01225835,42.7534469 8.9051046,46.0560121 C11.0580753,53.9112753 12.2550628,69.3519028 12.2550628,69.3519028 L0.755146444,76.5586032 L1.0483682,77.9604656 L14.3799163,69.5855466 C14.3799163,69.5855466 13.1748954,54.1489474 11.0299582,46.2896559 C10.1443472,42.9859388 10.4781222,39.4726077 11.9698745,36.3960526 Z" id="Shape"></path>
                            <polygon id="Shape" points="7.95715481 3.57716599 10.0217573 3.78663968 1.04033473 0.229615385 0.236987448 0.51965587"></polygon>
                        </g>
                        <path d="M58.5358996,76.1517409 C58.5358996,76.1517409 65.9266946,72.0871457 68.312636,73.0418623 C70.6985774,73.9965789 79.5193305,72.8041903 79.5193305,72.8041903" id="Shape" fill="#000000" opacity="0.05"></path>
                        <path d="M72.6225941,22.5788462 C72.3494561,20.1618421 73.4580753,20.5646761 73.4580753,20.5646761 C73.4580753,20.5646761 60.5723849,18.1557287 63.665272,24.1337854 C64.4505164,25.7819855 64.9010959,27.5703394 64.990795,29.3947976 L65.1112971,29.3947976 C68.6861925,29.3947976 70.7748954,25.3825709 72.6225941,22.5788462 Z" id="Shape" fill="#000000" opacity="0.05"></path>
                        <ellipse id="Oval" fill="#F7BBC3" cx="65.0952301" cy="18.1557287" rx="10.254728" ry="10.2843522"></ellipse>
                        <path d="M76.2858577,21.1971255 C77.2177406,19.1507287 77.8925523,16.9311134 77.7841004,14.6832996 C77.6756485,12.4354858 76.6674477,10.1554453 74.8076987,8.89860324 C73.843682,8.25004049 72.7109623,7.8995749 71.7148117,7.30740891 C70.9355649,6.8441498 70.2487029,6.24392713 69.5056067,5.72427126 C65.8063849,3.20267053 61.0456375,2.85548999 57.02159,4.8138664 C55.1377406,5.76052632 53.5350628,7.17044534 51.7596653,8.30643725 C49.9842678,9.44242915 47.8915481,10.3206073 45.8108787,9.97819838 C45.4533891,10.9731984 46.3290377,11.9561134 47.1404184,12.6369028 C48.6748117,13.9259717 50.4140586,15.2150405 52.4143933,15.2593522 C53.1896234,15.2593522 54.0210879,15.1103036 54.7079498,15.4365992 C55.1824481,15.6982676 55.5852986,16.0732261 55.8808368,16.5282794 C56.8432466,17.8113998 57.6584307,19.1991892 58.3109623,20.6653846 C58.5800837,21.2656073 58.849205,21.9181984 59.3994979,22.2767206 C60.3193305,22.8688866 61.516318,22.3774291 62.612887,22.3331174 C64.3119665,22.268664 65.8262762,23.3402024 67.0955649,24.484251 C68.3648536,25.6282996 69.5497908,26.9415385 71.1364017,27.5457895 C72.3414226,27.9969636 74.6912134,27.9808502 75.2937238,26.5628745 C75.5226778,26.0271053 75.0848536,24.8790283 75.1732218,24.2264372 C75.3138075,23.1508704 75.8359833,22.1518421 76.2858577,21.1971255 Z" id="Shape" fill="#000000" opacity="0.1"></path>
                        <path d="M76.5228452,20.9594534 C77.454728,18.9130567 78.1295397,16.6934413 78.0210879,14.4456275 C77.912636,12.1978138 76.9044351,9.91777328 75.0446862,8.66093117 C74.0806695,8.01236842 72.9479498,7.66190283 71.9517992,7.06973684 C71.1725523,6.60647773 70.4856904,6.00625506 69.7425941,5.48659919 C66.0433724,2.96499846 61.2826249,2.61781793 57.2585774,4.57619433 C55.374728,5.52285425 53.7720502,6.93277328 51.9966527,8.06876518 C50.2212552,9.20475709 48.1285356,10.0829352 46.0478661,9.74052632 C45.6903766,10.7355263 46.5660251,11.7184413 47.3774059,12.3992308 C48.9117992,13.6882996 50.651046,14.9773684 52.6513808,15.0216802 C53.4266109,15.0216802 54.2580753,14.8726316 54.9449372,15.1989271 C55.4194355,15.4605956 55.822286,15.835554 56.1178243,16.2906073 C57.0855703,17.5716839 57.9061543,18.9581394 58.5640167,20.4236842 C58.8331381,21.0239069 59.1022594,21.676498 59.6525523,22.0350202 C60.5723849,22.6271862 61.7693724,22.1357287 62.8659414,22.091417 C64.5650209,22.0269636 66.0793305,23.098502 67.3486192,24.2425506 C68.6179079,25.3865992 69.8028452,26.6998381 71.3894561,27.3040891 C72.594477,27.7552632 74.9442678,27.7391498 75.5467782,26.3211741 C75.7757322,25.7854049 75.3379079,24.6373279 75.4262762,23.9847368 C75.550795,22.9252834 76.0890377,21.9101417 76.5228452,20.9594534 Z" id="Shape" fill="#A1616A"></path>
                    </g>
                </g>
            </g>
        </g>
    </g>
</svg>