<?xml version="1.0" encoding="UTF-8"?>
<svg width="337px" height="261px" viewBox="0 0 337 261" version="1.1" xmlns="http://www.w3.org/2000/svg" xmlns:xlink="http://www.w3.org/1999/xlink">
    <!-- Generator: Sketch 51.2 (57519) - http://www.bohemiancoding.com/sketch -->
    <title>pic_develop_flow</title>
    <desc>Created with Sketch.</desc>
    <defs>
        <linearGradient x1="49.9963627%" y1="100.004109%" x2="49.9963627%" y2="7.92274891e-06%" id="linearGradient-1">
            <stop stop-color="#808080" stop-opacity="0.25" offset="0%"></stop>
            <stop stop-color="#808080" stop-opacity="0.12" offset="54%"></stop>
            <stop stop-color="#808080" stop-opacity="0.1" offset="100%"></stop>
        </linearGradient>
        <linearGradient x1="49.9850541%" y1="99.9893978%" x2="49.9850541%" y2="0.00591134653%" id="linearGradient-2">
            <stop stop-color="#808080" stop-opacity="0.25" offset="0%"></stop>
            <stop stop-color="#808080" stop-opacity="0.12" offset="54%"></stop>
            <stop stop-color="#808080" stop-opacity="0.1" offset="100%"></stop>
        </linearGradient>
    </defs>
    <g id="Page-1" stroke="none" stroke-width="1" fill="none" fill-rule="evenodd">
        <g id="Artboard" transform="translate(-961.000000, -2489.000000)" fill-rule="nonzero">
            <g id="开发流程" transform="translate(244.000000, 2489.000000)">
                <g id="pic_develop_flow" transform="translate(717.000000, 0.000000)">
                    <path d="M73.0796089,0.203718207 C62.2432816,-0.197088522 50.9237464,-0.478905754 41.1255368,4.18673508 C31.3273272,8.85237591 23.751874,20.1563782 27.0376878,30.5491714 C28.1100977,33.9372408 30.1988029,36.8900591 31.9601737,39.9743922 C40.7670277,55.3991886 41.1754163,75.3361921 33.0107612,91.1148258 C26.7259408,103.261148 16.0735442,112.504754 8.40456693,123.821281 C0.73558962,135.137809 -3.62263407,150.822503 3.92164442,162.223576 C9.08729296,170.029913 18.6735146,173.828183 27.9604591,174.748786 C37.2474036,175.669389 46.587345,174.219596 55.9148166,173.846971 C74.0653486,173.146432 92.1384836,176.579485 108.780881,183.889058 C131.691171,193.978115 151.427876,211.237855 175.550863,217.898136 C178.446993,218.696618 181.474057,219.341666 184.435653,218.799951 C189.688591,217.838641 193.507493,213.476736 197.619436,210.032304 C210.747104,199.113452 228.921957,197.074974 245.96205,196.567703 C263.002144,196.060431 280.749903,196.451844 296.153325,189.102677 C309.602092,182.686638 319.955212,170.750113 326.392788,157.266724 C332.830364,143.783335 335.626735,128.800052 336.680441,113.879395 C337.303935,104.999021 337.282112,95.8305675 334.11788,87.5169591 C330.560846,78.170021 323.347019,70.7269147 315.780919,64.220068 C307.875014,57.4188788 299.258325,51.2564753 289.497525,47.5865887 C277.838186,43.2027651 265.181256,42.5765046 252.767488,41.5369122 C227.311661,39.4014708 202.054036,35.3274139 177.212474,29.3498825 C153.635045,23.6884875 127.747571,17.5041649 106.274434,5.97157755 C95.497339,0.181799089 85.2283913,0.642100567 73.0796089,0.203718207 Z" id="Shape" fill="#6E72EE" opacity="0.1"></path>
                    <g id="Group" opacity="0.1" transform="translate(216.000000, 142.000000)" fill="#6E72EE">
                        <path d="M5.98178218,53.8975862 C5.98178218,53.8975862 7.10336634,38.5013793 15.9493069,30.1065517 C19.6837439,26.6089236 22.1585834,22.0186839 23.0019802,17.0255172 C23.3827771,14.6518781 23.5418513,12.249175 23.4772277,9.84724138" id="Shape"></path>
                        <path d="M29.0186139,4.52482759 C28.3691089,6.22551724 23.3473267,10.0055172 23.3473267,10.0055172 C23.3473267,10.0055172 22.08,3.92586207 22.7358416,2.22517241 C23.3841474,0.525754237 25.3161495,-0.33710104 27.0510891,0.297931179 C28.7860287,0.932963399 29.6669195,2.82540935 29.0186139,4.52482759 Z" id="Shape"></path>
                        <path d="M30.6217822,15.8431034 C29.1326733,16.9231034 22.8213861,17.4227586 22.8213861,17.4227586 C22.8213861,17.4227586 25.1342574,11.6472414 26.6233663,10.5641379 C28.1116419,9.54189384 30.1603078,9.86641888 31.2437807,11.2960485 C32.3272536,12.725678 32.0514629,14.7404408 30.6217822,15.84 L30.6217822,15.8431034 Z" id="Shape"></path>
                        <path d="M24.2566337,31.8475862 C22.4126733,32.0462069 16.7065347,29.3648276 16.7065347,29.3648276 C16.7065347,29.3648276 21.6807921,25.5227586 23.5215842,25.3303448 C25.2983509,25.2348337 26.8416787,26.515843 27.0370757,28.2483105 C27.2324727,29.980778 26.0118373,31.5608877 24.2566337,31.8475862 Z" id="Shape"></path>
                        <path d="M16.6558416,42.8958621 C14.8752475,43.3955172 8.78574257,41.6886207 8.78574257,41.6886207 C8.78574257,41.6886207 13.0249505,37.08 14.8055446,36.5803448 C15.9695938,36.2176544 17.2429016,36.5032877 18.1297918,37.3260529 C19.016682,38.148818 19.377009,39.3787023 19.0705038,40.5369336 C18.7639987,41.6951649 17.8390951,42.5987204 16.6558416,42.8958621 Z" id="Shape"></path>
                        <path d="M16.0982178,15.3372414 C16.890297,16.9758621 22.2194059,20.3244828 22.2194059,20.3244828 C22.2194059,20.3244828 22.9544554,14.1641379 22.1592079,12.5224138 C21.3345994,10.938109 19.373056,10.2836541 17.7326027,11.0455087 C16.0921495,11.8073633 15.3679112,13.7091411 16.0982178,15.3372414 Z" id="Shape"></path>
                        <path d="M7.37584158,28.3686207 C8.64316832,29.7 14.7421782,31.3355172 14.7421782,31.3355172 C14.7421782,31.3355172 13.560396,25.2403448 12.3025743,23.9058621 C11.0428206,22.5808398 8.92627144,22.5034304 7.56915071,23.7327445 C6.21202999,24.9620587 6.12559186,27.0349895 7.37584158,28.3686207 Z" id="Shape"></path>
                        <path d="M0.674851485,42.1727586 C1.68237624,43.6934483 7.42336634,46.3158621 7.42336634,46.3158621 C7.42336634,46.3158621 7.30930693,40.1089655 6.29861386,38.5913793 C5.26606082,37.1279343 3.23218853,36.7348814 1.70956964,37.7045304 C0.186950743,38.6741795 -0.271638121,40.6545059 0.674851485,42.1727586 Z" id="Shape"></path>
                        <path d="M29.0186139,4.52482759 C28.3691089,6.22551724 23.3473267,10.0055172 23.3473267,10.0055172 C23.3473267,10.0055172 22.08,3.92586207 22.7358416,2.22517241 C23.3841474,0.525754237 25.3161495,-0.33710104 27.0510891,0.297931179 C28.7860287,0.932963399 29.6669195,2.82540935 29.0186139,4.52482759 Z" id="Shape"></path>
                        <path d="M30.6217822,15.8431034 C29.1326733,16.9231034 22.8213861,17.4227586 22.8213861,17.4227586 C22.8213861,17.4227586 25.1342574,11.6472414 26.6233663,10.5641379 C28.1116419,9.54189384 30.1603078,9.86641888 31.2437807,11.2960485 C32.3272536,12.725678 32.0514629,14.7404408 30.6217822,15.84 L30.6217822,15.8431034 Z" id="Shape"></path>
                        <path d="M24.2566337,31.8475862 C22.4126733,32.0462069 16.7065347,29.3648276 16.7065347,29.3648276 C16.7065347,29.3648276 21.6807921,25.5227586 23.5215842,25.3303448 C25.2983509,25.2348337 26.8416787,26.515843 27.0370757,28.2483105 C27.2324727,29.980778 26.0118373,31.5608877 24.2566337,31.8475862 Z" id="Shape"></path>
                        <path d="M16.6558416,42.8958621 C14.8752475,43.3955172 8.78574257,41.6886207 8.78574257,41.6886207 C8.78574257,41.6886207 13.0249505,37.08 14.8055446,36.5803448 C15.9695938,36.2176544 17.2429016,36.5032877 18.1297918,37.3260529 C19.016682,38.148818 19.377009,39.3787023 19.0705038,40.5369336 C18.7639987,41.6951649 17.8390951,42.5987204 16.6558416,42.8958621 Z" id="Shape"></path>
                        <path d="M16.0982178,15.3372414 C16.890297,16.9758621 22.2194059,20.3244828 22.2194059,20.3244828 C22.2194059,20.3244828 22.9544554,14.1641379 22.1592079,12.5224138 C21.3345994,10.938109 19.373056,10.2836541 17.7326027,11.0455087 C16.0921495,11.8073633 15.3679112,13.7091411 16.0982178,15.3372414 Z" id="Shape"></path>
                        <path d="M7.37584158,28.3686207 C8.64316832,29.7 14.7421782,31.3355172 14.7421782,31.3355172 C14.7421782,31.3355172 13.560396,25.2403448 12.3025743,23.9058621 C11.0428206,22.5808398 8.92627144,22.5034304 7.56915071,23.7327445 C6.21202999,24.9620587 6.12559186,27.0349895 7.37584158,28.3686207 Z" id="Shape"></path>
                        <path d="M0.674851485,42.1727586 C1.68237624,43.6934483 7.42336634,46.3158621 7.42336634,46.3158621 C7.42336634,46.3158621 7.30930693,40.1089655 6.29861386,38.5913793 C5.26606082,37.1279343 3.23218853,36.7348814 1.70956964,37.7045304 C0.186950743,38.6741795 -0.271638121,40.6545059 0.674851485,42.1727586 Z" id="Shape"></path>
                    </g>
                    <g id="Group" opacity="0.1" transform="translate(220.000000, 83.000000)" fill="#6E72EE">
                        <path d="M5.91841584,53.9658621 C5.91841584,53.9658621 7.04,38.5696552 15.8859406,30.1748276 C19.6190842,26.6762428 22.0936813,22.0864529 22.9386139,17.0937931 C23.322445,14.7204841 23.4815374,12.3175074 23.4138614,9.91551724" id="Shape"></path>
                        <path d="M28.9552475,4.59310345 C28.3215842,6.29068966 23.2871287,10.0706897 23.2871287,10.0706897 C23.2871287,10.0706897 22.019802,3.99103448 22.6724752,2.29344828 C23.320781,0.594030012 25.2527831,-0.268825344 26.9877228,0.366206897 C28.7226624,1.00123914 29.6035533,2.89368518 28.9552475,4.59310345 Z" id="Shape"></path>
                        <path d="M30.5679208,15.9082759 C29.0819802,16.9913793 22.7675248,17.487931 22.7675248,17.487931 C22.7675248,17.487931 25.080396,11.7155172 26.569505,10.6324138 C27.5293442,9.89420693 28.8226892,9.7246885 29.946901,10.1897392 C31.0711129,10.65479 31.8488991,11.6810695 31.9779848,12.8697301 C32.1070706,14.0583907 31.5670986,15.2219758 30.5679208,15.9082759 Z" id="Shape"></path>
                        <path d="M24.1932673,31.9158621 C22.3524752,32.1144828 16.6463366,29.4331034 16.6463366,29.4331034 C16.6463366,29.4331034 21.6205941,25.5941379 23.4613861,25.3986207 C24.6650113,25.2470988 25.8583611,25.7440015 26.5821695,26.6980937 C27.3059779,27.652186 27.4474267,28.9147557 26.9520787,29.9998974 C26.4567308,31.085039 25.4017947,31.8236144 24.1932673,31.9313793 L24.1932673,31.9158621 Z" id="Shape"></path>
                        <path d="M16.5924752,42.9641379 C14.8118812,43.4637931 8.72237624,41.7568966 8.72237624,41.7568966 C8.72237624,41.7568966 12.9647525,37.1482759 14.7421782,36.6455172 C16.5138302,36.1726125 18.3444651,37.1825439 18.849954,38.9117101 C19.3554429,40.6408763 18.347983,42.4468454 16.5893069,42.9641379 L16.5924752,42.9641379 Z" id="Shape"></path>
                        <path d="M16.0348515,15.4024138 C16.8269307,17.0441379 22.1592079,20.3927586 22.1592079,20.3927586 C22.1592079,20.3927586 22.8910891,14.2293103 22.0990099,12.5906897 C21.6009149,11.5059769 20.54338,10.76951 19.3338259,10.6650165 C18.1242718,10.560523 16.9514637,11.1043104 16.2672319,12.0868818 C15.5830001,13.0694532 15.494127,14.3374668 16.0348515,15.4024138 Z" id="Shape"></path>
                        <path d="M7.31247525,28.4337931 C8.57980198,29.7682759 14.6819802,31.4006897 14.6819802,31.4006897 C14.6819802,31.4006897 13.4970297,25.3055172 12.2392079,23.9741379 C10.9704762,22.6964508 8.89325198,22.6422373 7.55685975,23.8519332 C6.22046751,25.0616292 6.11205153,27.0942739 7.31247525,28.4337931 Z" id="Shape"></path>
                        <path d="M0.611485149,42.2410345 C1.62217822,43.7617241 7.36,46.3841379 7.36,46.3841379 C7.36,46.3841379 7.24594059,40.1772414 6.23524752,38.6596552 C5.59873928,37.6386399 4.4461066,37.0370547 3.22592818,37.089023 C2.00574976,37.1409914 0.910774972,37.8383039 0.367143355,38.9095823 C-0.176488262,39.9808607 -0.0829002092,41.256877 0.611485149,42.2410345 Z" id="Shape"></path>
                        <path d="M28.9552475,4.59310345 C28.3215842,6.29068966 23.2871287,10.0706897 23.2871287,10.0706897 C23.2871287,10.0706897 22.019802,3.99103448 22.6724752,2.29344828 C23.320781,0.594030012 25.2527831,-0.268825344 26.9877228,0.366206897 C28.7226624,1.00123914 29.6035533,2.89368518 28.9552475,4.59310345 Z" id="Shape"></path>
                        <path d="M30.5679208,15.9082759 C29.0819802,16.9913793 22.7675248,17.487931 22.7675248,17.487931 C22.7675248,17.487931 25.080396,11.7155172 26.569505,10.6324138 C27.5293442,9.89420693 28.8226892,9.7246885 29.946901,10.1897392 C31.0711129,10.65479 31.8488991,11.6810695 31.9779848,12.8697301 C32.1070706,14.0583907 31.5670986,15.2219758 30.5679208,15.9082759 Z" id="Shape"></path>
                        <path d="M24.1932673,31.9158621 C22.3524752,32.1144828 16.6463366,29.4331034 16.6463366,29.4331034 C16.6463366,29.4331034 21.6205941,25.5941379 23.4613861,25.3986207 C24.6650113,25.2470988 25.8583611,25.7440015 26.5821695,26.6980937 C27.3059779,27.652186 27.4474267,28.9147557 26.9520787,29.9998974 C26.4567308,31.085039 25.4017947,31.8236144 24.1932673,31.9313793 L24.1932673,31.9158621 Z" id="Shape"></path>
                        <path d="M16.5924752,42.9641379 C14.8118812,43.4637931 8.72237624,41.7568966 8.72237624,41.7568966 C8.72237624,41.7568966 12.9647525,37.1482759 14.7421782,36.6455172 C16.5138302,36.1726125 18.3444651,37.1825439 18.849954,38.9117101 C19.3554429,40.6408763 18.347983,42.4468454 16.5893069,42.9641379 L16.5924752,42.9641379 Z" id="Shape"></path>
                        <path d="M16.0348515,15.4024138 C16.8269307,17.0441379 22.1592079,20.3927586 22.1592079,20.3927586 C22.1592079,20.3927586 22.8910891,14.2293103 22.0990099,12.5906897 C21.6009149,11.5059769 20.54338,10.76951 19.3338259,10.6650165 C18.1242718,10.560523 16.9514637,11.1043104 16.2672319,12.0868818 C15.5830001,13.0694532 15.494127,14.3374668 16.0348515,15.4024138 Z" id="Shape"></path>
                        <path d="M7.31247525,28.4337931 C8.57980198,29.7682759 14.6819802,31.4006897 14.6819802,31.4006897 C14.6819802,31.4006897 13.4970297,25.3055172 12.2392079,23.9741379 C10.9704762,22.6964508 8.89325198,22.6422373 7.55685975,23.8519332 C6.22046751,25.0616292 6.11205153,27.0942739 7.31247525,28.4337931 Z" id="Shape"></path>
                        <path d="M0.611485149,42.2410345 C1.62217822,43.7617241 7.36,46.3841379 7.36,46.3841379 C7.36,46.3841379 7.24594059,40.1772414 6.23524752,38.6596552 C5.59873928,37.6386399 4.4461066,37.0370547 3.22592818,37.089023 C2.00574976,37.1409914 0.910774972,37.8383039 0.367143355,38.9095823 C-0.176488262,39.9808607 -0.0829002092,41.256877 0.611485149,42.2410345 Z" id="Shape"></path>
                    </g>
                    <g id="Group" opacity="0.1" transform="translate(20.000000, 114.000000)" fill="#6E72EE">
                        <path d="M39.7488372,43.9654286 C39.7488372,43.9654286 26.5054264,35.9637143 22.8992248,24.31 C21.4222566,19.4084003 18.4145165,15.1256376 14.3286822,12.1062857 C12.3777155,10.6858999 10.3017537,9.45077227 8.12713178,8.41657143" id="Shape"></path>
                        <path d="M5.81705426,1.07485714 C7.05736434,2.42314286 8.21395349,8.59571429 8.21395349,8.59571429 C8.21395349,8.59571429 2.23255814,6.94571429 1.00155039,5.59742857 C-0.170819958,4.24206285 -0.0656246049,2.18705517 1.2388398,0.961942788 C2.54330421,-0.263169599 4.57292231,-0.213112307 5.81705426,1.07485714 Z" id="Shape"></path>
                        <path d="M16.6232558,4.82428571 C16.9333333,6.63457143 14.6015504,12.4551429 14.6015504,12.4551429 C14.6015504,12.4551429 10.4651163,7.77542857 10.1550388,5.96514286 C9.92150671,4.77977963 10.3403964,3.55926526 11.2493296,2.77671968 C12.1582627,1.9941741 13.4143369,1.7726291 14.5306477,2.19796433 C15.6469585,2.62329956 16.4479997,3.62864384 16.6232558,4.82428571 Z" id="Shape"></path>
                        <path d="M28.1085271,17.7351429 C27.4883721,19.4574286 22.5612403,23.2885714 22.5612403,23.2885714 C22.5612403,23.2885714 21.3209302,17.1317143 21.9565891,15.4125714 C22.3421116,14.2659197 23.3118613,13.4221272 24.4884949,13.2095257 C25.6651284,12.9969242 26.8628115,13.4490914 27.6155084,14.3900826 C28.3682054,15.3310737 28.5570374,16.6122712 28.1085271,17.7351429 Z" id="Shape"></path>
                        <path d="M34.6232558,29.4988571 C34.2883721,31.306 30.0837209,35.9385714 30.0837209,35.9385714 C30.0837209,35.9385714 27.8356589,30.0834286 28.1736434,28.2794286 C28.3913261,27.1116804 29.2071179,26.1503451 30.3137178,25.7575482 C31.4203177,25.3647514 32.6496069,25.6001683 33.5385241,26.3751197 C34.4274412,27.150071 34.8409386,28.3468233 34.6232558,29.5145714 L34.6232558,29.4988571 Z" id="Shape"></path>
                        <path d="M9.78294574,17.446 C11.5937984,17.49 16.9302326,14.3031429 16.9302326,14.3031429 C16.9302326,14.3031429 11.751938,10.846 9.9379845,10.802 C8.14961959,10.7948467 6.68444722,12.2395288 6.64222048,14.0516732 C6.59999374,15.8638175 7.99624172,17.3769988 9.78294574,17.4554286 L9.78294574,17.446 Z" id="Shape"></path>
                        <path d="M17.5751938,31.108 C19.3178295,30.5988571 23.4666667,25.9285714 23.4666667,25.9285714 C23.4666667,25.9285714 17.5069767,24.2031429 15.7643411,24.7122857 C14.062301,25.2523819 13.0967757,27.0707405 13.5895224,28.8080876 C14.082269,30.5454347 15.8531111,31.5664962 17.5782946,31.108 L17.5751938,31.108 Z" id="Shape"></path>
                        <path d="M26.9457364,43.3305714 C28.7503876,43.1294286 33.6155039,39.2448571 33.6155039,39.2448571 C33.6155039,39.2448571 28.0341085,36.5231429 26.2263566,36.7305714 C25.0128859,36.7980695 23.9356511,37.539969 23.4268534,38.6586097 C22.9180558,39.7772504 23.0610683,41.0893288 23.7985124,42.0684209 C24.5359566,43.0475131 25.7469927,43.5331823 26.9457364,43.3305714 Z" id="Shape"></path>
                        <path d="M5.81705426,1.07485714 C7.05736434,2.42314286 8.21395349,8.59571429 8.21395349,8.59571429 C8.21395349,8.59571429 2.23255814,6.94571429 1.00155039,5.59742857 C-0.170819958,4.24206285 -0.0656246049,2.18705517 1.2388398,0.961942788 C2.54330421,-0.263169599 4.57292231,-0.213112307 5.81705426,1.07485714 Z" id="Shape"></path>
                        <path d="M16.6232558,4.82428571 C16.9333333,6.63457143 14.6015504,12.4551429 14.6015504,12.4551429 C14.6015504,12.4551429 10.4651163,7.77542857 10.1550388,5.96514286 C9.92150671,4.77977963 10.3403964,3.55926526 11.2493296,2.77671968 C12.1582627,1.9941741 13.4143369,1.7726291 14.5306477,2.19796433 C15.6469585,2.62329956 16.4479997,3.62864384 16.6232558,4.82428571 Z" id="Shape"></path>
                        <path d="M28.1085271,17.7351429 C27.4883721,19.4574286 22.5612403,23.2885714 22.5612403,23.2885714 C22.5612403,23.2885714 21.3209302,17.1317143 21.9565891,15.4125714 C22.3421116,14.2659197 23.3118613,13.4221272 24.4884949,13.2095257 C25.6651284,12.9969242 26.8628115,13.4490914 27.6155084,14.3900826 C28.3682054,15.3310737 28.5570374,16.6122712 28.1085271,17.7351429 Z" id="Shape"></path>
                        <path d="M34.6232558,29.4988571 C34.2883721,31.306 30.0837209,35.9385714 30.0837209,35.9385714 C30.0837209,35.9385714 27.8356589,30.0834286 28.1736434,28.2794286 C28.3913261,27.1116804 29.2071179,26.1503451 30.3137178,25.7575482 C31.4203177,25.3647514 32.6496069,25.6001683 33.5385241,26.3751197 C34.4274412,27.150071 34.8409386,28.3468233 34.6232558,29.5145714 L34.6232558,29.4988571 Z" id="Shape"></path>
                        <path d="M9.78294574,17.446 C11.5937984,17.49 16.9302326,14.3031429 16.9302326,14.3031429 C16.9302326,14.3031429 11.751938,10.846 9.9379845,10.802 C8.14961959,10.7948467 6.68444722,12.2395288 6.64222048,14.0516732 C6.59999374,15.8638175 7.99624172,17.3769988 9.78294574,17.4554286 L9.78294574,17.446 Z" id="Shape"></path>
                        <path d="M17.5751938,31.108 C19.3178295,30.5988571 23.4666667,25.9285714 23.4666667,25.9285714 C23.4666667,25.9285714 17.5069767,24.2031429 15.7643411,24.7122857 C14.062301,25.2523819 13.0967757,27.0707405 13.5895224,28.8080876 C14.082269,30.5454347 15.8531111,31.5664962 17.5782946,31.108 L17.5751938,31.108 Z" id="Shape"></path>
                        <path d="M26.9457364,43.3305714 C28.7503876,43.1294286 33.6155039,39.2448571 33.6155039,39.2448571 C33.6155039,39.2448571 28.0341085,36.5231429 26.2263566,36.7305714 C25.0128859,36.7980695 23.9356511,37.539969 23.4268534,38.6586097 C22.9180558,39.7772504 23.0610683,41.0893288 23.7985124,42.0684209 C24.5359566,43.0475131 25.7469927,43.5331823 26.9457364,43.3305714 Z" id="Shape"></path>
                    </g>
                    <path d="M223,251.708697 C231.942945,255.528654 242.854523,253.20426 253.002943,253.473401 C254.389084,253.510101 255.862443,253.623263 256.974471,254.28388 C258.086499,254.944497 258.63784,256.011883 259.400996,256.929406 C262.244921,260.336477 268.072943,261.431389 273.165843,260.853349 C278.258743,260.275309 282.928014,258.360743 287.734341,256.904939 C296.041842,254.384807 305.536129,253.234844 313.731492,255.987415 C314.482189,256.238205 315.288954,256.528754 316.080145,256.427827 C317.877456,256.204563 318.413222,254.375632 319.668537,253.332714 C321.936201,251.445673 326.86401,251.959487 327.860785,249.472997 C328.443276,248.017193 327.100744,246.524688 325.63673,245.530704 C320.029868,241.726039 312.024514,241.099065 304.695099,241.68628 C297.365684,242.273495 290.160866,243.891395 282.794072,243.897512 C273.614392,243.897512 264.746205,241.414081 255.656858,240.39563 C249.361598,239.692195 242.490076,239.783948 236.587296,241.854493 C230.189243,244.09325 228.781298,249.136572 223,251.708697 Z" id="Shape" fill="#6E72EE" opacity="0.1"></path>
                    <path d="M54,239.935772 C69.2439447,244.481528 87.8477793,241.714126 105.14499,242.036291 C107.512468,242.081395 110.019941,242.213482 111.920768,243.002788 C113.821595,243.792093 114.754897,245.064647 116.05841,246.153567 C120.905362,250.209631 130.838814,251.514401 139.51853,250.824967 C148.198245,250.135533 156.162429,247.857822 164.356827,246.124572 C178.51814,243.125211 194.707832,241.759229 208.676263,245.029209 C209.957999,245.328823 211.308177,245.67354 212.683243,245.554339 C215.744476,245.286942 216.656001,243.112324 218.799487,241.868765 C222.666471,239.613607 231.063085,240.235386 232.761696,237.277907 C233.757218,235.544656 231.467516,233.766302 228.972486,232.583955 C219.42791,228.057529 205.77058,227.310105 193.273657,228.009204 C180.776733,228.708304 168.494469,230.631632 155.941547,230.641297 C140.293171,230.641297 125.173667,227.687039 109.67773,226.472475 C98.9447489,225.634845 87.2317995,225.737938 77.167685,228.212169 C66.257376,230.882921 63.8525659,236.884865 54,239.935772 Z" id="Shape" fill="#6E72EE" opacity="0.1"></path>
                    <path d="M13,251.371061 C17.3537294,254.095738 22.6404007,252.438927 27.5725541,252.629849 C28.2473821,252.655737 28.9626377,252.736635 29.503744,253.205849 C30.0448504,253.675063 30.3122938,254.441985 30.6823608,255.095649 C32.0631149,257.525853 34.893039,258.308955 37.3653353,257.894752 C39.8376316,257.48055 42.1077905,256.118212 44.4432553,255.076233 C48.486004,253.280276 53.0916277,252.461579 57.0690705,254.429041 C57.4099147,254.655789 57.8092263,254.768699 58.2134793,254.752637 C59.0842252,254.590839 59.3454489,253.286748 59.9549711,252.542478 C61.0558426,251.19632 63.4503938,251.571691 63.9324138,249.788678 C64.2154062,248.749935 63.5623468,247.685305 62.8533109,246.97663 C60.1353398,244.261662 56.2418619,243.815099 52.6811332,244.232538 C49.1204046,244.649977 45.6218721,245.782562 42.0424846,245.782562 C37.5861316,245.782562 33.2790494,244.012493 28.8631239,243.284402 C25.8030741,242.779593 22.4662515,242.844312 19.5990098,244.326381 C16.4923129,245.94436 15.8081554,249.542745 13,251.371061 Z" id="Shape" fill="#6E72EE" opacity="0.1"></path>
                    <path d="M217.66817,11.0000181 L72.3318299,11.0000181 C68.8012735,10.9942047 65.4130566,12.3917467 62.9127625,14.8851125 C60.4124684,17.3784782 59.0049737,20.7633589 59,24.2949053 L59,225.714481 C59.0155332,233.064972 64.983391,239.01209 72.3318299,238.999982 L217.66817,238.999982 C221.198727,239.005795 224.586943,237.608253 227.087237,235.114887 C229.587532,232.621521 230.995026,229.236641 231,225.705094 L231,24.2949053 C230.995026,20.7633589 229.587532,17.3784782 227.087237,14.8851125 C224.586943,12.3917467 221.198727,10.9942047 217.66817,11.0000181 Z" id="Shape" fill="url(#linearGradient-1)"></path>
                    <path d="M67.2229841,13 L221.777016,13 C225.213875,13 228,15.786297 228,19.2233685 L228,228.776632 C228,232.213703 225.213875,235 221.777016,235 L67.2229841,235 C63.7861249,235 61,232.213703 61,228.776632 L61,19.2233685 C61,15.786297 63.7861249,13 67.2229841,13 Z" id="Rectangle-path" fill="#535461"></path>
                    <rect id="Rectangle-path" fill="#F6F7F9" x="70" y="34" width="150" height="181"></rect>
                    <circle id="Oval" fill="#F6F7F9" cx="144" cy="24" r="2"></circle>
                    <circle id="Oval" fill="#F6F7F9" cx="144" cy="225" r="6"></circle>
                    <g id="Group" opacity="0.2" transform="translate(70.000000, 34.000000)" fill="#6E72EE">
                        <rect id="Rectangle-path" x="0.0186335404" y="0.264" width="149.745342" height="8.649"></rect>
                    </g>
                    <circle id="Oval" fill="#F6F7F9" cx="74" cy="39" r="2"></circle>
                    <circle id="Oval" fill="#F6F7F9" cx="79" cy="39" r="2"></circle>
                    <circle id="Oval" fill="#F6F7F9" cx="84" cy="39" r="2"></circle>
                    <rect id="Rectangle-path" fill="#DCE0ED" x="74" y="88" width="140" height="1"></rect>
                    <rect id="Rectangle-path" fill="#DCE0ED" x="74" y="98" width="140" height="1"></rect>
                    <rect id="Rectangle-path" fill="#DCE0ED" x="74" y="109" width="140" height="1"></rect>
                    <rect id="Rectangle-path" fill="#DCE0ED" x="74" y="120" width="140" height="1"></rect>
                    <rect id="Rectangle-path" fill="#DCE0ED" x="74" y="131" width="140" height="1"></rect>
                    <g id="Group" opacity="0.2" transform="translate(74.000000, 94.000000)" fill="#6E72EE">
                        <polygon id="Shape" points="140.834302 37.924 0.284501109 37.924 0.284501109 16.2323333 13.1745898 22.667 26.514878 24.5005 38.2200665 20.9253333 52.3419512 9.8325 59.4450998 5.67783333 64.6380266 4.6645 69.6058537 4.93366667 77.7750998 9.02183333 88.8831486 16.188 97.5995122 17.3216667 104.508825 14.9086667 119.159069 2.75816667 126.637384 0.057 134.462727 1.2825 140.834302 5.00966667"></polygon>
                    </g>
                    <path d="M98.3731118,118.998859 C85.7807002,118.998859 74.1461703,111.004295 74,110.900972 L74.3483206,110.364988 C74.5287009,110.490912 92.4361116,122.789497 107.653368,116.628903 C113.201617,114.368728 117.151324,110.888057 120.973521,107.50748 C124.963657,103.978377 128.729874,100.646232 133.867603,99.1997191 C139.757953,97.5433331 146.195664,99.0415068 151.087702,103.216374 C155.270659,106.784223 163.599254,112.512155 172.397459,110.800879 C176.882086,109.925868 180.660743,106.525918 184.66332,102.92578 C192.335703,96.0225577 200.272436,88.8836309 214,99.1254562 L213.636129,99.6485254 C200.306647,89.7037518 192.562733,96.6747798 185.07073,103.413333 C181.002843,107.071589 177.161987,110.516742 172.512529,111.433728 C163.462413,113.196665 154.959659,107.352496 150.692731,103.713613 C145.956193,99.674356 139.729963,98.2246147 134.029323,99.8228819 C129.028434,101.230649 125.321308,104.51759 121.374711,107.998261 C117.515195,111.414355 113.525058,114.943458 107.880398,117.229464 C104.845333,118.429713 101.620765,119.029835 98.3731118,118.998859 Z" id="Shape" fill="#6E72EE"></path>
                    <circle id="Oval" fill="#6E72EE" cx="141.5" cy="98.5" r="3.5"></circle>
                    <g id="Group" opacity="0.2" transform="translate(142.000000, 53.000000)" fill="#6E72EE">
                        <path d="M45.2703448,0.1085 L0.729655172,0.1085 C0.3301819,0.1085 0.00634482759,0.424945139 0.00634482759,0.8153 L0.00634482759,30.2498 C0.00672747125,30.5393844 0.1878424,30.7994451 0.463379832,30.9060509 C0.738917264,31.0126567 1.05312801,30.9442382 1.25627586,30.7334 L8.97475862,22.6889 C9.11105626,22.5463961 9.3017692,22.4655654 9.50137931,22.4657 L45.2703448,22.4657 C45.6698181,22.4657 45.9936552,22.1492549 45.9936552,21.7589 L45.9936552,0.8091 C45.9901726,0.421168552 45.6673534,0.108485074 45.2703448,0.1085 Z" id="Shape"></path>
                    </g>
                    <rect id="Rectangle-path" fill="#F6F7F9" x="152" y="58" width="25" height="3"></rect>
                    <rect id="Rectangle-path" fill="#F6F7F9" x="152" y="66" width="7" height="3"></rect>
                    <g id="Group" opacity="0.2" transform="translate(85.000000, 154.000000)" fill="#6E72EE">
                        <rect id="Rectangle-path" x="0.115652174" y="0.116363636" width="6.68043478" height="3.63636364"></rect>
                    </g>
                    <g id="Group" opacity="0.2" transform="translate(85.000000, 160.000000)" fill="#6E72EE">
                        <rect id="Rectangle-path" x="0.115652174" y="0.236363636" width="6.68043478" height="3.63636364"></rect>
                    </g>
                    <g id="Group" opacity="0.2" transform="translate(85.000000, 166.000000)" fill="#6E72EE">
                        <rect id="Rectangle-path" x="0.115652174" y="0.356363636" width="6.68043478" height="3.63636364"></rect>
                    </g>
                    <g id="Group" opacity="0.2" transform="translate(85.000000, 171.000000)" fill="#6E72EE">
                        <rect id="Rectangle-path" x="0.115652174" y="0.116363636" width="6.68043478" height="3.63636364"></rect>
                    </g>
                    <g id="Group" opacity="0.2" transform="translate(85.000000, 178.000000)" fill="#6E72EE">
                        <rect id="Rectangle-path" x="0.115652174" y="0.236363636" width="6.68043478" height="3.63636364"></rect>
                    </g>
                    <g id="Group" opacity="0.2" transform="translate(85.000000, 184.000000)" fill="#6E72EE">
                        <rect id="Rectangle-path" x="0.115652174" y="0.356363636" width="6.68043478" height="3.63636364"></rect>
                    </g>
                    <g id="Group" opacity="0.2" transform="translate(85.000000, 190.000000)" fill="#6E72EE">
                        <rect id="Rectangle-path" x="0.115652174" y="0.116363636" width="6.68043478" height="3.63636364"></rect>
                    </g>
                    <g id="Group" opacity="0.2" transform="translate(85.000000, 196.000000)" fill="#6E72EE">
                        <rect id="Rectangle-path" x="0.115652174" y="0.236363636" width="6.68043478" height="3.63636364"></rect>
                    </g>
                    <g id="Group" opacity="0.2" transform="translate(99.000000, 199.000000)" fill="#6E72EE">
                        <rect id="Rectangle-path" x="0.216086957" y="0.236363636" width="6.68043478" height="3.63636364"></rect>
                    </g>
                    <g id="Group" opacity="0.2" transform="translate(111.000000, 199.000000)" fill="#6E72EE">
                        <rect id="Rectangle-path" x="0.115652174" y="0.236363636" width="6.68043478" height="3.63636364"></rect>
                    </g>
                    <g id="Group" opacity="0.2" transform="translate(122.000000, 199.000000)" fill="#6E72EE">
                        <rect id="Rectangle-path" x="0.0159090909" y="0.236363636" width="6.98409091" height="3.63636364"></rect>
                    </g>
                    <g id="Group" opacity="0.2" transform="translate(135.000000, 199.000000)" fill="#6E72EE">
                        <rect id="Rectangle-path" x="0.216086957" y="0.236363636" width="6.68043478" height="3.63636364"></rect>
                    </g>
                    <g id="Group" opacity="0.2" transform="translate(147.000000, 199.000000)" fill="#6E72EE">
                        <rect id="Rectangle-path" x="0.115652174" y="0.236363636" width="6.68043478" height="3.63636364"></rect>
                    </g>
                    <g id="Group" opacity="0.2" transform="translate(159.000000, 199.000000)" fill="#6E72EE">
                        <rect id="Rectangle-path" x="0.0159090909" y="0.236363636" width="6.98409091" height="3.63636364"></rect>
                    </g>
                    <g id="Group" opacity="0.2" transform="translate(171.000000, 199.000000)" fill="#6E72EE">
                        <rect id="Rectangle-path" x="0.216086957" y="0.236363636" width="6.68043478" height="3.63636364"></rect>
                    </g>
                    <g id="Group" opacity="0.2" transform="translate(183.000000, 199.000000)" fill="#6E72EE">
                        <rect id="Rectangle-path" x="0.115652174" y="0.236363636" width="6.68043478" height="3.63636364"></rect>
                    </g>
                    <g id="Group" opacity="0.2" transform="translate(195.000000, 199.000000)" fill="#6E72EE">
                        <rect id="Rectangle-path" x="0.0152173913" y="0.236363636" width="6.68043478" height="3.63636364"></rect>
                    </g>
                    <rect id="Rectangle-path" fill="#F6F7F9" x="166" y="66" width="11" height="3"></rect>
                    <rect id="Rectangle-path" fill="#6E72EE" x="99" y="177" width="7" height="19"></rect>
                    <rect id="Rectangle-path" fill="#6E72EE" x="111" y="168" width="7" height="28"></rect>
                    <rect id="Rectangle-path" fill="#6E72EE" x="122" y="160" width="7" height="36"></rect>
                    <rect id="Rectangle-path" fill="#6E72EE" x="135" y="163" width="7" height="33"></rect>
                    <rect id="Rectangle-path" fill="#6E72EE" x="147" y="157" width="7" height="39"></rect>
                    <g id="Group" opacity="0.2" transform="translate(159.000000, 171.000000)" fill="#6E72EE">
                        <rect id="Rectangle-path" x="0.0159090909" y="0.102564103" width="6.98409091" height="24.7852564"></rect>
                    </g>
                    <g id="Group" opacity="0.2" transform="translate(171.000000, 171.000000)" fill="#6E72EE">
                        <rect id="Rectangle-path" x="0.216086957" y="0.102564103" width="6.68043478" height="24.7852564"></rect>
                    </g>
                    <g id="Group" opacity="0.2" transform="translate(183.000000, 171.000000)" fill="#6E72EE">
                        <rect id="Rectangle-path" x="0.115652174" y="0.102564103" width="6.68043478" height="24.7852564"></rect>
                    </g>
                    <g id="Group" opacity="0.2" transform="translate(195.000000, 171.000000)" fill="#6E72EE">
                        <rect id="Rectangle-path" x="0.0152173913" y="0.102564103" width="6.68043478" height="24.7852564"></rect>
                    </g>
                    <path d="M309.388187,85.4239755 C301.939941,81.1562372 299.126089,80.0978881 299.110422,80.0916441 L298.960016,79.982375 C298.147659,79.3607617 297.501865,78.5489734 297.079937,77.6190408 C297.079937,77.4473323 297.079937,77.2787457 297.079937,77.1101591 L297.079937,77.1601107 C297.199008,74.8998016 298.812743,72.8424208 300.345007,71.0472858 L304.258705,66.4579842 C304.705049,66.0049356 305.049057,65.462076 305.26768,64.8657776 C305.348424,64.5465359 305.384279,64.2176689 305.374218,63.8885997 C305.374218,63.7543549 305.374218,63.62011 305.374218,63.4889871 C305.355417,62.3494666 305.320949,61.2068242 305.280214,60.0548158 C305.242613,59.0589062 304.985669,57.8038727 303.986093,57.5978224 C303.465938,57.4916753 302.779709,57.6789937 302.503964,57.2325515 C302.41149,57.0501615 302.388127,56.8406646 302.438162,56.6424984 C302.43669,56.6580738 302.43669,56.6737526 302.438162,56.689328 L302.438162,56.6331325 C302.632748,55.8643157 302.757545,55.0796211 302.811044,54.2885301 C302.830729,53.8864479 302.775484,53.4842113 302.648104,53.10218 C302.068413,51.4475339 300.075529,50.7700655 298.311388,50.4578682 C296.547248,50.1456708 294.573165,49.877181 293.467052,48.5035125 C293.125504,48.0789241 292.893628,47.5669204 292.505078,47.1829176 C291.99469,46.7324444 291.372579,46.4263026 290.703336,46.296277 C288.515378,45.7575202 286.209834,45.9573625 284.148127,46.8644762 C283.295825,47.2422351 282.440389,47.7542388 281.506616,47.6980433 C280.572844,47.6418477 279.704874,46.9706234 278.746034,46.8082807 C277.198102,46.5460349 275.715973,47.6793114 274.954541,49.0186382 C274.502277,49.8152723 274.260745,50.7134002 274.252645,51.6286084 C274.252645,51.6785599 274.252645,51.7316335 274.252645,51.7815851 C274.229722,52.7654521 274.590226,53.7199139 275.258487,54.4446288 C275.925915,55.134585 276.922357,55.609125 277.198102,56.5176194 C277.310907,56.8860124 277.282706,57.285625 277.382976,57.6602619 C277.382976,57.7070915 277.411178,57.7539211 277.426845,57.7976287 L277.376709,57.8631902 C275.778907,59.9033831 274.913918,62.4184812 274.920073,65.0062664 C274.95361,70.1573705 278.328156,74.6949767 283.26449,76.2266405 C283.26449,76.3421535 283.26449,76.4607885 283.26449,76.5763015 C283.26449,77.9936777 282.860273,79.4391516 281.644489,80.5037447 L271.097246,84.7308973 C271.097246,84.7308973 264.739446,83.9785016 262.445749,93.2382761 C262.076701,94.7756068 261.943585,96.3597779 262.050933,97.9368468 C262.135536,99.3323691 261.941261,101.792484 260.31186,104.973776 C257.701683,110.062593 258.297042,121.745019 263.630199,122.903272 C268.665677,123.995963 270.636627,123.527667 270.837168,123.487081 L270.837168,123.690009 C270.755698,125.875391 269.956665,144.791431 267.051943,147.079837 C266.249776,147.704232 266.400182,148.141309 267.051943,148.42853 C267.051943,148.42853 267.051943,148.550287 267.033142,148.768825 C266.945405,150.15186 266.497319,155.41863 264.554571,158.415725 C262.30161,161.884237 262.53662,181.899212 262.53662,181.899212 L261.023156,193.709639 C261.023156,193.709639 261.963196,200.996326 261.023156,202.270091 C260.177121,203.403368 259.049073,230.367856 258.829731,236.209069 L258.72946,236.209069 C257.78698,236.265405 256.933769,236.783405 256.451431,237.592104 C255.198045,239.608899 250.842529,243.333414 250.842529,243.333414 C249.902489,244.672741 246.396142,245.95275 244.544264,246.558413 C244.296051,246.637913 244.05666,246.742524 243.829834,246.87061 C243.13801,247.246712 242.582283,247.829887 242.241168,248.537744 C241.99757,248.959718 241.93542,249.46185 242.068827,249.930145 C242.545114,251.085275 252.384194,251.893866 254.872165,250.738736 C256.83058,249.827119 264.585906,248.631403 267.803974,248.163107 C269.005822,248.010873 269.95264,247.068811 270.107071,245.871578 C270.164454,245.462053 270.051242,245.046961 269.793724,244.722692 C269.167031,243.96093 268.853685,241.884818 268.718946,240.529881 C268.980613,240.424742 269.224687,240.280519 269.442776,240.102171 C269.178551,235.899324 269.783262,231.687182 271.219451,227.726666 C273.591484,221.482719 274.30278,209.909562 273.726223,202.391848 C273.726223,202.391848 280.95826,171.390648 286.648632,168.496578 C286.736369,168.605847 289.496952,172.139922 289.8479,183.069952 C290.205115,194.174813 294.234751,201.4615 294.234751,201.4615 C294.234751,201.4615 292.454942,220.318222 294.234751,227.373883 L291.906586,238.506842 C291.737379,238.360109 291.627708,238.247718 291.627708,238.247718 C291.627708,238.247718 291.696644,238.559916 291.793781,239.053188 L291.743646,239.287336 L291.843917,239.312311 C292.107128,240.704712 292.498811,243.130485 292.339004,244.554106 C292.245,245.362697 292.025658,246.474119 291.862718,247.563688 C291.618307,249.277652 291.549371,250.938542 292.454942,251.310057 C293.937071,251.903232 302.651237,252.714945 304.133366,250.807419 C304.81155,250.013645 304.979141,248.905308 304.565784,247.947691 C304.457838,247.685596 304.312171,247.440553 304.133366,247.220271 C304.133366,247.220271 301.820869,243.452049 302.47263,240.795249 C302.597559,240.270298 302.497662,239.717226 302.196885,239.268604 C302.297156,237.963619 302.823578,231.928843 304.192902,226.802562 C305.675031,221.236083 308.805362,209.032287 306.502266,201.005692 C306.414529,200.693495 306.314258,200.381297 306.20772,200.0691 C304.878745,195.688213 304.435678,191.088091 304.904198,186.535343 C304.049214,182.647774 304.049214,178.621851 304.904198,174.734282 C306.326792,168.256186 307.3201,161.893603 307.3201,161.893603 C307.3201,161.893603 308.1066,153.336273 307.420371,148.088235 L307.373369,147.751062 L307.749385,147.666768 C307.749385,147.666768 305.734567,138.759777 305.02327,133.093394 C304.854063,131.754068 304.63472,130.058836 304.396577,128.248091 C305.053401,128.143516 305.70016,127.983725 306.329925,127.770429 C312.70966,125.563194 314.715077,105.669976 314.715077,105.669976 L314.715077,99.3635888 C314.715077,99.3635888 316.858367,89.7042017 309.388187,85.4239755 Z M261.696851,239.046944 C261.499443,238.94704 261.383505,238.881479 261.383505,238.881479 L261.696851,239.046944 Z" id="Shape" fill="url(#linearGradient-2)"></path>
                    <path d="M305.530852,200.047815 C308.32264,208.074446 305.064503,221.100396 303.552022,226.915608 C302.039541,232.730821 301.573193,239.714746 301.573193,239.714746 C295.639855,240.644046 291.335586,239.478483 291.335586,239.478483 L293.777613,227.50784 C292.031958,220.413659 293.777613,201.45279 293.777613,201.45279 C293.777613,201.45279 289.823105,194.125497 289.473344,182.958147 C289.129885,171.964056 286.420022,168.413815 286.322341,168.303559 C280.738765,171.211166 273.639557,202.388391 273.639557,202.388391 C274.222492,209.948797 273.52297,221.579222 271.19753,227.860659 C269.787085,231.850524 269.193436,236.083168 269.451875,240.306978 C268.638916,240.993715 267.507706,241.110271 266.285117,240.91496 C262.973414,240.363681 259,237.503327 259,237.503327 C259,237.503327 260.260401,203.541353 261.205702,202.259234 C262.151002,200.977115 261.205702,193.649821 261.205702,193.649821 L262.715032,181.786284 C262.715032,181.786284 262.485009,161.659852 264.693861,158.160014 C266.603369,155.145302 267.041358,149.849868 267.126435,148.460643 C267.126435,148.240132 267.145341,148.117275 267.145341,148.117275 L270.510612,144.085058 C270.510612,144.085058 303.091976,141.643677 305.534003,144.085058 C306.135844,144.686741 306.504511,146.047614 306.725082,147.764456 C307.396245,153.040989 306.627401,161.647252 306.627401,161.647252 C306.627401,161.647252 305.65059,168.045246 304.254696,174.562946 C303.413928,178.472793 303.413928,182.516636 304.254696,186.426483 C303.791342,191.006696 304.224798,195.633286 305.530852,200.047815 Z" id="Shape" fill="#65617D"></path>
                    <path d="M302.40279,249.845058 C301.050611,251.691861 293.107292,250.906439 291.755113,250.333294 C290.929757,249.978489 290.994146,248.371255 291.216583,246.712469 C291.357069,245.657153 291.564871,244.589707 291.649748,243.79822 C291.866331,241.781597 291,237.693764 291,237.693764 C291,237.693764 292.785344,239.65277 293.215583,237.693764 C293.405825,236.838594 294.070207,236.39888 294.758004,236.177506 C295.68458,235.889169 296.680134,235.953706 297.564799,236.359457 C298.966734,236.99022 301.311096,238.336658 300.889637,240.156168 C300.304279,242.727742 302.40279,246.375859 302.40279,246.375859 C302.565405,246.589675 302.697487,246.826616 302.79498,247.079403 C303.172452,248.004906 303.021247,249.071173 302.40279,249.845058 Z" id="Shape" fill="#A27772"></path>
                    <path d="M302.398422,249.922511 C301.03822,251.645463 293.047769,250.912714 291.687567,250.378004 C290.857313,250.046994 290.922085,248.547545 291.145841,247 C292.002592,247.384764 293.462895,247.707287 295.894772,247.489443 C296.463315,247.438526 297.034596,247.421519 297.605329,247.438518 C299.334921,247.514894 301.067868,247.481816 302.792939,247.339498 C303.173856,248.203723 303.021702,249.199913 302.398422,249.922511 Z" id="Shape" fill="#000000" opacity="0.1"></path>
                    <path d="M273.340777,201.869179 C273.922629,209.335444 273.224406,220.821048 270.903287,227.024269 C269.495461,230.964452 268.902916,235.144392 269.160874,239.315607 C268.349426,239.993793 267.220318,240.108898 266,239.916019 C266.701368,235.062947 269.686114,214.194738 271.61409,197.703626 C273.777953,178.92286 283.968234,166 283.968234,166 L286,168.211881 C280.420506,171.080171 273.340777,201.869179 273.340777,201.869179 Z" id="Shape" fill="#000000" opacity="0.1"></path>
                    <path d="M299,81.1273885 L297.561466,88.1815287 L290.518711,100 L281.833284,96.2961783 C281.833284,96.2961783 270.031565,83.9490446 277.44751,82.1847134 C278.33594,81.9952551 279.174761,81.6220586 279.909923,81.089172 C281.367595,79.9936306 281.823715,78.3980892 281.823715,76.8375796 C281.823715,74.2611465 280.618026,71.7770701 280.618026,71.7770701 L295.810346,67 C295.182809,68.9932983 294.816146,71.0592719 294.719485,73.1464968 C294.604657,77.2866242 296.14207,79.3121019 297.401984,80.2834395 C297.873589,80.6673932 298.416721,80.9542337 299,81.1273885 Z" id="Shape" fill="#FBBEBE"></path>
                    <path d="M297,67 C296.380407,69.1066797 296.018386,71.2901685 295.922948,73.4961174 C295.650279,73.8436906 295.359008,74.1740983 295.050598,74.4856814 C291.896222,77.7084635 287.34105,78.8202178 283.190426,77.3803244 C283.190426,74.6573405 282,72.0319666 282,72.0319666 L297,67 Z" id="Shape" fill="#000000" opacity="0.1"></path>
                    <path d="M298.999877,66.0030443 C298.998585,70.8573779 296.072738,75.2327649 291.587067,77.088352 C287.101396,78.943939 281.939608,77.9141628 278.509365,74.4793517 C275.079123,71.0445406 274.056206,65.8813756 275.917744,61.398161 C277.779283,56.9149464 282.15854,53.9949059 287.012858,54.0000617 C290.197901,53.9898366 293.255211,55.2516615 295.505892,57.5053398 C297.756572,59.759018 299.014332,62.8180093 298.999877,66.0030443 Z" id="Shape" fill="#FBBEBE"></path>
                    <path d="M299,80.7985774 L297.561466,87.6018429 L290.518711,99 L281.833284,95.4279017 C281.833284,95.4279017 270.031565,83.5198836 277.44751,81.8182994 C278.33594,81.635579 279.174761,81.275655 279.909923,80.76172 C278.570268,84.3092467 284.101128,91.6868736 284.101128,91.6868736 C284.739058,92.6083091 286.222247,92.0247333 286.222247,92.0247333 C289.781901,91.5087294 296.343019,81.6401552 297.411552,80 C297.881637,80.3637623 298.421331,80.6350887 299,80.7985774 Z" id="Shape" fill="#000000" opacity="0.1"></path>
                    <path d="M307,147.610102 C304.915175,148.064271 293.36747,150.514955 288.987746,149.902284 C284.171958,149.225602 274.801385,148.77753 274.801385,148.77753 C274.801385,148.77753 268.836556,149.082341 267,148.283735 C267,148.070367 267.019098,147.951491 267.019098,147.951491 L270.418477,144.049906 C270.418477,144.049906 303.330071,141.687618 305.796849,144.049906 C306.40479,144.625999 306.777194,145.942784 307,147.610102 Z" id="Shape" fill="#000000" opacity="0.1"></path>
                    <path d="M285.198657,91.95494 C285.198657,91.95494 279.078135,83.6271954 281.384328,80.3917124 L271.044165,84.5525004 C271.044165,84.5525004 264.81996,83.8122564 262.560897,92.9295946 C262.200304,94.4446128 262.070074,96.0036738 262.174437,97.5561194 C262.256127,98.9317394 262.06761,101.352954 260.471499,104.483569 C257.917092,109.495638 258.498354,120.997178 263.720277,122.138388 C268.9422,123.279597 270.795951,122.705908 270.795951,122.705908 C270.795951,122.705908 270.10158,143.549944 267.085307,145.940316 C264.069033,148.330687 274.773662,147.763166 274.773662,147.763166 C274.773662,147.763166 284.023567,148.21965 288.780481,148.901291 C293.537396,149.582933 306.878121,146.51092 306.878121,146.51092 C306.878121,146.51092 304.904976,137.739029 304.210605,132.15944 C303.516233,126.579851 301.888702,114.695852 301.888702,114.695852 L313.724433,98.9656673 C313.724433,98.9656673 315.810689,89.4566167 308.50251,85.2433948 C301.194331,81.0301729 298.448266,80 298.448266,80 C298.448266,80 291.114951,91.7205294 287.288054,92.2973029 C287.288054,92.2973029 285.833331,92.8709919 285.198657,91.95494 Z" id="Shape" fill="#7C7CDD"></path>
                    <path d="M270.700975,95 C270.700975,95 270.600758,98.7786733 271.19935,100.269684 C271.797941,101.760694 274,110 274,110 L269,110 C269,110 271.708559,106.680099 271.5,105.077495 C271.291441,103.474892 270.700975,95 270.700975,95 Z" id="Shape" fill="#000000" opacity="0.1"></path>
                    <path d="M288.460438,125 C288.460438,125 275.672657,121.715611 274.481054,118.933733 C273.289451,116.151855 270,109.904946 270,109.904946 L271.348393,108 L277.569814,113.113794 C277.569814,113.113794 284.979703,119.2983 288.454166,119.905912 C291.92863,120.513524 288.460438,125 288.460438,125 Z" id="Shape" fill="#FBBEBE"></path>
                    <path d="M288.460438,125 C288.460438,125 275.672657,121.715611 274.481054,118.933733 C273.289451,116.151855 270,109.904946 270,109.904946 L271.348393,108 L277.569814,113.113794 C277.569814,113.113794 284.979703,119.2983 288.454166,119.905912 C291.92863,120.513524 288.460438,125 288.460438,125 Z" id="Shape" fill="#000000" opacity="0.05"></path>
                    <path d="M299,109.061384 L299,116.248782 L297.888557,116.248782 C292.403608,116.249878 287.009125,117.703502 282.212841,120.47284 L280.133569,121.675072 L279.574725,122 L276,113.623367 L279.343695,110.504062 L279.515407,110.504062 C280.333379,110.585294 283.870639,110.893975 285.369214,110.367593 C286.79286,109.863955 288.559929,108.268561 292.752817,109.39281 C294.819601,109.941938 296.583548,112.3529 298.587892,111.599068 L299,109.061384 Z" id="Shape" fill="#FBBEBE"></path>
                    <path d="M309.72731,96.9502399 L312,99.5765261 L312,105.946061 C312,105.946061 310.068675,126.041897 303.936411,128.263166 C297.804148,130.484434 286.858949,126.975336 286.858949,126.975336 C286.858949,126.975336 284.029619,119.26418 285.352023,118.799043 C286.674427,118.333905 297.038384,115.514603 297.038384,115.514603 C297.038384,115.514603 296.893842,103.724793 299.163456,100.218859 C299.163456,100.218859 297.687284,89.2390838 302.798529,89.004933 C307.909774,88.7707821 309.72731,96.9502399 309.72731,96.9502399 Z" id="Shape" fill="#000000" opacity="0.1"></path>
                    <path d="M310.72837,96.9502399 L313,99.5765261 L313,105.946061 C313,105.946061 311.075723,126.041897 304.927874,128.263166 C298.780025,130.484434 287.855298,126.975336 287.855298,126.975336 C287.855298,126.975336 285.030361,119.26418 286.352149,118.799043 C287.673936,118.333905 298.033062,115.514603 298.033062,115.514603 C298.033062,115.514603 297.885513,103.724793 300.157144,100.218859 C300.157144,100.218859 298.68166,89.2390838 303.790522,89.004933 C308.899385,88.7707821 310.72837,96.9502399 310.72837,96.9502399 Z" id="Shape" fill="#7C7CDD"></path>
                    <path d="M294.773653,70.5287249 C294.820189,69.7802601 294.835701,68.9886739 294.513051,68.3141315 C294.190401,67.6395892 293.433416,67.1005713 292.695044,67.273057 C291.714686,67.5009846 291.292759,68.7669066 290.331015,69.0718367 C289.521288,69.3274851 288.637104,68.7638265 288.252407,68.0061213 C287.867709,67.2484162 287.855299,66.3736672 287.852197,65.5420397 C287.852197,64.5933682 287.852197,63.6416167 287.852197,62.6929452 C287.852197,61.6580309 287.818071,60.5368738 287.175874,59.729887 C286.378557,58.7165334 284.501604,58.2760788 283.248235,58.3161202 C282.413349,58.3257527 281.612656,58.6468065 281.005199,59.21551 C280.335081,59.7791687 279.55948,60.1980625 278.644272,60.0471375 C277.868344,59.9303879 277.228846,59.3817366 277,58.6364508 L277,58.5994896 C279.655615,55.1161162 284.05729,53.4094881 288.387839,54.1841685 C292.718388,54.958849 296.24326,58.083436 297.50725,62.2679771 C298.771239,66.4525182 297.559947,70.9872281 294.373443,74 C294.572462,72.8512968 294.706077,71.6923654 294.773653,70.5287249 Z" id="Shape" fill="#000000" opacity="0.1"></path>
                    <path d="M278.803564,59.3801011 C278.00333,59.2565961 277.344329,58.6810299 277.108812,57.8999177 C277.009685,57.5161665 277.035266,57.1066169 276.923349,56.7228656 C276.648351,55.7876735 275.644291,55.3007287 275.004762,54.5912726 C273.674541,53.1659108 273.760878,50.8247058 274.704183,49.109112 C275.465223,47.7288974 276.942535,46.5647445 278.480602,46.8324029 C279.439896,47.0000925 280.261691,47.686975 281.230577,47.7482462 C282.199464,47.8095174 283.011666,47.2806502 283.862239,46.8904493 C285.909217,45.9554863 288.210452,45.7496751 290.388634,46.3067605 C291.058159,46.442391 291.678999,46.7576755 292.18571,47.219379 C292.528474,47.6549413 292.848667,48.1080938 293.145004,48.5770199 C294.248192,49.9927073 296.217941,50.2700401 297.973449,50.5892953 C299.728956,50.9085506 301.711496,51.6083322 302.29027,53.3110268 C302.67079,54.439707 302.29027,55.6651311 302.082423,56.8389584 C302.008383,57.0781435 302.024321,57.3364546 302.12719,57.5645385 C302.402188,58.0224602 303.086484,57.8321969 303.604502,57.9418401 C304.602168,58.1514522 304.857979,59.4445971 304.88356,60.4700836 C304.926196,61.6439109 304.958172,62.8177383 304.97949,63.9915656 C305.099655,65.0956991 304.686916,66.1908874 303.869907,66.9358083 L299.971977,71.6601408 C298.242051,73.7562611 296.406602,76.1974349 296.755146,78.8998176 C295.936548,79.2706697 294.964464,78.554764 294.695862,77.6905175 C294.42726,76.826271 294.6447,75.8975285 294.823768,75.0107084 C295.139276,73.4774965 295.345518,71.9234687 295.440913,70.3605463 C295.488878,69.573695 295.504866,68.7481461 295.172311,68.0419149 C294.839756,67.3356836 294.059531,66.7519947 293.298491,66.9487075 C292.288035,67.1873428 291.853155,68.5127357 290.861885,68.8319909 C290.030497,69.0996494 289.115971,68.5095109 288.719463,67.71621 C288.322955,66.9229091 288.310164,66.0070658 288.306967,65.1363697 L288.306967,62.1502046 C288.306967,61.0698965 288.271792,59.8928444 287.60988,59.0479467 C286.788085,57.9869873 284.853509,57.5258409 283.561661,57.5677633 C282.701269,57.5784777 281.876213,57.9145253 281.249763,58.509405 C280.546281,59.0995435 279.74687,59.5348915 278.803564,59.3801011 Z" id="Shape" fill="#7C5C5C"></path>
                    <path d="M282,95 L285.409254,110 C285.409254,110 288.098909,109.984211 282,95 Z" id="Shape" fill="#000000" opacity="0.1"></path>
                    <path d="M293,93 C293,93 288.714646,100.835703 290.387463,108.933649 L291.185659,109 C291.185659,109 289.759095,105.249605 293,93 Z" id="Shape" fill="#000000" opacity="0.1"></path>
                    <path d="M297,136.418934 C297,136.418934 302.593781,134.464062 303,139 C303,139 301.943831,135.891277 297,136.418934 Z" id="Shape" fill="#000000" opacity="0.1"></path>
                    <path d="M279.05036,111 C279.05036,111 277.882302,119.243185 280,122.540459 C280,122.540459 275.720288,124.307083 269.71223,123.953121 L269,111 L279.05036,111 Z" id="Shape" fill="#000000" opacity="0.1"></path>
                    <path d="M280,121.68909 L279.459215,122 L276,113.984737 L279.23565,111 L279.401813,111 C279.350453,111.385529 278.450151,118.287733 280,121.68909 Z" id="Shape" fill="#000000" opacity="0.1"></path>
                    <path d="M280.075297,111 C280.075297,111 278.937913,119.242018 281,122.540101 C281,122.540101 276.832673,124.307159 270.982387,123.953109 L267,111 L280.075297,111 Z" id="Shape" fill="#7C7CDD"></path>
                    <path d="M268.980854,245.608302 C268.845168,246.787381 267.935748,247.723792 266.771139,247.883601 C263.689249,248.350488 256.23724,249.539495 254.357288,250.442144 C251.968823,251.590687 242.522832,250.787641 242.066712,249.639098 C241.938155,249.174739 241.996882,248.677861 242.230052,248.257111 C242.558866,247.55468 243.097898,246.974348 243.770997,246.598104 C243.988275,246.471698 244.217463,246.367432 244.455177,246.286846 C246.233427,245.686117 249.592687,244.419296 250.501844,243.080885 C250.501844,243.080885 254.690132,239.380023 255.882823,237.378632 C256.339743,236.580538 257.160205,236.064685 258.070965,236.00287 C259.069497,235.956182 260.178977,236.463533 260.632015,238.670354 C260.632015,238.670354 266.093123,241.817176 267.569348,239.056315 C267.569348,239.056315 267.797408,243.295653 268.703484,244.453534 C268.945421,244.785366 269.045349,245.201393 268.980854,245.608302 Z" id="Shape" fill="#A27772"></path>
                    <path d="M268.981657,245.229282 C268.845967,246.491246 267.93652,247.493484 266.771876,247.664527 C263.689895,248.164236 256.237664,249.436826 254.357656,250.402929 C251.96912,251.632211 242.522848,250.772713 242.066714,249.54343 C241.938154,249.046428 241.996882,248.514621 242.230059,248.064294 C242.558882,247.312484 243.097931,246.691357 243.77105,246.288664 C245.312041,247.394685 248.729958,248.474055 256.249992,247.204796 C263.421762,245.995502 266.972205,244.809527 268.704278,244 C268.944598,244.353432 269.044446,244.795939 268.981657,245.229282 Z" id="Shape" fill="#000000" opacity="0.1"></path>
                    <g id="Group" opacity="0.1" transform="translate(274.000000, 52.000000)" fill="#000000">
                        <path d="M27.9885714,5.03372093 L27.9885714,4.97930233 C28.1562245,4.14186047 28.4061224,3.2772093 28.3491837,2.4427907 C28.2742137,3.12762595 28.1537667,3.80721349 27.9885714,4.47744186 C27.9443638,4.66046141 27.9443638,4.85070139 27.9885714,5.03372093 Z" id="Shape"></path>
                        <path d="M21.1685714,15.482093 C21.3527243,15.8847191 21.4506031,16.3185285 21.4564286,16.757907 C21.5105876,16.1518747 21.4118744,15.5422667 21.1685714,14.9802326 C20.8522449,14.312093 20.0709184,13.7860465 19.3180612,13.9553488 C18.3184694,14.1790698 17.8882653,15.4216279 16.9076531,15.7209302 C16.0820408,15.9718605 15.1805102,15.4186047 14.785102,14.6748837 C14.3896939,13.9311628 14.3833673,13.0725581 14.3802041,12.2562791 C14.3802041,11.322093 14.3802041,10.3909302 14.3802041,9.45674419 C14.3802041,8.44395349 14.3454082,7.34046512 13.6906122,6.54837209 C12.8776531,5.55372093 10.9607143,5.12139535 9.68591837,5.16069767 C8.83465371,5.17015242 8.01825222,5.48528087 7.39887755,6.04348837 C6.71244898,6.59976744 5.92479592,7.00790698 4.99163265,6.8627907 C4.2000024,6.74700457 3.54808698,6.20741028 3.31510204,5.47511628 C3.21704082,5.11534884 3.24234694,4.73139535 3.13163265,4.37162791 C2.85642857,3.49488372 1.86632653,3.03837209 1.23367347,2.37325581 C0.618592588,1.72531608 0.269213616,0.886770479 0.249897959,0.0120930233 C0.151371786,1.05518539 0.507273027,2.09094356 1.23367347,2.87511628 C1.89163265,3.54023256 2.86908163,3.99976744 3.13163265,4.87651163 C3.24234694,5.23325581 3.21704082,5.6172093 3.31510204,5.97697674 C3.54808698,6.70927074 4.2000024,7.24886503 4.99163265,7.36465116 C5.94061224,7.50976744 6.71244898,7.10162791 7.39887755,6.54534884 C8.01825222,5.98714134 8.83465371,5.67201288 9.68591837,5.66255814 C10.9512245,5.62325581 12.8776531,6.05860465 13.6906122,7.05023256 C14.3454082,7.84837209 14.3770408,8.94581395 14.3802041,9.95860465 C14.3802041,10.8927907 14.3802041,11.8239535 14.3802041,12.7581395 C14.3802041,13.5865116 14.3802041,14.4481395 14.785102,15.1767442 C15.19,15.9053488 16.0820408,16.4737209 16.9076531,16.2227907 C17.8882653,15.9204651 18.3184694,14.6809302 19.3180612,14.4572093 C20.0804082,14.2909302 20.8427551,14.8139535 21.1685714,15.482093 Z" id="Shape"></path>
                        <path d="M30.7690816,12.4074419 C30.5559116,12.9810061 30.2173039,13.5045706 29.7758163,13.9432558 C28.4915306,15.4206202 27.2061905,16.8969767 25.9197959,18.3723256 C24.2970408,20.2376744 22.5762245,22.3962791 22.7027551,24.7755814 C22.8197959,22.5927907 24.4109184,20.6065116 25.9197959,18.874186 L29.7758163,14.4481395 C30.2166891,14.0078373 30.5551792,13.4834244 30.7690816,12.9093023 C30.8645622,12.5131081 30.8986673,12.1056631 30.8703061,11.7 C30.8670952,11.9388925 30.8330976,12.1764966 30.7690816,12.4074419 Z" id="Shape"></path>
                        <path d="M20.7130612,24.025814 C20.6507152,23.8291619 20.6124995,23.6262497 20.5991837,23.4211628 C20.5660289,23.7915562 20.6046338,24.1646174 20.7130612,24.5216279 C20.9787755,25.3318605 21.9435714,26 22.7533673,25.6523256 C22.7312245,25.4890698 22.7185714,25.325814 22.7122449,25.1625581 C21.8961224,25.4830233 20.9597959,24.8239535 20.7130612,24.025814 Z" id="Shape"></path>
                    </g>
                    <path d="M256,238 C256,238 257.081839,240.074618 261,238.247488" id="Shape" fill="#000000" opacity="0.1"></path>
                    <path d="M293,238 C293,238 296.981658,243.356833 302,239.754174" id="Shape" fill="#000000" opacity="0.1"></path>
                    <path d="M304,186 C304,186 301.095766,187.713835 301.003838,188.694547 C300.91191,189.675259 302.501919,187.980717 302.501919,187.980717 L304,186 Z" id="Shape" fill="#000000" opacity="0.1"></path>
                    <path d="M305,199 C304.031476,199.694505 302.827399,200.099472 301.56876,200.154027 C299.487141,200.232839 299.660337,202.571854 301.019762,201.868179 C302.379186,201.164504 305,199 305,199 Z" id="Shape" fill="#000000" opacity="0.1"></path>
                    <path d="M306,200 C306,200 304.34413,206.011752 303,204.851275" id="Shape" fill="#000000" opacity="0.1"></path>
                    <path d="M42.9579,229 C42.9579,229 44.7564843,231.245755 42.1257681,234.630027 C39.4950519,238.014298 37.3262672,240.885612 38.1944363,243 C38.1944363,243 42.1618053,236.700626 45.401878,236.613047 C48.6419506,236.525469 46.5124792,232.787757 42.9579,229 Z" id="Shape" fill="#6E72EE"></path>
                    <path d="M42.9042984,229 C43.0637314,229.216088 43.1887691,229.453027 43.2754345,229.703282 C46.4632284,233.23532 48.1631642,236.532931 45.0979778,236.617325 C42.2448691,236.692342 38.8019191,241.509042 38,242.724939 C38.027038,242.818112 38.0591125,242.909919 38.0960977,243 C38.0960977,243 42.1090067,236.704845 45.386271,236.617325 C48.6635352,236.529806 46.4996793,232.78522 42.9042984,229 Z" id="Shape" fill="#000000" opacity="0.1"></path>
                    <path d="M47,232.521242 C47,233.33811 46.7795276,234 46.503937,234 C46.2283465,234 46,233.33811 46,232.521242 C46,231.704373 46.2834646,232.091821 46.5590551,232.091821 C46.8346457,232.091821 47,231.710831 47,232.521242 Z" id="Shape" fill="#FFD037"></path>
                    <path d="M47.5260101,233.503134 C46.7457677,233.855265 46.0639343,234.067708 46.004186,233.980403 C45.9444377,233.893098 46.5313768,233.532236 47.3116192,233.180105 C48.0918616,232.827974 47.7825763,233.084069 47.8423246,233.180105 C47.9020729,233.276141 48.3062526,233.151003 47.5260101,233.503134 Z" id="Shape" fill="#FFD037"></path>
                    <path d="M34.0416769,229 C34.0416769,229 32.2429391,231.245755 34.8738798,234.630027 C37.5048205,238.014298 39.6737903,240.885612 38.8055471,243 C38.8055471,243 34.8378395,236.700626 31.5974904,236.613047 C28.3571413,236.525469 30.4900708,232.787757 34.0416769,229 Z" id="Shape" fill="#6E72EE"></path>
                    <path d="M34.0952794,229 C33.9372897,229.216899 33.8123491,229.453635 33.7241113,229.703282 C30.5360429,233.23532 28.8359607,236.532931 31.9014111,236.617325 C34.7580794,236.692342 38.1980119,241.509042 39,242.724939 C38.9744405,242.818527 38.9423349,242.910415 38.903894,243 C38.903894,243 34.8906395,236.704845 31.613093,236.617325 C28.3355466,236.529806 30.5029029,232.78522 34.0952794,229 Z" id="Shape" fill="#000000" opacity="0.1"></path>
                    <path d="M31,232.521242 C31,233.33811 31.2204724,234 31.496063,234 C31.7716535,234 32,233.33811 32,232.521242 C32,231.704373 31.7165354,232.091821 31.4409449,232.091821 C31.1653543,232.091821 31,231.710831 31,232.521242 Z" id="Shape" fill="#FFD037"></path>
                    <path d="M29.4760689,233.503134 C30.257047,233.855265 30.9360054,234.067708 30.9958101,233.980403 C31.0556147,233.893098 30.4681222,233.532236 29.6871441,233.180105 C28.906166,232.827974 29.2157429,233.084069 29.1559382,233.180105 C29.0961336,233.276141 28.6950908,233.151003 29.4760689,233.503134 Z" id="Shape" fill="#FFD037"></path>
                    <path d="M31,243.573359 C31,243.573359 35.8371502,243.427616 37.2983727,242.404314 C38.7595951,241.381011 44.7367508,240.162351 45.0989073,241.802736 C45.4610637,243.443121 52.3672293,249.955045 46.9065402,249.998458 C41.4458511,250.041871 34.2184684,249.161211 32.7635444,248.286752 C31.3086203,247.412294 31,243.573359 31,243.573359 Z" id="Shape" fill="#A8A8A8"></path>
                    <path d="M47.0048165,249.383608 C41.5428303,249.430894 34.3137309,248.471664 32.8584613,247.519189 C31.7496844,246.796389 31.3086936,244.199038 31.1606467,243 L31,243 C31,243 31.3149934,247.18481 32.7608133,248.133907 C34.2066332,249.083004 41.4451823,250.045612 46.9071685,249.998326 C48.4821357,249.998326 49.0302242,249.383608 48.9987249,248.49193 C48.7813794,249.035718 48.179742,249.373476 47.0048165,249.383608 Z" id="Shape" fill="#000000" opacity="0.2"></path>
                </g>
            </g>
        </g>
    </g>
</svg>